<svg width="24" height="24" viewBox="0 0 24 24" fill="none" xmlns="http://www.w3.org/2000/svg">
<path d="M16.9275 10.575C16.7999 10.6358 16.692 10.7314 16.6164 10.8509C16.5407 10.9703 16.5004 11.1087 16.5 11.25V13.5H10.5C10.3011 13.5 10.1103 13.579 9.96967 13.7197C9.82902 13.8603 9.75 14.0511 9.75 14.25V15.75C9.75 15.9489 9.82902 16.1397 9.96967 16.2804C10.1103 16.421 10.3011 16.5 10.5 16.5H16.5V18.75C16.5002 18.8942 16.5419 19.0352 16.6201 19.1562C16.6984 19.2773 16.8098 19.3732 16.9412 19.4326C17.0725 19.4919 17.2182 19.5121 17.3608 19.4909C17.5033 19.4696 17.6367 19.4077 17.745 19.3125L22.245 15.39C22.325 15.3197 22.3891 15.2332 22.4331 15.1362C22.4771 15.0393 22.4999 14.934 22.5 14.8275C22.4973 14.7174 22.4703 14.6093 22.4211 14.5108C22.3718 14.4122 22.3014 14.3258 22.215 14.2575L17.715 10.68C17.6067 10.5905 17.4755 10.5333 17.3363 10.5147C17.1971 10.4961 17.0554 10.517 16.9275 10.575ZM7.0725 13.425C7.20013 13.3642 7.30798 13.2686 7.38362 13.1492C7.45925 13.0298 7.4996 12.8914 7.5 12.75V10.5H13.5C13.6989 10.5 13.8897 10.421 14.0303 10.2804C14.171 10.1397 14.25 9.94894 14.25 9.75003V8.25003C14.25 8.05112 14.171 7.86035 14.0303 7.7197C13.8897 7.57905 13.6989 7.50003 13.5 7.50003H7.5V5.25003C7.49982 5.1059 7.45811 4.96487 7.37986 4.84382C7.30162 4.72278 7.19015 4.62684 7.0588 4.5675C6.92745 4.50815 6.78179 4.48791 6.63923 4.5092C6.49668 4.53049 6.36328 4.5924 6.255 4.68753L1.755 8.61003C1.675 8.68031 1.61088 8.76682 1.56691 8.86381C1.52294 8.9608 1.50013 9.06604 1.5 9.17253C1.50274 9.28264 1.52969 9.39079 1.57895 9.4893C1.62821 9.58782 1.69856 9.67427 1.785 9.74253L6.285 13.32C6.39326 13.4095 6.52448 13.4668 6.6637 13.4854C6.80293 13.5039 6.94457 13.483 7.0725 13.425Z" fill="#9DA7A4"/>
</svg>
