<svg width="182" height="53" viewBox="0 0 182 53" fill="none" xmlns="http://www.w3.org/2000/svg">
<path d="M56.4939 14.2295H60.9186V24.2333H61.1821L69.7716 14.2295H75.1166V14.4913L66.6245 24.1365L76.0008 37.3004V37.5623H70.5908L63.6073 27.6266L60.9186 30.722V37.5659H56.4939V14.2295Z" fill="#0EA579"/>
<path d="M87.4738 35.8653H87.2104C86.7087 36.475 86.1024 36.9951 85.3914 37.4292C84.6804 37.8632 83.7673 38.082 82.6558 38.082C81.8257 38.082 81.0425 37.9457 80.3135 37.6731C79.5809 37.4005 78.942 37.0274 78.3971 36.5504C77.8521 36.0733 77.4262 35.4958 77.1195 34.8251C76.8127 34.1507 76.6611 33.4118 76.6611 32.6084C76.6611 31.7834 76.8235 31.0409 77.152 30.3773C77.4804 29.7137 77.9387 29.1434 78.527 28.6664C79.1189 28.1893 79.8118 27.8234 80.6094 27.5759C81.407 27.3249 82.2768 27.2029 83.2152 27.2029C84.2654 27.2029 85.128 27.2854 85.8065 27.4468C86.485 27.6082 87.0408 27.7768 87.4774 27.9526V27.4648C87.4774 26.6182 87.1382 25.9188 86.4597 25.3628C85.7812 24.8105 84.9403 24.5307 83.937 24.5307C82.45 24.5307 81.1941 25.1512 80.1655 26.3887L77.0509 24.2724C78.7544 22.1454 81.0822 21.0801 84.0344 21.0801C86.5247 21.0801 88.4266 21.6612 89.7403 22.8233C91.0504 23.9855 91.7073 25.7072 91.7073 27.9884V37.569H87.4774V35.8653H87.4738ZM87.4738 31.0768C86.9722 30.8364 86.4525 30.6463 85.9183 30.5064C85.3842 30.3666 84.7995 30.2948 84.1643 30.2948C83.1358 30.2948 82.3454 30.5172 81.786 30.962C81.2302 31.4068 80.9487 31.9556 80.9487 32.6084C80.9487 33.2612 81.2158 33.7813 81.7535 34.1723C82.2876 34.5632 82.9048 34.7605 83.6049 34.7605C84.1716 34.7605 84.6985 34.6565 85.1785 34.452C85.6585 34.2476 86.0699 33.975 86.4092 33.6378C86.7484 33.3006 87.0083 32.9097 87.1959 32.4649C87.38 32.0165 87.4738 31.5538 87.4738 31.0768Z" fill="#0EA579"/>
<path d="M106.916 35.6361H106.653C106.259 36.3104 105.646 36.8843 104.816 37.3614C103.985 37.8385 102.957 38.0788 101.733 38.0788C100.705 38.0788 99.7268 37.8671 98.7992 37.4439C97.8717 37.0206 97.0488 36.4324 96.3415 35.6827C95.6305 34.9331 95.0675 34.0363 94.6524 32.9961C94.2374 31.9524 94.0281 30.8117 94.0281 29.5742C94.0281 28.3368 94.2338 27.1961 94.6524 26.1523C95.0675 25.1086 95.6305 24.2118 96.3415 23.4658C97.0524 22.7161 97.8717 22.1314 98.7992 21.7046C99.7268 21.2813 100.705 21.0697 101.733 21.0697C102.957 21.0697 103.985 21.31 104.816 21.7871C105.646 22.2641 106.259 22.8416 106.653 23.5124H106.916L106.653 21.2311V14.2295H110.947V37.5587H106.916V35.6361ZM102.621 34.1368C103.188 34.1368 103.729 34.0328 104.245 33.8283C104.758 33.6238 105.213 33.3225 105.606 32.9316C105.999 32.5406 106.317 32.0635 106.555 31.4968C106.797 30.9337 106.916 30.2916 106.916 29.5742C106.916 28.8569 106.797 28.2184 106.555 27.6517C106.313 27.0885 105.999 26.6079 105.606 26.2169C105.213 25.8259 104.758 25.5282 104.245 25.3202C103.733 25.1157 103.191 25.0117 102.621 25.0117C102.051 25.0117 101.513 25.1193 100.997 25.3381C100.485 25.5569 100.03 25.8582 99.6365 26.2492C99.2431 26.6402 98.9255 27.1172 98.6873 27.6839C98.4455 28.2471 98.3264 28.8784 98.3264 29.5742C98.3264 30.2701 98.4455 30.8978 98.6873 31.4645C98.9292 32.0313 99.2431 32.5083 99.6365 32.8993C100.03 33.2903 100.485 33.5952 100.997 33.8104C101.51 34.0292 102.051 34.1368 102.621 34.1368Z" fill="#0EA579"/>
<path d="M124.355 35.8653H124.091C123.59 36.475 122.983 36.9951 122.272 37.4292C121.561 37.8632 120.648 38.082 119.537 38.082C118.707 38.082 117.923 37.9457 117.194 37.6731C116.462 37.4005 115.823 37.0274 115.278 36.5504C114.733 36.0733 114.307 35.4958 114 34.8251C113.694 34.1507 113.542 33.4118 113.542 32.6084C113.542 31.7834 113.704 31.0409 114.033 30.3773C114.361 29.7137 114.82 29.1434 115.408 28.6664C116 28.1893 116.693 27.8234 117.49 27.5759C118.288 27.3249 119.158 27.2029 120.096 27.2029C121.146 27.2029 122.009 27.2854 122.687 27.4468C123.366 27.6082 123.922 27.7768 124.358 27.9526V27.4648C124.358 26.6182 124.019 25.9188 123.341 25.3628C122.662 24.8105 121.821 24.5307 120.818 24.5307C119.331 24.5307 118.075 25.1512 117.046 26.3887L113.932 24.2724C115.635 22.1454 117.963 21.0801 120.915 21.0801C123.406 21.0801 125.307 21.6612 126.621 22.8233C127.931 23.9855 128.588 25.7072 128.588 27.9884V37.569H124.358V35.8653H124.355ZM124.355 31.0768C123.853 30.8364 123.333 30.6463 122.799 30.5064C122.265 30.3666 121.68 30.2948 121.045 30.2948C120.017 30.2948 119.226 30.5172 118.667 30.962C118.111 31.4068 117.83 31.9556 117.83 32.6084C117.83 33.2612 118.097 33.7813 118.634 34.1723C119.169 34.5632 119.786 34.7605 120.486 34.7605C121.052 34.7605 121.579 34.6565 122.059 34.452C122.539 34.2476 122.951 33.975 123.29 33.6378C123.629 33.3006 123.889 32.9097 124.077 32.4649C124.261 32.0165 124.355 31.5538 124.355 31.0768Z" fill="#0EA579"/>
<path d="M129.96 21.5938H134.843L138.842 31.759H139.073L143.104 21.5938H147.954L141.036 37.559H136.806L129.96 21.5938Z" fill="#0EA579"/>
<path d="M149.925 21.5933H153.956V23.81H154.22C154.415 23.4191 154.678 23.0604 155.007 22.734C155.335 22.4076 155.699 22.1242 156.104 21.8839C156.508 21.6436 156.945 21.4463 157.414 21.2956C157.883 21.1486 158.349 21.0732 158.807 21.0732C159.373 21.0732 159.861 21.1342 160.265 21.2526C160.669 21.3745 161.012 21.5288 161.297 21.7225L160.149 25.5353C159.886 25.4062 159.597 25.3022 159.28 25.2269C158.962 25.1515 158.576 25.1121 158.118 25.1121C157.529 25.1121 156.992 25.2269 156.511 25.4564C156.031 25.686 155.62 26.0088 155.281 26.4213C154.942 26.8374 154.678 27.3216 154.494 27.8776C154.306 28.4336 154.216 29.0397 154.216 29.6961V37.5586H149.921V21.5933H149.925Z" fill="#0EA579"/>
<path d="M172.514 35.8653H172.25C171.749 36.475 171.142 36.9951 170.431 37.4292C169.72 37.8632 168.807 38.082 167.696 38.082C166.866 38.082 166.083 37.9457 165.354 37.6731C164.621 37.4005 163.982 37.0274 163.437 36.5504C162.892 36.0733 162.466 35.4958 162.16 34.8251C161.853 34.1507 161.701 33.4118 161.701 32.6084C161.701 31.7834 161.864 31.0409 162.192 30.3773C162.52 29.7137 162.979 29.1434 163.567 28.6664C164.159 28.1893 164.852 27.8234 165.649 27.5759C166.447 27.3249 167.317 27.2029 168.255 27.2029C169.305 27.2029 170.168 27.2854 170.846 27.4468C171.525 27.6082 172.081 27.7768 172.517 27.9526V27.4648C172.517 26.6182 172.178 25.9188 171.5 25.3628C170.821 24.8105 169.98 24.5307 168.977 24.5307C167.49 24.5307 166.234 25.1512 165.206 26.3887L162.091 24.2724C163.794 22.1454 166.122 21.0801 169.074 21.0801C171.565 21.0801 173.467 21.6612 174.78 22.8233C176.09 23.9855 176.747 25.7072 176.747 27.9884V37.569H172.517V35.8653H172.514ZM172.514 31.0768C172.012 30.8364 171.493 30.6463 170.958 30.5064C170.424 30.3666 169.84 30.2948 169.204 30.2948C168.176 30.2948 167.385 30.5172 166.826 30.962C166.27 31.4068 165.989 31.9556 165.989 32.6084C165.989 33.2612 166.256 33.7813 166.794 34.1723C167.328 34.5632 167.945 34.7605 168.645 34.7605C169.212 34.7605 169.739 34.6565 170.219 34.452C170.699 34.2476 171.11 33.975 171.449 33.6378C171.788 33.3006 172.048 32.9097 172.236 32.4649C172.42 32.0165 172.514 31.5538 172.514 31.0768Z" fill="#0EA579"/>
<path d="M51.9573 1.90814C49.1964 3.45409 47.3486 5.84297 45.4322 8.13858C39.7515 14.9429 34.089 21.758 28.4516 28.5982C27.6143 29.6133 26.8709 30.1191 25.3623 30.0151C21.8759 29.7712 18.3571 29.9039 14.8527 29.9541C13.9757 29.9649 13.5174 29.7496 13.1348 28.9067C11.4314 25.1656 9.69179 21.4388 7.84035 17.7694C7.11132 16.3239 6.05026 15.0434 5.15161 13.6983C5.19853 13.6947 5.51613 13.6337 5.83372 13.6337C8.89058 13.6445 11.9474 13.7341 15.0007 13.6588C17.4115 13.5978 18.8588 14.8425 19.8874 16.7902C20.4684 17.8914 20.9737 19.0284 21.7604 20.6604C22.0456 20.1188 22.1611 19.7745 22.374 19.5126C26.5136 14.5125 30.7073 9.55899 34.7891 4.51223C36.175 2.79769 37.8496 1.92966 39.9934 1.91531C43.9777 1.88662 47.9657 1.90814 51.9573 1.90814Z" fill="#0EA579"/>
<path d="M27.5205 30.3267C27.784 30.2944 28.1665 30.2012 28.5491 30.2012C31.3317 30.2048 34.1178 30.3016 36.8968 30.2191C39.1777 30.151 40.4589 31.349 41.3612 33.2106C43.6638 37.9704 45.9664 42.7338 48.2798 47.4864C48.785 48.5266 49.3011 49.5704 49.9219 50.5425C50.1817 50.9478 50.7339 51.1666 51.2211 51.5217C47.4461 51.5217 43.7107 51.6508 39.9934 51.4643C38.3224 51.3818 37.3082 49.9255 36.59 48.4979C34.8288 44.9935 33.1542 41.4461 31.4075 37.9309C30.1659 35.4345 28.8703 32.9631 27.5205 30.3267Z" fill="#0EA579"/>
</svg>
