<svg width="476" height="404" viewBox="0 0 476 404" fill="none" xmlns="http://www.w3.org/2000/svg">
<path d="M374.777 353.977C371.915 388.586 451.514 389.353 453.302 424.034C454.254 442.501 426.999 450.922 415.546 465.44C404.832 479.02 398.794 497.056 386.097 508.804C373.27 520.674 351.006 521.407 340.113 535.074C325.593 553.292 336.632 586.691 319.65 602.641C305.621 615.818 281.307 621.583 262.881 616.021C232.185 606.757 227.933 539.151 196.433 545.134C155.458 552.916 191.529 662.185 149.824 662.61C114.758 662.966 136.395 586.077 108.634 564.651C96.3151 555.144 73.6642 568.232 61.9534 557.985C46.5326 544.492 50.7434 517.922 45.0915 498.226C40.9925 483.942 44.0383 464.334 32.4783 454.996C18.801 443.946 -6.81955 461.996 -20.6644 451.157C-31.4317 442.728 -24.3279 421.91 -33.4828 411.752C-47.2042 396.528 -74.38 399.514 -90.2361 386.528C-104.221 375.074 -110.789 356.086 -121.913 341.837C-136.909 322.629 -170.324 310.16 -169.998 285.794C-169.7 263.578 -132.659 256.673 -124.805 235.89C-117.8 217.353 -138.9 190.537 -125.603 175.844C-106.117 154.314 -65.7787 176.497 -37.9345 168.255C-23.1858 163.888 -10.9339 152.399 3.20721 146.348C16.3772 140.712 35.7494 144.12 44.4211 132.717C62.3197 109.183 21.0117 53.2973 48.8112 43.2265C81.8988 31.24 86.2146 116.641 121.044 121.68C134.247 123.59 146.581 110.626 155.733 100.92C181.402 73.6959 171.498 7.93437 208.143 0.374302C227.851 -3.69145 239.612 26.4352 255.427 38.8772C269.087 49.6231 289.647 55.1665 297.36 70.7405C309.06 94.3641 297.196 124.264 297.257 150.626C297.294 167.09 284.111 191.005 297.549 200.517C338.911 229.792 411.161 110.626 442.669 150.314C462.224 174.947 381.503 201.286 391.893 230.972C401.454 258.285 465.884 232.285 474.694 259.849C481.606 281.474 451.391 300.358 434.918 315.979C417.884 332.134 376.711 330.581 374.777 353.977Z" fill="#E8F4F0"/>
</svg>
