<svg width="257" height="315" viewBox="0 0 257 315" fill="none" xmlns="http://www.w3.org/2000/svg">
<path d="M320.932 152.428C327.316 173.346 373.352 186.221 361.664 204.706C344.826 231.334 292.493 163.6 268.469 183.982C259.017 192.002 277.96 211.557 270.541 221.488C264.873 229.076 252.084 228.06 242.613 228.099C233.106 228.138 222.648 216.753 214.526 221.693C189.215 237.089 215.544 290.613 192 308.595C180.922 317.057 160.503 316.945 149.761 308.061C132.018 293.388 138.054 262.616 135.799 239.702C134.295 224.419 148.928 201.523 136.044 193.167C113.5 178.547 80.5311 246.108 61.8794 226.768C48.0485 212.426 94.1201 191.905 88.7728 172.712C85.5946 161.304 67.1431 161.548 58.4778 153.476C49.3264 144.951 31.8954 134.832 35.9478 123C43.7114 100.332 100.568 126.709 105.843 103.335C111.211 79.5483 40.8112 77.2181 50.1993 54.7125C58.0681 35.8487 99.6358 75.4767 111.975 59.1822C126.125 40.4958 71.0814 8.77429 87.8349 -7.61875C100.651 -20.1593 122.656 20.3063 138.524 11.955C156.647 2.41669 137.669 -34.7029 152.874 -48.4237C162.542 -57.1487 179.088 -51.8743 192 -53.5735C205.711 -55.3779 221.993 -66.6369 233.55 -59.0405C250.813 -47.6927 233.239 -9.91708 250.667 1.17744C263.122 9.10636 285.446 -17.3461 294.836 -5.95198C309.687 12.0697 256.173 41.9593 270.416 60.4658C283.324 77.2388 313.684 49.5803 334.273 54.4852C350.223 58.285 375.467 64.5522 376.34 80.9256C377.535 103.318 333.46 103.175 322.979 123C318.43 131.606 318.091 143.117 320.932 152.428Z" fill="#E8F4F0"/>
</svg>
