<svg width="263" height="162" viewBox="0 0 263 162" fill="none" xmlns="http://www.w3.org/2000/svg">
<path d="M122.249 146.054C117.631 146.174 112.833 145.994 107.944 145.497C66.3675 141.271 18.6236 114.616 23.4371 69.2184C24.0388 63.5625 25.4527 57.6209 27.7843 51.4084C41.232 15.6832 112.171 1.00201 150.258 34.2603C188.345 67.5186 222.791 22.6778 245.31 51.4084C279.44 94.9406 171.091 144.715 122.249 146.054Z" fill="#0EA579"/>
<path d="M107.944 145.498C66.3675 141.271 18.6236 114.616 23.4371 69.2186C27.694 71.49 32.8084 76.2283 33.5454 83.8547C34.3126 83.5087 35.0346 83.2379 35.6363 83.1176C38.9606 82.4106 44.0148 93.4666 43.4583 99.4384L43.5034 100.732C43.5034 100.732 44.9926 103.575 46.6773 107.321C47.5347 109.216 48.4372 111.352 49.2194 113.473C49.8963 115.293 50.4529 117.113 50.9493 118.828L53.2808 114.375C59.5083 102.281 62.3362 101.544 62.953 97.8138C63.0583 97.2272 63.1485 94.6851 63.2388 91.3758C63.4794 83.0725 63.6599 69.8654 63.6599 69.8654C63.6599 69.8654 52.98 68.647 52.8295 67.925C52.6942 67.2782 59.3579 60.8251 66.4728 55.6806C60.8019 53.2889 61.3886 48.2498 63.4644 45.9934C70.8802 37.9308 84.0722 54.763 84.0722 54.763C84.0722 54.763 86.148 51.9502 88.1186 53.1385C89.5626 54.0109 87.562 59.4261 85.9374 62.2541C89.683 61.4568 93.4435 62.3142 92.8719 65.2324C92.1649 68.8576 83.3502 70.9485 83.3502 70.9485C83.3502 70.9485 82.4777 79.3721 82.1318 89.3451C82.0415 91.9173 81.9964 94.5948 81.9964 97.2573C81.9964 98.0996 81.9964 98.942 82.0114 99.7693C82.0265 100.416 94.0753 108.885 101.07 127.221L107.944 145.498Z" fill="#FFFEF2"/>
<path d="M35.0649 90.2471C35.0649 90.2471 28.8525 91.1947 27.8898 89.3295C27.1226 87.8554 30.6274 85.2079 33.5306 83.8692C32.3573 71.8204 20.3085 67.0069 17.9168 67.6838C9.32768 70.1056 -1.1417 76.8746 0.407649 78.2133C1.957 79.5521 14.9083 85.3584 15.1791 96.9559C15.4499 108.553 11.1478 119.083 12.8325 120.828C13.7501 121.791 18.368 115.984 24.5805 111.171C26.3555 109.787 28.0402 108.343 29.4993 106.778C32.2219 103.875 34.1774 100.596 34.5835 96.6551L34.8844 96.6099C34.4331 93.9926 34.8543 90.6382 35.0649 90.2471Z" fill="#FBD931"/>
<path d="M205.357 86.938C195.986 86.8177 188.299 89.2846 182.132 92.8346C182.132 92.8346 183.08 88.2317 180.207 88.2618C180.282 84.5614 181.651 16.8414 180.793 7.59041C179.921 -1.93131 170.399 0.851499 143.594 1.15234C116.804 1.43815 105.808 -0.893393 102.739 4.37138C99.6708 9.63615 102.288 66.3753 101.912 89.3298C101.055 142.338 98.8585 150.882 108.831 150.792C120.489 150.672 170.429 149.784 170.429 149.784L177.409 149.905C182.463 152.056 188.946 153.545 197.189 153.771C224.446 154.523 240.917 144.49 244.708 129.162C248.513 113.818 233.847 87.3141 205.357 86.938Z" fill="#FFFEF2"/>
<path d="M214.353 56.3419C220.64 55.1837 226.537 61.3812 224.13 68.1803C221.708 74.9795 211.555 74.3928 208.516 69.3386C205.297 63.9835 208.366 57.4551 214.353 56.3419Z" fill="#FBD931"/>
<path d="M67.872 65.1872C67.4809 65.1872 67.165 64.8713 67.165 64.4802V62.6601C67.165 62.269 67.4809 61.9531 67.872 61.9531C68.2631 61.9531 68.579 62.269 68.579 62.6601V64.4802C68.579 64.8713 68.2631 65.1872 67.872 65.1872Z" fill="#202D37"/>
<path d="M72.2031 65.5632C71.812 65.5632 71.4961 65.2473 71.4961 64.8562V63.0361C71.4961 62.645 71.812 62.3291 72.2031 62.3291C72.5942 62.3291 72.9101 62.645 72.9101 63.0361V64.8562C72.9101 65.2473 72.5942 65.5632 72.2031 65.5632Z" fill="#202D37"/>
<path d="M172.927 110.239C172.536 110.239 172.22 109.923 172.22 109.532V107.711C172.22 107.32 172.536 107.004 172.927 107.004C173.318 107.004 173.634 107.32 173.634 107.711V109.532C173.634 109.923 173.318 110.239 172.927 110.239Z" fill="#202D37"/>
<path d="M179.785 112.841C179.394 112.841 179.078 112.525 179.078 112.134V110.313C179.078 109.922 179.394 109.606 179.785 109.606C180.176 109.606 180.492 109.922 180.492 110.313V112.134C180.492 112.525 180.176 112.841 179.785 112.841Z" fill="#202D37"/>
<path d="M124.296 101.74L124.401 103.199H122.46L122.566 101.74L121.332 102.582L120.445 101.003L121.904 100.281L120.43 99.5586L121.332 98.0243L122.566 98.8366L122.46 97.3774H124.401L124.296 98.8366L125.529 98.0243L126.432 99.5586L124.957 100.281L126.417 101.003L125.529 102.582L124.296 101.74Z" fill="#202D37"/>
<path d="M136.826 101.74L136.931 103.199H134.991L135.096 101.74L133.863 102.582L132.975 101.003L134.434 100.281L132.96 99.5586L133.863 98.0243L135.096 98.8366L134.991 97.3774H136.931L136.826 98.8366L138.059 98.0243L138.962 99.5586L137.488 100.281L138.947 101.003L138.059 102.582L136.826 101.74Z" fill="#202D37"/>
<path d="M149.701 101.74L149.806 103.199H147.866L147.971 101.74L146.738 102.582L145.85 101.003L147.309 100.281L145.835 99.5586L146.738 98.0243L147.971 98.8366L147.866 97.3774H149.806L149.701 98.8366L150.934 98.0243L151.837 99.5586L150.363 100.281L151.822 101.003L150.934 102.582L149.701 101.74Z" fill="#202D37"/>
<path d="M12.9522 75.4008C12.9673 75.4008 12.9823 75.4158 13.0275 75.4158C13.0575 75.4309 13.1177 75.4459 13.1929 75.476C13.2681 75.5061 13.3584 75.5512 13.4336 75.5963C13.5088 75.6415 13.5991 75.7016 13.6893 75.7769C13.7796 75.8521 13.8698 75.9423 13.93 76.0476C14.0654 76.2432 14.1556 76.4387 14.2008 76.6343C14.2459 76.8298 14.2459 77.0103 14.2158 77.1758C14.1707 77.3413 14.1105 77.4917 14.0052 77.6421C13.8999 77.7775 13.7796 77.9129 13.6141 78.0182L11.2224 79.5826C11.1923 79.5976 11.1622 79.6127 11.1321 79.6127C11.102 79.6127 11.087 79.5976 11.0569 79.5675L8.09354 75.6716C8.0785 75.6415 8.06345 75.6264 8.0785 75.5963C8.09354 75.5663 8.10858 75.5512 8.13866 75.5362L10.5003 74.2425C10.6808 74.1372 10.8764 74.0771 11.0719 74.047C11.2675 74.0169 11.463 74.0169 11.6586 74.047C11.8541 74.0771 12.0347 74.1523 12.2152 74.2726C12.3957 74.393 12.5461 74.5434 12.6965 74.7389C12.7868 74.8593 12.8469 74.9796 12.8921 75.0999C12.9372 75.2052 12.9522 75.2955 12.9522 75.3406V75.4008ZM10.2897 75.7618L10.6658 76.2733C10.6808 76.3033 10.7109 76.3033 10.741 76.2883L11.1923 76.0326C11.2976 75.9724 11.3577 75.8972 11.3878 75.7919C11.4179 75.6866 11.4029 75.5963 11.3427 75.5211C11.2825 75.4459 11.1923 75.3858 11.087 75.3707C10.9666 75.3557 10.8613 75.3707 10.7711 75.4309L10.3198 75.6866C10.2747 75.7167 10.2747 75.7317 10.2897 75.7618ZM12.5311 77.4165C12.6213 77.3563 12.6965 77.2811 12.7116 77.1758C12.7416 77.0855 12.7266 76.9953 12.6664 76.905C12.6063 76.8298 12.5311 76.7847 12.4107 76.7697C12.3054 76.7546 12.2001 76.7697 12.0948 76.8298L11.448 77.236C11.4179 77.251 11.4029 77.2811 11.433 77.3112L11.809 77.8076C11.8241 77.8377 11.8541 77.8377 11.8842 77.8226L12.5311 77.4165Z" fill="#202D37"/>
<path d="M16.3219 76.2431L15.3291 76.89C15.299 76.905 15.284 76.9201 15.2539 76.905C15.2238 76.905 15.2088 76.89 15.1937 76.8599L12.6215 73.1745C12.6064 73.1444 12.6064 73.1294 12.6064 73.0993C12.6064 73.0692 12.6365 73.0542 12.6516 73.0391L13.7497 72.4374C13.7798 72.4224 13.7948 72.4224 13.8249 72.4224C13.855 72.4224 13.87 72.4374 13.8851 72.4675L16.352 76.0927C16.3671 76.1078 16.3671 76.1378 16.3671 76.1679C16.352 76.2131 16.337 76.2281 16.3219 76.2431Z" fill="#202D37"/>
<path d="M19.0292 74.3629C19.0442 74.378 19.0442 74.4081 19.0442 74.4231C19.0442 74.4382 19.0292 74.4682 19.0141 74.4682L16.9082 75.8521C16.8781 75.8672 16.8631 75.8672 16.833 75.8672C16.8029 75.8672 16.7878 75.8521 16.7728 75.8221L14.351 72.2119C14.3359 72.1818 14.3359 72.1668 14.3359 72.1367C14.3359 72.1066 14.351 72.0915 14.3811 72.0765L15.4039 71.5199C15.419 71.5049 15.4491 71.5049 15.4792 71.5049C15.5092 71.5049 15.5243 71.5199 15.5393 71.55L17.3595 74.3329L18.4726 73.6259C18.4876 73.6108 18.5177 73.6108 18.5328 73.6108C18.5478 73.6108 18.5779 73.6259 18.5929 73.6559L19.0292 74.3629Z" fill="#202D37"/>
<path d="M21.4218 72.7986C21.4369 72.8136 21.4369 72.8437 21.4369 72.8587C21.4369 72.8738 21.4218 72.8888 21.4068 72.9039L19.5115 74.1373C19.4964 74.1524 19.4663 74.1524 19.4513 74.1524C19.4362 74.1524 19.4062 74.1373 19.4062 74.1073L17.225 70.6475C17.21 70.6325 17.21 70.6024 17.21 70.5873C17.21 70.5723 17.225 70.5422 17.2551 70.5422L18.1727 70.0458C18.1877 70.0308 18.2178 70.0308 18.2328 70.0308C18.2629 70.0308 18.278 70.0458 18.293 70.0759L19.9477 72.7534L20.9555 72.1217C20.9706 72.1066 21.0007 72.1066 21.0157 72.1066C21.0307 72.1066 21.0458 72.1217 21.0608 72.1517L21.4218 72.7986Z" fill="#202D37"/>
<path d="M146.588 52.8829C146.588 53.7403 146.407 54.4323 146.031 54.9738C145.655 55.5153 145.068 55.8914 144.256 56.1321V58.3734C144.256 58.4336 144.226 58.4937 144.196 58.5388C144.151 58.584 144.091 58.599 144.03 58.599H141.067C141.007 58.599 140.947 58.5689 140.902 58.5388C140.856 58.4937 140.841 58.4336 140.841 58.3734V56.3727C140.285 56.3427 139.788 56.3126 139.337 56.2524C139.277 56.2374 139.232 56.2223 139.187 56.1621C139.142 56.117 139.127 56.0569 139.127 55.9967L139.352 53.6049C139.367 53.5297 139.397 53.4696 139.457 53.4395C139.518 53.3943 139.578 53.3793 139.653 53.4094C139.834 53.4545 140.014 53.4846 140.21 53.5147C140.405 53.5448 140.646 53.5748 140.962 53.62C141.263 53.6501 141.548 53.6801 141.819 53.6801C142.105 53.6952 142.346 53.6501 142.541 53.5748C142.737 53.4996 142.887 53.3943 142.962 53.274C143.038 53.1537 143.098 53.0484 143.128 52.9581C143.158 52.8679 143.173 52.7776 143.173 52.7024C143.173 52.6272 143.158 52.5369 143.128 52.4316C143.098 52.3263 143.038 52.206 142.932 52.0706C142.842 51.9202 142.677 51.7848 142.436 51.6344C142.21 51.499 141.924 51.3787 141.578 51.3034C141.187 51.2132 140.826 51.0628 140.48 50.8522C140.134 50.6416 139.803 50.3708 139.503 50.0549C139.202 49.739 138.961 49.3329 138.781 48.8666C138.6 48.3852 138.51 47.8738 138.51 47.3172C138.51 46.535 138.705 45.8731 139.111 45.3316C139.518 44.7901 140.089 44.399 140.841 44.1432V41.8417C140.841 41.7816 140.856 41.7214 140.902 41.6763C140.947 41.6312 141.007 41.6011 141.067 41.6011H144.03C144.091 41.6011 144.151 41.6312 144.196 41.6763C144.241 41.7214 144.271 41.7816 144.271 41.8417V43.8274C144.797 43.8574 145.324 43.8875 145.835 43.9477C145.896 43.9627 145.941 43.9778 145.986 44.0379C146.031 44.0831 146.046 44.1432 146.046 44.2034L145.82 46.5952C145.805 46.6553 145.775 46.7155 145.715 46.7606C145.655 46.8058 145.595 46.8208 145.535 46.8058C144.707 46.6252 143.955 46.535 143.293 46.52C143.022 46.5049 142.782 46.55 142.571 46.6252C142.376 46.7005 142.225 46.8057 142.135 46.9261C142.045 47.0464 141.985 47.1517 141.954 47.242C141.924 47.3322 141.909 47.4225 141.909 47.4977C141.909 47.5729 141.924 47.6632 141.954 47.7534C141.985 47.8587 142.06 47.9791 142.15 48.1144C142.255 48.2649 142.421 48.4003 142.646 48.5507C142.872 48.6861 143.158 48.8064 143.504 48.8816C143.88 48.9869 144.241 49.1373 144.602 49.3479C144.963 49.5585 145.279 49.8293 145.595 50.1452C145.896 50.4611 146.136 50.8672 146.317 51.3335C146.497 51.8149 146.588 52.3263 146.588 52.8829Z" fill="#202D37"/>
<path d="M144.031 58.8396H141.067C140.947 58.8396 140.827 58.7945 140.736 58.7043C140.646 58.614 140.601 58.5087 140.601 58.3733V56.5983C140.12 56.5682 139.684 56.5381 139.292 56.478C139.172 56.4629 139.082 56.4028 139.007 56.3125C138.931 56.2223 138.886 56.117 138.886 55.9966V55.9816L139.112 53.5898C139.127 53.4545 139.187 53.3341 139.307 53.2589C139.413 53.1837 139.548 53.1536 139.684 53.1837C139.864 53.2288 140.045 53.2589 140.225 53.289C140.406 53.3191 140.661 53.3492 140.962 53.3943C141.263 53.4244 141.534 53.4545 141.789 53.4545C142.045 53.4695 142.271 53.4244 142.436 53.3642C142.587 53.304 142.707 53.2288 142.752 53.1536C142.827 53.0483 142.873 52.9581 142.903 52.8828C142.933 52.8076 142.933 52.7475 142.933 52.7023C142.933 52.6422 142.918 52.582 142.903 52.5068C142.888 52.4466 142.842 52.3564 142.737 52.1909C142.662 52.0705 142.527 51.9502 142.316 51.8299C142.105 51.7095 141.835 51.6042 141.534 51.529C141.128 51.4388 140.736 51.2733 140.36 51.0477C139.999 50.822 139.653 50.5513 139.338 50.2203C139.022 49.8744 138.751 49.4532 138.555 48.9568C138.36 48.4604 138.27 47.9038 138.27 47.3322C138.27 46.5049 138.48 45.7979 138.916 45.2112C139.307 44.6847 139.879 44.2635 140.601 43.9928V41.8417C140.601 41.7214 140.646 41.601 140.721 41.5108C140.812 41.4205 140.917 41.3604 141.052 41.3604H144.016C144.136 41.3604 144.256 41.4055 144.347 41.4957C144.437 41.586 144.482 41.7063 144.482 41.8267V43.6167C144.948 43.6468 145.4 43.6769 145.851 43.7371C145.971 43.7521 146.062 43.8123 146.152 43.8875C146.242 43.9928 146.287 44.1131 146.257 44.2335L146.031 46.6102C146.016 46.7455 145.956 46.8508 145.851 46.926C145.746 47.0163 145.61 47.0464 145.475 47.0163C144.678 46.8358 143.941 46.7455 143.279 46.7455C143.023 46.7455 142.812 46.7756 142.647 46.8358C142.496 46.896 142.376 46.9712 142.316 47.0614C142.241 47.1667 142.196 47.257 142.166 47.3322C142.135 47.3924 142.135 47.4525 142.135 47.5127C142.135 47.5428 142.135 47.603 142.166 47.6932C142.181 47.7534 142.226 47.8436 142.331 48.0091C142.406 48.1294 142.557 48.2498 142.752 48.3701C142.963 48.4905 143.234 48.5958 143.534 48.671C143.925 48.7763 144.317 48.9417 144.693 49.1523C145.069 49.378 145.415 49.6487 145.731 49.9947C146.046 50.3407 146.317 50.7619 146.498 51.2583C146.693 51.7547 146.784 52.2962 146.784 52.8828C146.784 53.7854 146.588 54.5225 146.182 55.0941C145.806 55.6356 145.219 56.0417 144.452 56.2824V58.3583C144.452 58.4786 144.407 58.599 144.317 58.6892C144.271 58.7945 144.151 58.8396 144.031 58.8396ZM139.338 56.0117C139.338 56.0267 139.338 56.0267 139.353 56.0267C139.804 56.0869 140.3 56.132 140.842 56.147C140.962 56.147 141.052 56.2523 141.052 56.3727V58.3733H144.031V56.117C144.031 56.0117 144.091 55.9214 144.196 55.9064C144.948 55.6807 145.505 55.3197 145.851 54.8384C146.197 54.342 146.362 53.6801 146.362 52.8828C146.362 52.3564 146.272 51.86 146.107 51.4237C145.941 50.9875 145.716 50.5964 145.43 50.3106C145.144 50.0097 144.828 49.754 144.497 49.5585C144.166 49.3629 143.805 49.2125 143.459 49.1222C143.113 49.032 142.797 48.9116 142.542 48.7612C142.271 48.6108 142.09 48.4453 141.97 48.2648C141.865 48.0994 141.789 47.964 141.744 47.8436C141.699 47.7233 141.684 47.618 141.684 47.5127C141.684 47.4074 141.699 47.2871 141.744 47.1818C141.789 47.0765 141.85 46.9561 141.955 46.8057C142.06 46.6402 142.241 46.5199 142.481 46.4296C142.707 46.3394 142.978 46.2943 143.294 46.3093C143.971 46.3244 144.738 46.4146 145.58 46.5951C145.595 46.5801 145.595 46.5801 145.595 46.5801L145.821 44.2034L145.806 44.1883C145.309 44.1282 144.783 44.0981 144.256 44.068C144.136 44.068 144.046 43.9627 144.046 43.8423V41.8417L144.031 41.8267H141.067C141.067 41.8417 141.067 41.8417 141.067 41.8417V44.1432C141.067 44.2335 141.007 44.3237 140.917 44.3538C140.21 44.5945 139.668 44.9705 139.292 45.4669C138.916 45.9633 138.736 46.5801 138.736 47.3172C138.736 47.8436 138.826 48.34 138.992 48.7913C139.157 49.2426 139.398 49.6186 139.668 49.9044C139.954 50.2053 140.27 50.461 140.601 50.6566C140.932 50.8521 141.278 51.0025 141.639 51.0778C142 51.168 142.301 51.2883 142.557 51.4388C142.827 51.6042 143.008 51.7547 143.128 51.9352C143.234 52.1006 143.309 52.236 143.339 52.3564C143.384 52.4767 143.399 52.597 143.399 52.7023C143.399 52.8076 143.384 52.9129 143.339 53.0333C143.294 53.1536 143.234 53.2739 143.143 53.4093C143.038 53.5598 142.857 53.6951 142.617 53.7854C142.391 53.8756 142.12 53.9208 141.805 53.9057C141.549 53.9057 141.248 53.8907 140.932 53.8456C140.616 53.8004 140.375 53.7703 140.18 53.7403C139.984 53.7102 139.789 53.6651 139.608 53.635H139.593L139.338 56.0117Z" fill="#202D37"/>
<path d="M217.617 67.0224C217.452 67.4888 217.211 67.8498 216.91 68.0604C216.61 68.286 216.203 68.3763 215.707 68.3612L215.271 69.5947C215.256 69.6248 215.241 69.6549 215.196 69.6699C215.166 69.6849 215.12 69.6849 215.09 69.6699L213.451 69.0983C213.421 69.0833 213.391 69.0682 213.375 69.0231C213.36 68.993 213.36 68.9479 213.375 68.9178L213.767 67.8197C213.466 67.6994 213.195 67.579 212.954 67.4587C212.924 67.4436 212.909 67.4135 212.894 67.3835C212.879 67.3534 212.879 67.3083 212.894 67.2782L213.481 65.9996C213.496 65.9544 213.526 65.9394 213.571 65.9243C213.616 65.9093 213.646 65.9243 213.691 65.9394C213.782 65.9996 213.872 66.0597 213.977 66.1048C214.082 66.165 214.203 66.2252 214.368 66.3004C214.534 66.3756 214.684 66.4508 214.82 66.496C214.97 66.5561 215.12 66.5862 215.241 66.5862C215.361 66.5862 215.466 66.5561 215.527 66.511C215.602 66.4659 215.647 66.4207 215.677 66.3756C215.707 66.3305 215.737 66.2854 215.752 66.2402C215.767 66.1951 215.782 66.15 215.782 66.0748C215.782 66.0146 215.767 65.9394 215.752 65.8341C215.722 65.7288 215.662 65.6235 215.572 65.5032C215.466 65.3828 215.331 65.2625 215.166 65.1572C214.97 65.0368 214.804 64.8864 214.639 64.6909C214.489 64.5104 214.353 64.2998 214.248 64.0591C214.143 63.8184 214.082 63.5627 214.082 63.2618C214.067 62.961 214.128 62.6601 214.233 62.3593C214.383 61.9231 214.624 61.6072 214.94 61.3815C215.271 61.1709 215.662 61.0506 216.128 61.0506L216.579 59.787C216.595 59.7569 216.61 59.7269 216.655 59.7118C216.685 59.6968 216.73 59.6968 216.76 59.6968L218.4 60.2684C218.43 60.2834 218.46 60.2985 218.475 60.3436C218.49 60.3737 218.49 60.4188 218.475 60.4489L218.084 61.547C218.37 61.6673 218.655 61.7877 218.926 61.9231C218.956 61.9381 218.971 61.9682 219.001 61.9983C219.016 62.0284 219.016 62.0735 219.001 62.1036L218.415 63.3822C218.4 63.4123 218.37 63.4423 218.324 63.4574C218.279 63.4724 218.249 63.4724 218.219 63.4423C217.798 63.1866 217.407 62.9911 217.031 62.8557C216.88 62.7955 216.745 62.7654 216.61 62.7805C216.489 62.7805 216.384 62.8106 216.309 62.8707C216.234 62.9159 216.188 62.976 216.143 63.0061C216.113 63.0512 216.083 63.0964 216.068 63.1415C216.053 63.1866 216.053 63.2318 216.038 63.2919C216.038 63.3521 216.053 63.4273 216.068 63.5326C216.098 63.6379 216.158 63.7432 216.264 63.8635C216.369 63.9839 216.504 64.1042 216.67 64.2095C216.865 64.3298 217.031 64.4953 217.181 64.6758C217.332 64.8563 217.467 65.0669 217.572 65.3076C217.678 65.5483 217.738 65.804 217.738 66.1048C217.768 66.4057 217.723 66.7066 217.617 67.0224Z" fill="#202D37"/>
<path d="M215.151 69.9105C215.106 69.9105 215.075 69.9105 215.03 69.8954L213.391 69.3238C213.3 69.2937 213.225 69.2335 213.18 69.1433C213.135 69.053 213.135 68.9628 213.165 68.8725L213.481 67.97C213.255 67.8797 213.045 67.7744 212.864 67.6842C212.774 67.639 212.729 67.5789 212.684 67.4886C212.654 67.3984 212.654 67.3081 212.684 67.2329C212.684 67.2329 212.684 67.2179 212.699 67.2179L213.285 65.9393C213.331 65.834 213.406 65.7738 213.511 65.7437C213.616 65.7136 213.722 65.7287 213.812 65.7888C213.902 65.849 213.992 65.8941 214.083 65.9543C214.173 65.9994 214.308 66.0746 214.459 66.1499C214.609 66.2251 214.76 66.2852 214.895 66.3304C215.03 66.3755 215.136 66.4056 215.241 66.4056C215.346 66.4056 215.391 66.3755 215.406 66.3755C215.467 66.3304 215.497 66.3003 215.512 66.2702C215.542 66.2401 215.542 66.21 215.557 66.21C215.557 66.195 215.572 66.1649 215.572 66.1198C215.572 66.0897 215.572 66.0446 215.542 65.9393C215.527 65.8941 215.497 65.8189 215.406 65.6986C215.316 65.5933 215.196 65.488 215.045 65.3977C214.835 65.2624 214.639 65.0969 214.474 64.8863C214.308 64.6907 214.173 64.4651 214.053 64.2094C213.932 63.9537 213.872 63.6528 213.857 63.3219C213.842 62.9909 213.902 62.66 214.022 62.3291C214.188 61.8477 214.459 61.4867 214.82 61.246C215.136 61.0354 215.527 60.9151 215.963 60.885L216.354 59.7568C216.384 59.6666 216.444 59.5914 216.535 59.5462C216.625 59.5011 216.73 59.4861 216.82 59.5161L218.46 60.0877C218.55 60.1178 218.625 60.178 218.671 60.2833C218.716 60.3736 218.716 60.4789 218.686 60.5691L218.37 61.4717C218.595 61.5619 218.806 61.6672 219.032 61.7725C219.107 61.8176 219.167 61.8778 219.212 61.9681C219.257 62.0583 219.257 62.1636 219.212 62.2689L218.625 63.5325C218.58 63.6227 218.505 63.6829 218.415 63.728C218.31 63.7581 218.204 63.7581 218.114 63.6979C217.708 63.4573 217.332 63.2617 216.986 63.1414C216.866 63.0962 216.745 63.0662 216.655 63.0812C216.58 63.0812 216.52 63.0962 216.489 63.1263C216.414 63.1714 216.384 63.2166 216.369 63.2316C216.354 63.2617 216.339 63.2768 216.324 63.2918C216.324 63.3068 216.309 63.3219 216.309 63.367C216.309 63.382 216.309 63.4422 216.339 63.5475C216.354 63.5926 216.384 63.6679 216.489 63.7882C216.58 63.8935 216.7 63.9988 216.85 64.089C217.061 64.2244 217.242 64.4049 217.422 64.6005C217.588 64.796 217.738 65.0217 217.843 65.2774C217.964 65.5331 218.024 65.834 218.024 66.1649C218.039 66.4808 217.979 66.8117 217.858 67.1427C217.678 67.6541 217.407 68.0452 217.061 68.3009C216.745 68.5266 216.354 68.6469 215.888 68.6469L215.512 69.7299C215.482 69.8202 215.421 69.8954 215.331 69.9405C215.256 69.8954 215.196 69.9105 215.151 69.9105ZM213.631 68.9177L215.09 69.4291L215.497 68.2708C215.527 68.1806 215.617 68.1204 215.722 68.1204C216.159 68.1505 216.52 68.0602 216.775 67.8647C217.046 67.6691 217.257 67.3532 217.407 66.9321C217.497 66.6462 217.557 66.3755 217.542 66.1047C217.542 65.834 217.482 65.5933 217.392 65.3977C217.302 65.1871 217.181 64.9916 217.031 64.8261C216.896 64.6606 216.73 64.5102 216.565 64.4049C216.384 64.2846 216.234 64.1492 216.113 64.0138C215.993 63.8634 215.918 63.728 215.873 63.5926C215.843 63.4723 215.828 63.367 215.828 63.2918C215.828 63.2015 215.843 63.1414 215.858 63.0662C215.888 62.9909 215.918 62.9308 215.978 62.8706C216.023 62.8104 216.098 62.7503 216.174 62.6901C216.279 62.6149 216.414 62.5697 216.595 62.5697C216.745 62.5697 216.926 62.5998 217.091 62.66C217.437 62.7803 217.828 62.9759 218.219 63.2166L218.731 62.1185C218.49 61.9981 218.234 61.8928 217.979 61.7876C217.873 61.7424 217.813 61.6221 217.843 61.5017L218.204 60.4789L216.73 59.9674L216.309 61.1558C216.279 61.246 216.189 61.3062 216.098 61.3062C215.677 61.3062 215.331 61.3964 215.045 61.592C214.76 61.7875 214.549 62.0583 214.414 62.4494C214.323 62.7352 214.278 63.006 214.278 63.2767C214.293 63.5475 214.338 63.7882 214.429 63.9837C214.519 64.1943 214.639 64.3899 214.79 64.5554C214.925 64.7208 215.09 64.8562 215.256 64.9765C215.452 65.0969 215.602 65.2323 215.707 65.3676C215.828 65.5181 215.903 65.6535 215.948 65.7888C215.978 65.9092 215.993 65.9994 215.993 66.0897C215.993 66.1799 215.978 66.2551 215.963 66.3153C215.948 66.3755 215.903 66.4507 215.858 66.5109C215.813 66.571 215.737 66.6312 215.662 66.6914C215.557 66.7666 215.421 66.8117 215.241 66.8117C215.09 66.8117 214.91 66.7816 214.729 66.7064C214.579 66.6613 214.414 66.5861 214.248 66.5109C214.083 66.4206 213.947 66.3604 213.842 66.3003C213.767 66.2552 213.692 66.2251 213.631 66.1799L213.12 67.2931C213.331 67.3984 213.571 67.5037 213.842 67.609C213.947 67.6541 214.007 67.7744 213.977 67.8948L213.631 68.9177Z" fill="#202D37"/>
<path d="M53.2662 114.886C53.191 114.886 53.1008 114.871 53.0256 114.826C52.7699 114.691 52.6646 114.375 52.7999 114.119C56.0791 107.741 58.4408 104.492 60.0052 102.326C61.389 100.416 62.1562 99.3628 62.427 97.7081C62.6977 96.1287 62.9986 79.3717 63.1339 70.3013C62.2464 70.196 60.2308 69.9553 58.2302 69.6544C56.6658 69.4288 55.4022 69.2032 54.4847 69.0227C52.9052 68.6917 52.4088 68.4661 52.3186 67.9998C52.2584 67.699 52.3336 67.3379 53.7927 65.7886C54.7253 64.8108 56.034 63.5473 57.5081 62.2236C61.1333 58.9745 65.1947 55.7855 68.6695 53.469C68.9102 53.3036 69.2411 53.3788 69.4065 53.6194C69.572 53.8601 69.4968 54.191 69.2561 54.3565C62.0359 59.17 54.7554 66.0142 53.522 67.699C54.8156 68.1352 59.4787 68.8271 63.7206 69.3085C63.9913 69.3386 64.1869 69.5642 64.1869 69.8349C64.1718 70.8879 63.8108 95.7827 63.4649 97.8736C63.149 99.7689 62.2916 100.957 60.8626 102.943C59.3132 105.079 56.9967 108.298 53.7476 114.601C53.6273 114.781 53.4467 114.886 53.2662 114.886Z" fill="#202D37"/>
<path d="M101.07 127.732C100.86 127.732 100.664 127.597 100.574 127.386C94.9331 112.615 86.1334 104.432 82.8241 101.348C81.726 100.326 81.4853 100.115 81.4853 99.769C81.2597 86.1558 82.8091 71.0233 82.8241 70.8729C82.8542 70.6473 83.0046 70.4668 83.2302 70.4216C85.5919 69.8651 91.8344 67.8193 92.3609 65.1117C92.5113 64.3446 92.3157 63.7429 91.7441 63.3067C90.2399 62.1033 86.5696 62.2086 83.5612 63.5473C83.2904 63.6677 82.9896 63.5473 82.8692 63.2766C82.7489 63.0058 82.8692 62.705 83.14 62.5846C86.5245 61.0955 90.6009 61.0503 92.406 62.4944C93.2784 63.1863 93.6244 64.1641 93.3988 65.3223C93.0678 67.0071 91.2778 68.5564 88.0588 69.9252C86.2838 70.6773 84.569 71.1737 83.8319 71.3542C83.6063 73.7309 82.3427 87.2839 82.5383 99.6185C82.6887 99.7991 83.1099 100.175 83.5461 100.581C86.9156 103.71 95.8356 112.028 101.567 127.025C101.672 127.296 101.537 127.597 101.266 127.702C101.191 127.732 101.13 127.732 101.07 127.732Z" fill="#202D37"/>
<path d="M84.0717 67.3378C83.9063 67.3378 83.7258 67.2476 83.6355 67.0972C83.4701 66.8565 83.5453 66.5255 83.7859 66.3751C85.1247 65.5027 87.366 64.8408 88.1783 64.9461C88.4641 64.9762 88.6747 65.2469 88.6446 65.5327C88.6146 65.8185 88.3438 66.0291 88.058 65.9991C87.6368 65.9539 85.6211 66.4503 84.3726 67.2626C84.2673 67.3077 84.177 67.3378 84.0717 67.3378Z" fill="#202D37"/>
<path d="M63.4631 45.9627C60.4246 49.2569 60.59 58.4628 78.6256 56.7329C78.6256 56.7329 76.7002 63.9381 84.477 63.9381C85.6654 63.9381 90.0878 54.2961 88.1173 53.1077C86.1467 51.9194 84.0709 54.7323 84.0709 54.7323C84.0709 54.7323 70.8789 37.9001 63.4631 45.9627Z" fill="#202D37"/>
<path d="M84.4627 64.465C81.9506 64.465 80.1004 63.7429 79.0024 62.2989C77.7087 60.6141 77.799 58.433 77.9645 57.3199C66.6979 58.2525 63.178 54.7477 62.0799 52.5365C60.7863 49.9191 61.6738 47.1062 63.0727 45.602C64.5919 43.9624 66.4421 43.1652 68.5781 43.2554C75.0613 43.5111 82.2966 51.7543 84.0866 53.9053C84.8688 53.0629 86.6137 51.5738 88.3887 52.6568C89.2762 53.1833 89.3815 54.5822 88.7196 56.9438C88.2985 58.4631 87.5614 60.2682 86.7642 61.8025C85.3652 64.4649 84.7335 64.465 84.4627 64.465ZM78.6263 56.2068C78.7767 56.2068 78.9272 56.2669 79.0325 56.3873C79.1378 56.5227 79.1829 56.7032 79.1378 56.8686C79.1378 56.8987 78.4007 59.7718 79.8598 61.6671C80.7473 62.8103 82.2816 63.397 84.4176 63.412C85.2449 62.9306 87.9374 57.5455 88.0879 54.6574C88.1179 54.0708 88.0277 53.6646 87.8472 53.5593C86.3129 52.6267 84.5229 55.0184 84.5078 55.0485C84.4176 55.1839 84.2521 55.2591 84.0866 55.2591C83.9212 55.2591 83.7707 55.1839 83.6655 55.0636C83.5752 54.9583 75.3622 44.5791 68.533 44.3084C66.6828 44.2332 65.1635 44.895 63.8398 46.324C62.6966 47.5725 61.9445 49.9041 63.0276 52.0702C63.885 53.8 66.5023 56.4324 74.3844 56.4324C75.648 56.4324 77.0318 56.3722 78.5662 56.2218C78.5812 56.2218 78.6113 56.2068 78.6263 56.2068Z" fill="#202D37"/>
<path d="M70.0979 71.6703C69.8422 71.6703 69.6015 71.4747 69.5714 71.204C69.5413 70.9182 69.7369 70.6474 70.0377 70.6173C73.2718 70.2262 73.5276 67.7743 73.5276 67.0372C73.5276 66.7514 73.7682 66.5107 74.0541 66.5107C74.3399 66.5107 74.5805 66.7514 74.5805 67.0372C74.5805 68.9326 73.4223 71.2792 70.1581 71.6703C70.143 71.6703 70.1129 71.6703 70.0979 71.6703Z" fill="#202D37"/>
<path d="M68.7445 93.4817C66.5031 93.4817 64.8033 92.865 62.9531 91.797C62.6974 91.6465 62.6071 91.3306 62.7576 91.0749C62.908 90.8192 63.2239 90.7289 63.4796 90.8794C67.4809 93.1658 70.7 93.1959 81.9667 88.8336C82.2375 88.7283 82.5384 88.8637 82.6437 89.1344C82.749 89.4052 82.6136 89.7061 82.3428 89.8114C75.6941 92.3987 71.7229 93.4817 68.7445 93.4817Z" fill="#202D37"/>
<path d="M68.0672 101.65C66.0967 101.65 64.442 101.364 63.3289 100.777C63.0732 100.642 62.9679 100.326 63.1032 100.07C63.2386 99.8145 63.5545 99.7092 63.8102 99.8446C65.3897 100.657 68.3982 100.822 71.8579 100.281C75.5132 99.7092 79.1084 98.4306 81.7258 96.791C81.9664 96.6406 82.2974 96.7158 82.4478 96.9565C82.5982 97.1971 82.523 97.5281 82.2823 97.6785C79.5446 99.3933 75.8141 100.717 72.0234 101.319C70.6094 101.544 69.2706 101.65 68.0672 101.65Z" fill="#202D37"/>
<path d="M68.9548 101.62C68.669 101.62 68.4433 101.394 68.4283 101.108C68.3681 99.2579 68.2779 97.1971 68.1726 95.1212C68.1575 94.8354 68.3832 94.5797 68.669 94.5647C68.9548 94.5496 69.2105 94.7753 69.2256 95.0611C69.3308 97.1369 69.4211 99.2128 69.4813 101.063C69.4963 101.349 69.2707 101.605 68.9698 101.605C68.9548 101.62 68.9548 101.62 68.9548 101.62Z" fill="#202D37"/>
<path d="M72.43 99.6937C72.1593 99.6937 71.9186 99.4831 71.9036 99.1973C71.9036 99.1672 71.7381 96.7905 71.5877 94.7447C71.5726 94.4589 71.7832 94.2032 72.069 94.1731C72.3548 94.143 72.6105 94.3687 72.6406 94.6545C72.7911 96.7002 72.9565 99.092 72.9565 99.107C72.9716 99.3928 72.761 99.6486 72.4601 99.6636C72.4601 99.6937 72.4451 99.6937 72.43 99.6937Z" fill="#202D37"/>
<path d="M76.8078 97.7685C76.5822 97.7685 76.3866 97.6331 76.3114 97.4075C76.2813 97.3323 76.2813 97.2721 76.2813 97.1969C76.2663 96.866 76.1309 94.399 75.9353 91.4206C75.9203 91.1348 76.1309 90.8791 76.4317 90.864C76.7175 90.849 76.9733 91.0596 76.9883 91.3604C77.0786 92.8196 77.1688 94.3088 77.244 95.4369C77.2741 95.9785 77.3042 96.4297 77.3192 96.7306C77.3493 97.3323 77.3644 97.6783 76.9131 97.7685C76.868 97.7535 76.8379 97.7685 76.8078 97.7685Z" fill="#202D37"/>
<path d="M79.7101 97.1819C79.4092 97.1819 79.1836 96.9413 79.1836 96.6555C79.1836 96.6404 79.1986 94.4893 79.1836 92.4586C79.1836 92.1728 79.4092 91.9321 79.7101 91.9321C79.9959 91.9321 80.2366 92.1578 80.2366 92.4586C80.2516 94.4893 80.2366 96.6554 80.2366 96.6705C80.2366 96.9413 79.9959 97.1819 79.7101 97.1819Z" fill="#202D37"/>
<path d="M43.4894 101.258C43.4743 101.258 43.4443 101.258 43.4292 101.258C43.1434 101.228 42.9328 100.958 42.9779 100.672C43.7752 94.3991 40.4959 87.0584 37.7733 84.5614C37.0061 83.8544 36.2841 83.5235 35.7425 83.6438C33.426 84.1402 29.2593 86.6974 28.4319 88.4273C28.2965 88.7131 28.2665 88.9237 28.3567 89.0892C28.8982 90.1421 32.5535 90.097 34.9904 89.7209C35.186 89.6909 35.3815 89.7811 35.5019 89.9466C35.6072 90.112 35.6222 90.3226 35.5319 90.4881C35.2762 91.1048 34.6444 97.1218 36.2991 98.8066C36.5097 99.0172 36.4947 99.3481 36.2841 99.5436C36.0735 99.7542 35.7425 99.7392 35.547 99.5286C33.8472 97.7837 34.0277 92.925 34.3737 90.8491C32.4783 91.0748 28.3417 91.3305 27.4241 89.5555C27.2586 89.2396 27.1383 88.6981 27.4842 87.961C28.5372 85.7497 33.1703 83.0872 35.5169 82.5908C36.4194 82.3953 37.4423 82.8014 38.4803 83.7641C41.7445 86.7726 44.8131 94.5044 44.0159 100.777C43.9858 101.063 43.7602 101.258 43.4894 101.258Z" fill="#202D37"/>
<path d="M59.1631 141.707C59.0428 141.707 58.9375 141.661 58.8322 141.586C57.9898 140.909 56.982 138.578 57.2979 136.427C57.4483 135.419 57.0572 135.148 56.5157 134.772C55.6733 134.185 54.9964 133.509 55.8688 131.688C56.9368 129.432 55.3875 128.274 53.5674 127.371C52.6649 126.92 52.1233 125.07 51.0704 121.264C50.4236 118.933 49.7015 116.3 48.7238 113.653C46.9037 108.749 44.4217 103.71 43.459 101.785C41.8044 104.161 39.4578 106.011 36.7953 107.019C34.1329 108.027 31.335 108.117 29.3194 107.26C29.0486 107.14 28.9283 106.839 29.0486 106.568C29.1689 106.297 29.4698 106.177 29.7405 106.297C33.4259 107.862 39.8188 105.861 43.083 100.476C43.1883 100.31 43.3688 100.22 43.5493 100.22C43.7448 100.22 43.9103 100.341 44.0006 100.506C44.0306 100.566 47.4151 107.049 49.7316 113.292C50.7244 115.984 51.4916 118.752 52.1083 120.993C52.7852 123.43 53.5373 126.183 54.0638 126.439C55.1619 126.995 58.5163 128.665 56.8466 132.155C56.29 133.328 56.5457 133.494 57.1474 133.915C57.7341 134.321 58.6216 134.938 58.3809 136.592C58.1101 138.367 58.9826 140.338 59.5391 140.774C59.7648 140.954 59.8099 141.285 59.6144 141.511C59.479 141.631 59.3286 141.707 59.1631 141.707Z" fill="#202D37"/>
<path d="M32.7189 129.448C32.4481 129.448 32.2074 129.237 32.1924 128.951C32.1924 128.906 31.9216 124.393 31.35 121.009C30.974 118.798 31.5757 116.872 33.11 115.308C33.1702 114.676 33.11 111.683 32.1773 107.426C32.1172 107.14 32.2977 106.854 32.5835 106.794C32.8693 106.734 33.1551 106.914 33.2153 107.2C33.7718 109.772 34.0125 111.818 34.1028 113.097C34.2833 115.473 34.0877 115.759 34.0276 115.849C33.9824 115.91 33.9373 115.955 33.8621 116.045C32.5685 117.354 32.0721 118.963 32.3879 120.828C32.9596 124.273 33.2303 128.831 33.2454 128.876C33.2604 129.162 33.0348 129.418 32.749 129.433C32.749 129.448 32.7339 129.448 32.7189 129.448Z" fill="#202D37"/>
<path d="M34.9445 116.496C34.2376 116.496 33.7111 116.27 33.3049 115.984C33.0642 115.819 33.0041 115.488 33.1695 115.247C33.335 115.007 33.6659 114.947 33.9066 115.112C35.7568 116.376 40.0439 113.563 46.2865 106.944C46.4821 106.733 46.813 106.718 47.0236 106.929C47.2342 107.124 47.2492 107.455 47.0386 107.666C40.3448 114.766 36.9001 116.496 34.9445 116.496Z" fill="#202D37"/>
<path d="M42.977 111.517C42.7514 111.517 42.5408 111.367 42.4806 111.156C42.4806 111.126 41.7285 108.78 41.202 107.17C41.1118 106.899 41.2622 106.598 41.533 106.508C41.8037 106.418 42.1046 106.568 42.1948 106.839C42.7213 108.434 43.4584 110.81 43.4734 110.825C43.5637 111.096 43.4132 111.397 43.1274 111.487C43.0823 111.517 43.0372 111.517 42.977 111.517Z" fill="#202D37"/>
<path d="M40.6002 113.593C40.3745 113.593 40.1489 113.442 40.0887 113.202C40.0737 113.172 39.126 109.607 38.3137 107.711C38.1934 107.44 38.3288 107.14 38.5995 107.019C38.8703 106.899 39.1711 107.034 39.2915 107.305C40.1188 109.276 41.0665 112.796 41.1116 112.931C41.1868 113.217 41.0214 113.503 40.7356 113.578C40.6904 113.593 40.6453 113.593 40.6002 113.593Z" fill="#202D37"/>
<path d="M36.8545 113.593C36.6289 113.593 36.4183 113.443 36.343 113.202C36.313 113.097 35.5759 110.479 35.275 108.599C35.2299 108.313 35.4255 108.042 35.7113 107.997C35.9971 107.952 36.2678 108.148 36.313 108.433C36.5988 110.269 37.3509 112.901 37.3509 112.916C37.4261 113.202 37.2606 113.488 36.9899 113.563C36.9447 113.593 36.8996 113.593 36.8545 113.593Z" fill="#202D37"/>
<path d="M108.666 151.304C106.274 151.304 104.695 150.777 103.537 149.604C100.122 146.144 100.333 136.923 100.919 112.269C101.07 105.651 101.25 98.1294 101.401 89.2997C101.521 81.6733 101.311 70.3314 101.1 58.3127C100.649 33.448 100.167 7.7258 102.303 4.08559C104.665 0.0392363 110.847 0.174619 124.43 0.445378C129.59 0.550674 135.998 0.686054 143.609 0.595801C149.085 0.535632 153.793 0.370168 157.944 0.234789C173.964 -0.321773 180.598 -0.547406 181.335 7.51521C182.207 16.9617 180.809 85.3436 180.748 88.2467C180.748 88.5325 180.508 88.7581 180.222 88.7581C180.222 88.7581 180.222 88.7581 180.207 88.7581C179.921 88.7581 179.68 88.5175 179.695 88.2166C179.71 87.5096 181.139 16.9768 180.282 7.60547C179.635 0.535633 173.739 0.73118 157.974 1.2727C153.823 1.42312 149.1 1.57354 143.624 1.63371C135.998 1.72396 129.575 1.58858 124.415 1.48329C111.675 1.22757 105.267 1.09219 103.221 4.59703C102.363 6.07116 101.882 12.4641 101.792 23.6254C101.717 33.6736 101.942 46.1737 102.168 58.2826C102.394 70.3014 102.589 81.6582 102.469 89.2997C102.333 98.1445 102.153 105.651 101.987 112.284C101.431 135.915 101.205 145.693 104.304 148.852C105.282 149.845 106.635 150.251 108.847 150.236C120.369 150.115 169.948 149.228 170.444 149.228C170.444 149.228 170.444 149.228 170.46 149.228C170.745 149.228 170.986 149.453 170.986 149.739C170.986 150.025 170.76 150.266 170.475 150.281C169.978 150.296 120.384 151.168 108.862 151.289C108.786 151.304 108.726 151.304 108.666 151.304Z" fill="#202D37"/>
<path d="M124.49 136.923C117.571 136.923 111.644 136.803 109.433 136.427C104.499 135.584 105.04 125.566 105.807 111.697C106.138 105.801 106.499 99.1071 106.454 92.4584C106.424 87.9909 106.319 82.0492 106.214 75.7465C105.687 44.1278 105.431 17.6686 107.477 14.2991C109.794 10.4784 117.315 10.7191 128.687 11.0951C132.402 11.2155 136.599 11.3508 141.081 11.3508C145.369 11.3508 149.595 11.1553 153.687 10.9597C160.05 10.6589 165.54 10.4032 169.677 10.9597C172.7 11.3659 176.732 12.3587 176.972 16.2847C177.438 23.9863 176.987 89.3748 176.972 90.0366C176.972 90.3224 176.732 90.5631 176.446 90.5631C176.16 90.5631 175.919 90.3224 175.919 90.0366C175.919 89.3748 176.386 24.0164 175.919 16.3599C175.588 11.0049 165.946 11.4561 153.732 12.0277C149.64 12.2233 145.399 12.4188 141.081 12.4188C136.584 12.4188 132.372 12.2834 128.657 12.1631C118.037 11.8171 110.38 11.5765 108.38 14.8557C106.319 18.2402 106.891 52.8372 107.267 75.7315C107.372 82.3049 107.462 87.9758 107.507 92.4434C107.552 99.1221 107.191 105.831 106.86 111.743C106.184 124.062 105.597 134.682 109.613 135.374C115.991 136.457 155.417 135.374 155.823 135.374C156.109 135.374 156.349 135.599 156.364 135.885C156.379 136.171 156.139 136.412 155.853 136.427C154.77 136.457 137.802 136.923 124.49 136.923Z" fill="#202D37"/>
<path d="M132.178 43.511C132.103 43.511 132.027 43.4959 131.952 43.4508C131.696 43.3154 131.576 43.0146 131.711 42.7438C132.945 40.2167 134.449 38.4718 138.074 37.5693C141.459 36.742 146.739 36.5916 156.306 37.0729C156.591 37.0879 156.817 37.3286 156.802 37.6295C156.787 37.9153 156.531 38.1409 156.245 38.1259C146.784 37.6445 141.594 37.7799 138.315 38.5922C135.066 39.3894 133.772 40.8936 132.644 43.1951C132.554 43.3906 132.373 43.511 132.178 43.511Z" fill="#202D37"/>
<path d="M155.027 34.7114C155.027 37.8552 154.951 41.4353 155.959 41.1947C156.967 40.954 161.781 38.126 161.811 37.3288C161.856 36.5466 155.042 33.0266 155.027 34.7114Z" fill="#202D37"/>
<path d="M155.869 41.7363C155.673 41.7363 155.478 41.6761 155.327 41.5407C154.545 40.924 154.5 38.7729 154.515 35.3132V34.7115C154.515 34.3505 154.68 34.0496 154.981 33.8842C156.2 33.2072 159.689 35.0424 160.803 35.7494C162.111 36.5617 162.367 36.9829 162.337 37.359C162.322 37.6297 162.292 38.1863 159.524 39.9162C158.29 40.6984 156.711 41.5558 156.079 41.7062C156.019 41.7213 155.944 41.7363 155.869 41.7363ZM155.553 34.7867V35.3132C155.553 37.1032 155.538 40.0666 155.929 40.6683C156.997 40.3374 160.592 38.1412 161.224 37.359C160.908 37.0431 159.9 36.3662 158.516 35.7193C156.816 34.907 155.854 34.7416 155.553 34.7867Z" fill="#202D37"/>
<path d="M136.9 63.7582C134.373 63.7582 131.38 63.6679 127.77 63.4874C127.484 63.4724 127.258 63.2317 127.273 62.9309C127.288 62.6451 127.529 62.4194 127.83 62.4345C137.291 62.9158 142.481 62.7804 145.76 61.9682C149.009 61.1709 150.303 59.6667 151.431 57.3653C151.566 57.1095 151.867 56.9892 152.138 57.1246C152.394 57.26 152.514 57.5608 152.379 57.8316C151.145 60.3586 149.641 62.1035 146.016 63.0061C143.895 63.5025 141.052 63.7582 136.9 63.7582Z" fill="#202D37"/>
<path d="M129.033 65.8493C129.033 62.7054 129.109 59.1253 128.101 59.366C127.093 59.6067 122.279 62.4347 122.249 63.2319C122.204 64.0292 129.033 67.5491 129.033 65.8493Z" fill="#202D37"/>
<path d="M128.402 66.8269C126.883 66.8269 124.22 65.4129 123.257 64.8263C121.949 64.014 121.693 63.5928 121.723 63.2168C121.738 62.946 121.768 62.3894 124.536 60.6595C125.769 59.8773 127.349 59.0199 127.981 58.8695C128.251 58.8093 128.522 58.8695 128.748 59.0349C129.53 59.6517 129.575 61.8028 129.56 65.2625V65.8642C129.56 66.2252 129.395 66.5261 129.094 66.6916C128.898 66.7818 128.673 66.8269 128.402 66.8269ZM128.507 65.8492H129.034H128.507ZM122.836 63.2168C123.152 63.5326 124.16 64.2096 125.544 64.8564C127.244 65.6536 128.206 65.8191 128.507 65.774V65.2475C128.507 63.4574 128.522 60.4941 128.131 59.8924C127.078 60.2383 123.483 62.4195 122.836 63.2168Z" fill="#202D37"/>
<path d="M16.367 84.6667C16.1865 84.6667 16.006 84.5765 15.9158 84.411C15.7653 84.1553 15.8556 83.8394 16.1113 83.689C16.1715 83.6589 22.2787 80.0938 24.6404 77.4313C24.8359 77.2057 25.1669 77.1906 25.3775 77.3862C25.6031 77.5817 25.6181 77.9127 25.4226 78.1233C22.9556 80.9212 16.8935 84.4561 16.6378 84.6066C16.5475 84.6517 16.4573 84.6667 16.367 84.6667Z" fill="#202D37"/>
<path d="M19.7059 88.4274C19.5705 88.4274 19.4351 88.3822 19.3298 88.277C19.1192 88.0664 19.1192 87.7354 19.3298 87.5399C21.4959 85.3738 25.2716 82.7714 25.437 82.6661C25.6777 82.5007 26.0087 82.5608 26.1741 82.8015C26.3396 83.0422 26.2794 83.3731 26.0387 83.5386C25.9936 83.5687 22.1879 86.186 20.0819 88.292C19.9766 88.3672 19.8413 88.4274 19.7059 88.4274Z" fill="#202D37"/>
<path d="M22.0224 93.4814C21.8419 93.4814 21.6764 93.3911 21.5711 93.2257C21.4207 92.9699 21.4959 92.6541 21.7516 92.5036C23.7824 91.2852 25.2716 89.0589 25.2866 89.0288C25.4521 88.7881 25.768 88.728 26.0237 88.8784C26.2644 89.0439 26.3245 89.3598 26.1741 89.6004C26.1139 89.7057 24.5345 92.0524 22.2932 93.3911C22.2179 93.4513 22.1277 93.4814 22.0224 93.4814Z" fill="#202D37"/>
<path d="M118.82 109.441C118.685 109.441 118.564 109.441 118.474 109.441C117.301 109.411 116.398 107.786 115.781 104.597C115.089 101.017 114.653 93.6167 116.759 92.6991C118.805 91.8116 129.049 91.7665 138.946 91.7214C142.842 91.7063 146.528 91.6913 149.566 91.6311C151.296 91.586 152.906 91.5409 154.319 91.4957C161.615 91.2701 165.285 91.1498 167.166 93.1654C168.745 94.8652 168.79 97.8887 168.294 102.883C168.264 103.168 168.008 103.379 167.722 103.349C167.436 103.319 167.226 103.063 167.256 102.777C167.707 98.2046 167.707 95.2713 166.413 93.8874C164.864 92.2178 161.134 92.3381 154.365 92.5487C152.951 92.5938 151.326 92.6389 149.596 92.6841C146.558 92.7442 142.857 92.7593 138.961 92.7743C129.635 92.8195 119.046 92.8495 117.195 93.6618C116.925 93.7821 116.398 94.7148 116.293 97.4524C116.203 99.6185 116.398 102.221 116.834 104.402C117.391 107.305 118.158 108.373 118.519 108.388C119.392 108.418 122.987 108.298 127.529 108.162C136.239 107.892 149.416 107.486 154.711 107.696C154.996 107.711 155.222 107.952 155.222 108.238C155.207 108.524 154.966 108.749 154.68 108.749C149.416 108.539 136.269 108.945 127.574 109.215C123.272 109.336 120.068 109.441 118.82 109.441Z" fill="#202D37"/>
<path d="M129.696 109.141C129.41 109.141 129.169 108.915 129.169 108.614C129.169 108.509 129.034 97.3626 128.853 92.3384C128.838 92.0526 129.064 91.7969 129.365 91.7969C129.651 91.7969 129.906 92.0075 129.906 92.3083C130.087 97.3475 130.222 108.509 130.222 108.614C130.222 108.9 129.996 109.141 129.696 109.141Z" fill="#202D37"/>
<path d="M142.677 108.78C142.391 108.78 142.151 108.554 142.151 108.253C142.151 108.148 142.015 97.1819 141.835 92.2329C141.82 91.9471 142.045 91.6914 142.346 91.6914C142.647 91.6914 142.888 91.902 142.888 92.2028C143.068 97.1518 143.204 108.133 143.204 108.238C143.204 108.539 142.978 108.78 142.677 108.78C142.692 108.78 142.677 108.78 142.677 108.78Z" fill="#202D37"/>
<path d="M155.657 104.447C155.372 104.447 155.131 104.222 155.131 103.936L154.905 92.0073C154.905 91.7215 155.131 91.4809 155.417 91.4658C155.417 91.4658 155.417 91.4658 155.432 91.4658C155.718 91.4658 155.958 91.6915 155.958 91.9773L156.184 103.906C156.199 104.207 155.958 104.447 155.657 104.447C155.672 104.447 155.657 104.447 155.657 104.447Z" fill="#202D37"/>
<path d="M162.894 114.03C162.864 114.03 162.819 114.03 162.789 114.015C158.171 113.022 155.764 111.894 154.741 110.209C154.049 109.096 153.974 107.757 154.47 105.862C155.147 103.334 156.471 100.115 158.998 99.0624C160.517 98.4306 162.262 98.6713 164.157 99.7844C166.233 100.988 168.369 102.597 169.467 103.455C169.693 103.635 169.738 103.966 169.558 104.192C169.377 104.417 169.046 104.463 168.821 104.282C167.753 103.44 165.662 101.86 163.631 100.687C162.021 99.7543 160.607 99.5287 159.389 100.025C157.253 100.913 156.08 103.831 155.463 106.117C155.042 107.712 155.087 108.795 155.613 109.637C156.471 111.021 158.742 112.044 162.984 112.962C163.27 113.022 163.45 113.308 163.39 113.593C163.36 113.864 163.135 114.03 162.894 114.03Z" fill="#202D37"/>
<path d="M200.123 154.327C199.16 154.327 198.183 154.312 197.19 154.282C185.246 153.951 175.74 150.988 168.91 145.452C162.367 140.142 160.547 134.186 160.156 132.486C160.096 132.2 160.261 131.914 160.547 131.854C160.833 131.794 161.119 131.959 161.179 132.245C161.555 133.87 163.285 139.541 169.572 144.64C176.206 150.01 185.502 152.898 197.205 153.229C210.171 153.59 221.333 151.439 229.5 147.017C237.247 142.82 242.316 136.607 244.197 129.011C246.077 121.385 243.234 111.186 236.931 103.033C232.509 97.3172 222.536 87.6902 205.328 87.4495C193.76 87.2991 183.531 91.0597 174.942 98.6259C168.61 104.207 164.458 110.9 162.818 114.932C162.713 115.202 162.397 115.338 162.126 115.217C161.856 115.112 161.72 114.796 161.841 114.526C163.525 110.389 167.782 103.53 174.25 97.8287C178.207 94.3389 182.584 91.6012 187.277 89.6908C192.873 87.4044 198.95 86.2913 205.343 86.3815C222.987 86.6222 233.231 96.5049 237.759 102.371C244.242 110.765 247.175 121.325 245.22 129.252C243.279 137.134 238.014 143.587 230.012 147.919C222.205 152.176 212.157 154.327 200.123 154.327Z" fill="#202D37"/>
<path d="M210.246 91.3308C206.05 90.9397 200.89 91.0149 196.543 91.5715C196.212 91.6166 195.896 91.6617 195.58 91.7068C193.218 88.2471 193.655 83.4034 197.114 80.3649C197.581 79.9587 198.077 79.5977 198.604 79.3119C203.462 76.6343 210.292 79.1314 211.57 85.5244C212.006 87.7507 211.42 89.7363 210.246 91.3308Z" fill="#FBD931"/>
<path d="M252.876 123.701C252.169 123.701 251.462 123.521 250.755 123.16C250.184 122.874 249.702 122.513 249.296 122.107C247.792 122.558 246.107 122.347 244.843 121.46C244.603 121.295 244.543 120.964 244.723 120.723C244.889 120.482 245.22 120.422 245.46 120.603C246.348 121.234 247.506 121.43 248.604 121.204C247.972 120.136 247.762 118.828 248.063 117.414C248.454 115.518 249.627 114.044 250.785 113.984C251.236 113.954 252.049 114.119 252.5 115.503C253.282 117.835 252.696 120.001 250.951 121.31C250.77 121.445 250.575 121.565 250.364 121.686C250.605 121.881 250.906 122.077 251.236 122.242C252.56 122.919 253.854 122.784 255.072 121.851C255.855 121.264 256.516 120.392 257.013 119.444C255.569 118.301 255.178 115.894 255.824 114.525C256.2 113.713 256.923 113.367 257.75 113.563C258.397 113.728 258.848 114.255 259.013 115.067C259.224 116.075 258.998 117.519 258.412 118.948C259.344 119.128 260.533 118.587 261.871 117.368C262.082 117.173 262.413 117.188 262.609 117.399C262.804 117.609 262.789 117.94 262.578 118.136C260.488 120.046 258.953 120.196 257.96 119.911C257.389 120.979 256.622 121.971 255.719 122.678C254.802 123.355 253.839 123.701 252.876 123.701ZM250.845 115.022H250.83C250.319 115.052 249.401 116.06 249.07 117.624C248.935 118.301 248.8 119.655 249.612 120.858C249.853 120.738 250.093 120.603 250.304 120.437C251.688 119.399 252.124 117.714 251.492 115.819C251.387 115.518 251.176 115.022 250.845 115.022ZM257.284 114.54C257.103 114.54 256.923 114.631 256.757 114.962C256.336 115.864 256.592 117.564 257.464 118.436C257.93 117.263 258.126 116.09 257.96 115.278C257.87 114.871 257.705 114.631 257.464 114.571C257.419 114.556 257.344 114.54 257.284 114.54Z" fill="#202D37"/>
<path d="M187.999 161.156C186.946 161.156 186.043 161.096 185.442 160.976C182.343 160.344 180.839 157.576 180.101 151.153C180.071 150.867 180.282 150.596 180.568 150.566C180.854 150.536 181.124 150.747 181.154 151.033C181.937 157.817 183.516 159.502 185.652 159.938C186.946 160.209 189.894 160.148 192.511 159.787C195.941 159.321 197.355 158.584 197.475 158.193C197.987 156.493 197.475 153.891 197.46 153.876C197.4 153.59 197.581 153.319 197.867 153.259C198.152 153.199 198.423 153.379 198.483 153.665C198.513 153.785 199.07 156.553 198.468 158.509C198.137 159.577 196.182 160.359 192.632 160.84C191.082 161.051 189.413 161.156 187.999 161.156Z" fill="#202D37"/>
<path d="M229.004 156.087C225.965 156.087 223.679 154.252 222.31 150.672C222.205 150.401 222.34 150.1 222.611 149.995C222.882 149.89 223.183 150.025 223.288 150.296C224.777 154.177 227.349 155.681 230.96 154.763C233.427 154.131 234.856 153.259 235.593 151.905C236.54 150.16 236.39 147.468 235.126 143.692C235.036 143.421 235.186 143.12 235.457 143.03C235.728 142.94 236.029 143.09 236.119 143.361C237.503 147.498 237.623 150.371 236.51 152.417C235.623 154.056 233.983 155.094 231.215 155.801C230.448 155.997 229.696 156.087 229.004 156.087Z" fill="#202D37"/>
<path d="M195.309 112.615C195.084 112.615 194.873 112.465 194.813 112.239C194.723 111.968 194.888 111.667 195.159 111.577C198.273 110.614 200.349 110.675 200.424 110.675C200.71 110.69 200.935 110.93 200.935 111.216C200.92 111.502 200.679 111.728 200.394 111.728C200.379 111.728 198.408 111.682 195.46 112.585C195.415 112.615 195.354 112.615 195.309 112.615Z" fill="#202D37"/>
<path d="M177.468 96.4448C177.438 96.4448 177.408 96.4448 177.378 96.4448C177.092 96.3997 176.897 96.1289 176.942 95.8431C177.408 93.0151 177.348 91.9922 177.348 91.9772C177.333 91.6914 177.559 91.4357 177.845 91.4206C178.13 91.4056 178.386 91.6312 178.401 91.917C178.401 91.9622 178.461 93.0753 177.98 96.0236C177.95 96.2643 177.724 96.4448 177.468 96.4448Z" fill="#202D37"/>
<path d="M172.656 100.596C172.4 100.596 172.174 100.401 172.129 100.145C171.377 94.8953 175.348 88.412 179.696 87.7802C180.643 87.6449 181.395 87.8554 181.952 88.4421C183.246 89.811 182.704 92.6239 182.644 92.9398C182.584 93.2256 182.313 93.4061 182.027 93.3459C181.741 93.2858 181.561 93.015 181.621 92.7292C181.771 92.0222 181.967 89.9764 181.2 89.1641C180.899 88.8482 180.463 88.7429 179.876 88.8332C176.085 89.3898 172.535 95.3466 173.197 100.01C173.242 100.296 173.032 100.566 172.746 100.611C172.701 100.596 172.686 100.596 172.656 100.596Z" fill="#202D37"/>
<path d="M195.309 116.616C195.039 116.616 194.798 116.406 194.783 116.12C194.768 115.834 194.978 115.578 195.264 115.563C197.806 115.383 204.395 114.33 204.455 111.637C204.485 110.314 203.447 108.945 201.763 108.072C199.762 107.034 196.392 106.568 193.474 108.689C193.234 108.854 192.903 108.809 192.737 108.569C192.572 108.328 192.617 107.997 192.857 107.832C196.167 105.425 199.988 105.951 202.244 107.14C204.29 108.208 205.538 109.938 205.493 111.667C205.463 113.488 203.688 114.886 200.228 115.804C197.791 116.451 195.415 116.616 195.324 116.631C195.324 116.616 195.324 116.616 195.309 116.616Z" fill="#202D37"/>
<path d="M217.301 93.5565C217.195 93.5565 217.105 93.5264 217.015 93.4662C216.112 92.8646 214.368 92.3832 211.991 92.0523C211.419 91.9771 210.818 91.9019 210.216 91.8417C208.712 91.7063 207.087 91.616 205.387 91.601C204.726 91.601 204.034 91.601 203.357 91.616C200.995 91.6612 198.663 91.8266 196.618 92.0974C196.287 92.1425 195.971 92.1877 195.655 92.2328C194.512 92.4133 193.474 92.6088 192.586 92.8345C192.301 92.9097 192.015 92.7292 191.955 92.4584C191.879 92.1726 192.06 91.8868 192.331 91.8266C193.263 91.601 194.331 91.3904 195.505 91.2099C195.821 91.1648 196.151 91.1196 196.482 91.0745C198.573 90.8038 200.95 90.6383 203.342 90.5932C204.034 90.5781 204.726 90.5781 205.402 90.5781C207.132 90.5932 208.787 90.6834 210.321 90.8188C210.953 90.879 211.57 90.9542 212.141 91.0294C214.714 91.3904 216.564 91.9169 217.602 92.6088C217.842 92.7743 217.918 93.0902 217.752 93.3309C217.632 93.4813 217.466 93.5565 217.301 93.5565Z" fill="#202D37"/>
<path d="M164.188 133.314C161.856 133.314 159.344 132.667 156.938 131.403C153.718 129.718 151.928 126.394 152.365 122.934C152.891 118.843 156.276 115.669 161.45 114.465C164.474 113.758 167.422 114.586 169.754 116.797C172.401 119.309 173.71 123.16 173.078 126.605C172.612 129.162 171.092 131.193 168.761 132.321C167.422 132.983 165.843 133.314 164.188 133.314ZM161.691 115.488C156.968 116.601 153.869 119.429 153.403 123.07C153.027 126.078 154.591 128.981 157.419 130.471C161.255 132.486 165.331 132.832 168.31 131.373C170.355 130.38 171.634 128.665 172.04 126.424C172.597 123.31 171.423 119.836 169.017 117.564C166.971 115.594 164.369 114.872 161.691 115.488Z" fill="#202D37"/>
<path d="M164.88 129.688C164.609 129.688 164.353 129.643 164.098 129.538C162.954 129.071 162.518 127.778 162.924 126.078C163.451 123.882 165.181 121.625 167.076 121.776C167.768 121.836 168.279 122.242 168.52 122.934C169.077 124.513 168.159 127.447 166.67 128.876C166.113 129.402 165.496 129.688 164.88 129.688ZM166.895 122.814C165.677 122.814 164.353 124.619 163.947 126.319C163.842 126.755 163.571 128.184 164.489 128.56C164.955 128.755 165.436 128.59 165.963 128.109C167.136 126.995 167.963 124.468 167.542 123.28C167.407 122.904 167.196 122.829 167.001 122.814C166.971 122.814 166.925 122.814 166.895 122.814Z" fill="#202D37"/>
<path d="M158.321 126.243C158.11 126.243 157.9 126.198 157.689 126.108C156.771 125.702 156.441 124.574 156.832 123.099C157.268 121.43 158.501 119.715 159.93 119.85C160.487 119.895 160.893 120.241 161.089 120.828C161.525 122.137 160.773 124.649 159.599 125.702C159.193 126.063 158.757 126.243 158.321 126.243ZM159.765 120.888C159.088 120.888 158.17 122.046 157.839 123.355C157.659 124.047 157.629 124.92 158.11 125.145C158.2 125.19 158.456 125.296 158.877 124.92C159.78 124.092 160.352 122.001 160.066 121.159C159.975 120.903 159.87 120.903 159.81 120.888C159.81 120.888 159.795 120.888 159.765 120.888Z" fill="#202D37"/>
<path d="M205.628 88.2919C205.568 87.976 205.448 87.6902 205.297 87.4345C205.132 87.1788 204.951 86.9832 204.741 86.8328C204.53 86.6824 204.305 86.5771 204.079 86.4868C203.853 86.4116 203.628 86.3665 203.402 86.3514C203.206 86.3514 203.026 86.3213 202.876 86.2612C202.725 86.2161 202.62 86.1408 202.545 86.0807C202.469 86.0055 202.424 85.9453 202.394 85.9002C202.364 85.855 202.349 85.7949 202.334 85.7648C202.319 85.7197 202.319 85.6595 202.334 85.6144C202.349 85.5542 202.364 85.494 202.394 85.4188C202.424 85.3436 202.5 85.2684 202.605 85.1932C202.71 85.118 202.845 85.0728 203.011 85.0427C203.387 84.9675 203.838 84.9374 204.32 84.9374C204.365 84.9374 204.395 84.9224 204.425 84.8923C204.455 84.8622 204.47 84.8171 204.455 84.787L204.305 83.3881C204.305 83.343 204.29 83.3129 204.259 83.2978C204.229 83.2828 204.199 83.2677 204.169 83.2677C203.868 83.2978 203.568 83.3279 203.252 83.3881L203.011 82.2449C203.011 82.2148 202.981 82.1847 202.951 82.1546C202.921 82.1245 202.876 82.1245 202.845 82.1245L201.146 82.4705C201.116 82.4855 201.086 82.5006 201.055 82.5307C201.04 82.5607 201.025 82.6059 201.04 82.636L201.311 83.9597C200.905 84.2004 200.634 84.4862 200.469 84.8472C200.303 85.1932 200.273 85.5993 200.363 86.0506C200.424 86.3665 200.544 86.6523 200.709 86.908C200.875 87.1637 201.055 87.3593 201.266 87.5097C201.477 87.6601 201.687 87.7654 201.913 87.8557C202.138 87.9459 202.364 87.976 202.59 87.9911C202.785 88.0061 202.966 88.0211 203.116 88.0813C203.267 88.1264 203.372 88.2017 203.447 88.2618C203.522 88.337 203.568 88.3972 203.598 88.4574C203.628 88.5025 203.643 88.5627 203.658 88.6078C203.673 88.6529 203.673 88.6981 203.658 88.7582C203.643 88.8184 203.628 88.8786 203.598 88.9538C203.568 89.029 203.492 89.1042 203.387 89.1644C203.282 89.2396 203.146 89.2847 202.981 89.3148C202.83 89.3449 202.665 89.375 202.484 89.39C202.304 89.4051 202.154 89.4201 202.048 89.4201C201.928 89.4201 201.823 89.4201 201.717 89.4201C201.672 89.4201 201.642 89.4351 201.612 89.4652C201.582 89.4953 201.567 89.5254 201.582 89.5705L201.732 90.9695C201.747 90.9995 201.762 91.0296 201.793 91.0597C201.823 91.0898 201.853 91.0898 201.883 91.0898C202.154 91.0748 202.439 91.0296 202.755 90.9845L202.785 91.1048C203.462 91.0898 204.154 91.0898 204.831 91.0898L204.696 90.4279C205.132 90.2023 205.418 89.9014 205.568 89.5555C205.704 89.2095 205.734 88.7883 205.628 88.2919Z" fill="#202D37"/>
<path d="M202.77 91.3153C202.695 91.3153 202.62 91.2701 202.59 91.21C202.334 91.2401 202.109 91.2701 201.898 91.2852C201.793 91.2852 201.717 91.2551 201.642 91.1949C201.582 91.1498 201.537 91.0746 201.507 90.9843C201.507 90.9693 201.507 90.9693 201.507 90.9542L201.356 89.5553C201.341 89.435 201.386 89.3447 201.447 89.2695C201.507 89.1943 201.612 89.1492 201.732 89.1492C201.838 89.1492 201.943 89.1492 202.048 89.1492C202.169 89.1492 202.319 89.1341 202.485 89.1191C202.65 89.104 202.816 89.089 202.951 89.0589C203.086 89.0288 203.192 88.9987 203.282 88.9386C203.372 88.8784 203.402 88.8333 203.402 88.8182C203.417 88.758 203.447 88.7129 203.447 88.6678C203.447 88.6227 203.447 88.6076 203.447 88.5926C203.447 88.5775 203.432 88.5625 203.417 88.5174C203.402 88.4873 203.357 88.4271 203.297 88.3669C203.267 88.3369 203.192 88.2917 203.056 88.2316C202.936 88.1864 202.785 88.1564 202.59 88.1564C202.334 88.1564 202.093 88.0962 201.838 88.0059C201.597 87.9157 201.356 87.7953 201.131 87.6299C200.89 87.4644 200.695 87.2388 200.514 86.968C200.334 86.6972 200.213 86.3813 200.138 86.0354C200.033 85.539 200.078 85.0877 200.258 84.6966C200.424 84.3506 200.695 84.0498 201.056 83.794L200.815 82.6358C200.8 82.5455 200.815 82.4553 200.86 82.365C200.905 82.2748 200.995 82.2146 201.086 82.1995L202.785 81.8536C202.891 81.8385 202.981 81.8536 203.071 81.9137C203.146 81.9589 203.207 82.0491 203.222 82.1394L203.417 83.072C203.658 83.0419 203.899 83.0118 204.124 82.9818C204.214 82.9818 204.29 82.9968 204.365 83.057C204.455 83.1171 204.5 83.2074 204.515 83.3127L204.666 84.6966C204.666 84.8019 204.636 84.8921 204.576 84.9674C204.5 85.0576 204.395 85.1027 204.29 85.0877C203.808 85.0877 203.387 85.1178 203.026 85.193C202.891 85.2231 202.785 85.2532 202.71 85.2983C202.62 85.3585 202.59 85.4036 202.59 85.4186C202.56 85.4938 202.545 85.539 202.545 85.5691C202.545 85.5991 202.545 85.6292 202.545 85.6443C202.545 85.6593 202.56 85.6744 202.575 85.7044C202.59 85.7345 202.62 85.7796 202.695 85.8398C202.725 85.8699 202.8 85.9301 202.951 85.9752C203.086 86.0203 203.237 86.0504 203.417 86.0504C203.673 86.0655 203.914 86.1106 204.169 86.2008C204.41 86.2911 204.651 86.4114 204.891 86.5619C205.117 86.7273 205.328 86.953 205.508 87.2237C205.674 87.4945 205.809 87.8104 205.869 88.1564C205.974 88.6828 205.944 89.1642 205.779 89.5553C205.628 89.9163 205.343 90.2172 204.952 90.4578L205.057 90.9542C205.072 91.0144 205.057 91.0896 205.012 91.1498C204.967 91.1949 204.906 91.225 204.831 91.225C204.139 91.3002 203.447 91.3002 202.77 91.3153ZM202.74 90.7437C202.831 90.7437 202.906 90.7888 202.936 90.864C203.462 90.849 204.004 90.8489 204.53 90.8489L204.455 90.4578C204.44 90.3526 204.485 90.2623 204.576 90.2172C204.967 90.0216 205.222 89.7659 205.358 89.465C205.493 89.1642 205.508 88.7881 205.418 88.3369C205.358 88.0511 205.252 87.7803 205.117 87.5547C204.982 87.329 204.801 87.1485 204.621 87.0282C204.425 86.8928 204.23 86.7875 204.019 86.7123C203.808 86.6371 203.598 86.5919 203.402 86.5919C203.177 86.5919 202.981 86.5468 202.816 86.4866C202.635 86.4265 202.5 86.3513 202.394 86.246C202.304 86.1557 202.244 86.0805 202.199 86.0053C202.154 85.9451 202.139 85.8699 202.124 85.8097C202.109 85.7195 202.109 85.6443 202.124 85.5691C202.139 85.4938 202.169 85.4036 202.199 85.3133C202.244 85.193 202.349 85.0877 202.485 84.9974C202.62 84.9072 202.77 84.8621 202.966 84.8169C203.327 84.7417 203.748 84.7116 204.23 84.7116L204.094 83.5082C203.838 83.5383 203.568 83.5684 203.282 83.6135C203.162 83.6286 203.056 83.5534 203.026 83.433L202.816 82.365L201.296 82.6809L201.552 83.9144C201.567 84.0046 201.522 84.1099 201.447 84.1551C201.086 84.3657 200.83 84.6364 200.68 84.9373C200.529 85.2381 200.499 85.5991 200.589 85.9902C200.649 86.276 200.755 86.5468 200.89 86.7724C201.041 86.9981 201.206 87.1786 201.386 87.314C201.582 87.4494 201.778 87.5547 201.988 87.6299C202.184 87.7051 202.394 87.7352 202.605 87.7502C202.846 87.7653 203.041 87.7953 203.207 87.8555C203.387 87.9157 203.523 87.9909 203.628 88.0962C203.718 88.1864 203.778 88.2616 203.808 88.3218C203.853 88.397 203.884 88.4722 203.899 88.5475C203.914 88.6227 203.914 88.6979 203.899 88.7731C203.884 88.8483 203.869 88.9386 203.823 89.0288C203.763 89.1492 203.673 89.2544 203.523 89.3447C203.387 89.435 203.222 89.4951 203.041 89.5252C202.891 89.5553 202.71 89.5854 202.53 89.6004C202.364 89.6155 202.199 89.6305 202.078 89.6305C202.003 89.6305 201.928 89.6305 201.823 89.6305L201.958 90.8489C202.184 90.8339 202.455 90.8038 202.74 90.7587C202.725 90.7437 202.725 90.7437 202.74 90.7437ZM201.266 82.5907C201.266 82.6057 201.266 82.6057 201.266 82.5907V82.5907Z" fill="#202D37"/>
</svg>
