<svg width="253" height="142" viewBox="0 0 253 142" fill="none" xmlns="http://www.w3.org/2000/svg">
<path d="M134.437 81.2286C122.68 103.561 98.1738 123.805 62.0669 124.919C44.7961 125.44 30.3951 121.562 19.8205 114.57C-7.81626 96.3079 -9.25984 56.8269 32.8649 19.3807C69.25 -12.952 110.609 4.97973 134.124 27.9553C145.308 38.8778 145.134 60.9141 134.437 81.2286Z" fill="#0EA579"/>
<path d="M157.691 28.8601C146.925 26.7904 138.525 40.0087 134.524 52.0269C130.524 64.0278 130.802 73.7328 135.203 76.4113C135.203 76.4113 122.68 104.639 121.515 108.5C121.132 109.753 126.628 112.796 127.446 112.344C129.046 111.457 141.638 82.4987 142.507 80.1854C142.507 80.1854 151.447 82.3421 158.996 67.9585C166.544 53.5575 168.474 30.9472 157.691 28.8601ZM156.282 54.2532C152.334 66.3758 143.394 76.5504 138.542 72.4806C135.585 69.9934 135.585 57.2969 145.655 43.0698C155.726 28.8427 160.909 40.0261 156.282 54.2532Z" fill="#FFFEF2"/>
<path d="M127.254 112.988C125.88 112.988 123.184 111.318 122.245 110.553C121.184 109.701 120.767 108.97 120.958 108.327C122.036 104.709 132.785 80.4464 134.472 76.6374C130.193 73.4198 129.985 63.8017 133.968 51.8357C136.246 45.0178 139.498 38.9652 143.134 34.7736C147.673 29.5384 152.752 27.2948 157.83 28.2688C160.526 28.7906 162.596 30.5124 163.987 33.3648C165.831 37.1738 166.318 43.0003 165.396 49.7312C164.509 56.0968 162.387 62.8451 159.569 68.2194C155.587 75.82 151.186 78.8289 148.177 80.0115C145.742 80.9855 143.812 80.9333 142.925 80.8464C142.073 82.9335 138.994 90.0644 135.846 97.0388C128.993 112.205 128.141 112.675 127.776 112.866C127.619 112.953 127.445 112.988 127.254 112.988ZM122.123 108.64C122.176 108.866 122.784 109.596 124.384 110.553C125.706 111.335 126.819 111.753 127.185 111.788C129.011 109.909 140.977 82.5335 141.951 79.9768C142.055 79.6811 142.368 79.5246 142.664 79.5941C142.681 79.5941 144.821 80.0637 147.795 78.8636C150.578 77.7331 154.682 74.8808 158.456 67.6629C164.387 56.3403 166.37 41.174 162.857 33.8866C161.657 31.382 159.883 29.9037 157.569 29.4515C147.256 27.4687 139.011 40.461 135.098 52.2009C131.22 63.8365 131.394 73.3502 135.516 75.8721C135.776 76.0287 135.881 76.3591 135.759 76.6374C135.655 76.9505 123.323 104.744 122.123 108.64ZM141.012 73.9937C139.951 73.9937 138.959 73.6459 138.124 72.9502C136.333 71.437 135.724 67.1759 136.594 62.0799C137.324 57.7143 139.412 50.8095 145.134 42.722C150.421 35.2606 153.83 35.4693 155.395 36.252C158.995 38.0608 159.622 45.8874 156.839 54.4445C153.726 64.0104 147.569 72.3241 142.542 73.7676C142.02 73.9242 141.516 73.9937 141.012 73.9937ZM153.778 37.0868C151.76 37.0868 149.047 39.313 146.142 43.4177C135.985 57.7665 136.472 69.9587 138.925 72.011C139.829 72.7763 140.942 72.9676 142.212 72.6023C146.821 71.2805 152.734 63.1408 155.691 54.0619C158.509 45.4004 157.465 38.6347 154.856 37.3303C154.543 37.1738 154.178 37.0868 153.778 37.0868Z" fill="#202D37"/>
<path d="M134.437 81.2294C122.68 103.561 98.1737 123.806 62.0668 124.919C44.796 125.441 30.395 121.563 19.8203 114.571C22.4292 105.057 25.4381 98.3436 27.8557 92.8302C38.2216 69.0894 46.9353 71.6982 46.9353 71.6982C47.5788 69.1242 48.2397 66.6544 48.9006 64.289C50.9529 56.9146 53.0053 50.6011 54.5532 46.0617C56.2055 41.2265 57.3186 38.3742 57.3186 38.3742C56.8142 38.322 56.3098 38.235 55.8402 38.1307C51.6312 37.2263 48.9876 34.7565 49.6311 32.339C50.3964 29.3822 54.7271 28.7735 59.1622 31.4519C59.3709 32.4781 60.2579 33.0347 60.6232 33.3303C61.1276 33.713 59.7362 35.4174 60.6232 35.9566C61.5102 36.4958 64.2408 34.2521 64.6409 33.4869C67.3715 33.4869 74.7633 30.2692 75.0938 25.5733C75.0938 25.5733 80.1028 24.8254 83.303 29.9562C84.5901 32.0433 86.6598 33.5043 88.6426 33.9738C94.9908 41.2091 100.365 49.9228 99.7564 50.7403C98.852 51.9577 85.0423 46.0617 85.0423 46.0617C85.0423 46.0617 81.2159 60.3757 79.0419 75.4724C78.7114 77.6987 78.4331 79.9423 78.207 82.1512C77.894 85.1601 84.2596 97.0044 84.2596 97.0044L84.277 97.0392C86.2598 95.8217 88.0338 94.7781 88.9904 94.1346C91.4427 92.4997 92.9385 89.4734 100.939 90.5518C101.6 90.6387 102.539 90.4822 103.618 90.1865C107.044 89.2647 111.827 86.9515 112.853 86.795C113.027 86.7602 113.288 87.0559 113.566 87.5602C123.445 82.9338 128.263 80.9337 131.324 80.8293C132.037 80.7945 133.133 80.9337 134.437 81.2294Z" fill="#FFFEF2"/>
<path d="M143.846 92.0138C145.846 93.6661 145.22 98.3273 141.133 97.4403L141.115 97.5447C142.559 99.2839 141.568 101.615 138.854 101.893C138.854 105.719 135.967 106.38 132.297 106.328C128.732 106.276 122.714 104.415 118.314 102.745L113.548 87.5266C123.427 82.9001 128.245 80.9 131.306 80.7956C134.385 80.6913 144.229 83.648 146.925 87.2135C149.481 90.6572 146.438 92.7443 143.846 92.0138Z" fill="#FFFEF2"/>
<path d="M74.4505 37.7314C74.0679 37.5749 73.894 37.1574 74.0505 36.7748L74.7462 35.0355C74.9028 34.6529 75.3202 34.4789 75.7028 34.6355C76.0855 34.792 76.2594 35.2094 76.1029 35.5921L75.4071 37.3314C75.2506 37.6966 74.8332 37.8879 74.4505 37.7314Z" fill="#202D37"/>
<path d="M189.311 135.79C189.068 136.694 188.685 137.355 188.146 137.825C187.607 138.277 186.876 138.521 185.972 138.538L185.345 140.886C185.328 140.956 185.293 141.008 185.224 141.043C185.172 141.077 185.102 141.077 185.032 141.06L181.936 140.225C181.867 140.208 181.815 140.173 181.78 140.103C181.745 140.051 181.745 139.982 181.763 139.912L182.319 137.825C181.745 137.651 181.223 137.46 180.771 137.268C180.719 137.251 180.667 137.199 180.649 137.129C180.615 137.06 180.615 137.007 180.632 136.938L181.554 134.503C181.589 134.433 181.641 134.381 181.71 134.346C181.78 134.312 181.85 134.329 181.919 134.364C182.093 134.451 182.284 134.555 182.476 134.642C182.667 134.729 182.91 134.833 183.224 134.955C183.537 135.077 183.832 135.181 184.093 135.251C184.389 135.338 184.65 135.372 184.893 135.355C185.119 135.338 185.293 135.268 185.415 135.164C185.537 135.059 185.624 134.972 185.676 134.885C185.728 134.799 185.78 134.712 185.798 134.642C185.815 134.555 185.832 134.451 185.815 134.346C185.815 134.242 185.78 134.085 185.728 133.911C185.676 133.738 185.537 133.529 185.328 133.32C185.119 133.111 184.858 132.92 184.528 132.729C184.145 132.52 183.815 132.259 183.502 131.946C183.189 131.633 182.928 131.25 182.702 130.833C182.476 130.416 182.337 129.929 182.267 129.372C182.215 128.815 182.267 128.259 182.423 127.667C182.65 126.85 183.032 126.206 183.606 125.772C184.18 125.319 184.893 125.076 185.745 125.006L186.389 122.589C186.406 122.519 186.441 122.467 186.511 122.432C186.563 122.397 186.633 122.38 186.702 122.397L189.798 123.232C189.868 123.25 189.92 123.284 189.955 123.354C189.989 123.424 190.007 123.493 189.989 123.563L189.433 125.65C189.989 125.824 190.511 126.015 191.033 126.224C191.085 126.241 191.137 126.293 191.172 126.363C191.207 126.433 191.207 126.485 191.189 126.554L190.268 128.989C190.233 129.059 190.198 129.111 190.111 129.128C190.042 129.163 189.972 129.163 189.902 129.128C189.085 128.711 188.337 128.398 187.641 128.207C187.346 128.12 187.085 128.085 186.859 128.12C186.633 128.137 186.441 128.207 186.319 128.311C186.198 128.415 186.111 128.502 186.041 128.589C185.989 128.676 185.937 128.763 185.919 128.85C185.902 128.92 185.885 129.024 185.902 129.128C185.902 129.233 185.937 129.389 186.006 129.563C186.076 129.737 186.198 129.946 186.406 130.155C186.615 130.363 186.876 130.555 187.206 130.746C187.572 130.955 187.92 131.216 188.233 131.529C188.546 131.842 188.807 132.224 189.033 132.642C189.259 133.059 189.398 133.546 189.45 134.103C189.52 134.659 189.468 135.216 189.311 135.79Z" fill="#202D37"/>
<path d="M185.085 141.341C185.032 141.341 184.998 141.341 184.945 141.324L181.85 140.489C181.71 140.454 181.606 140.367 181.536 140.245C181.467 140.124 181.449 139.984 181.484 139.863L181.989 138.019C181.502 137.862 181.067 137.706 180.667 137.532C180.545 137.48 180.458 137.393 180.406 137.271C180.354 137.149 180.336 137.028 180.371 136.906V136.888L181.293 134.453C181.345 134.314 181.449 134.21 181.589 134.14C181.728 134.088 181.884 134.106 182.023 134.175C182.197 134.262 182.371 134.349 182.563 134.436C182.754 134.523 182.997 134.627 183.31 134.749C183.606 134.871 183.902 134.958 184.163 135.045C184.424 135.132 184.667 135.149 184.858 135.132C185.032 135.114 185.172 135.062 185.241 135.01C185.345 134.923 185.415 134.854 185.467 134.784C185.519 134.697 185.537 134.645 185.554 134.61C185.572 134.558 185.572 134.488 185.572 134.401C185.572 134.332 185.554 134.227 185.485 134.019C185.432 133.88 185.328 133.723 185.154 133.532C184.963 133.34 184.719 133.166 184.424 132.992C184.024 132.784 183.658 132.505 183.328 132.158C182.997 131.827 182.719 131.427 182.493 130.992C182.25 130.54 182.093 130.018 182.041 129.444C181.989 128.87 182.041 128.262 182.197 127.653C182.441 126.783 182.858 126.088 183.467 125.618C184.041 125.166 184.737 124.905 185.572 124.818L186.18 122.592C186.215 122.452 186.302 122.348 186.406 122.279C186.528 122.209 186.667 122.174 186.806 122.209L189.902 123.044C190.041 123.079 190.146 123.166 190.215 123.287C190.285 123.409 190.302 123.548 190.268 123.687L189.763 125.531C190.233 125.688 190.702 125.861 191.155 126.035C191.276 126.088 191.363 126.175 191.433 126.296C191.502 126.435 191.502 126.575 191.45 126.714L190.528 129.149C190.476 129.288 190.372 129.392 190.233 129.444C190.094 129.514 189.937 129.497 189.798 129.427C189.015 129.027 188.267 128.714 187.589 128.523C187.328 128.453 187.102 128.418 186.911 128.436C186.737 128.453 186.598 128.505 186.511 128.575C186.372 128.679 186.319 128.766 186.285 128.801C186.25 128.853 186.215 128.923 186.198 128.975C186.18 129.01 186.18 129.079 186.18 129.166C186.18 129.218 186.198 129.34 186.267 129.531C186.319 129.67 186.424 129.844 186.598 130.018C186.789 130.21 187.033 130.384 187.328 130.557C187.711 130.784 188.076 131.062 188.407 131.392C188.737 131.723 189.015 132.123 189.259 132.558C189.502 133.01 189.659 133.532 189.711 134.106C189.763 134.68 189.711 135.288 189.554 135.897C189.294 136.836 188.876 137.567 188.302 138.054C187.763 138.506 187.033 138.767 186.163 138.819L185.589 140.976C185.554 141.115 185.467 141.219 185.345 141.289C185.258 141.306 185.172 141.341 185.085 141.341ZM180.858 137.028C181.293 137.219 181.815 137.41 182.371 137.584C182.51 137.619 182.58 137.758 182.545 137.897L181.989 139.984L185.085 140.802L185.711 138.454C185.745 138.349 185.832 138.262 185.954 138.262C186.806 138.245 187.485 138.019 187.972 137.619C188.476 137.202 188.841 136.558 189.068 135.723C189.207 135.167 189.259 134.645 189.207 134.123C189.154 133.619 189.033 133.149 188.824 132.766C188.615 132.366 188.354 132.018 188.059 131.723C187.763 131.427 187.433 131.166 187.102 130.975C186.754 130.784 186.476 130.575 186.25 130.349C186.024 130.105 185.867 129.879 185.798 129.67C185.728 129.462 185.693 129.305 185.676 129.166C185.676 129.027 185.676 128.905 185.711 128.801C185.745 128.679 185.798 128.575 185.867 128.47C185.937 128.366 186.041 128.262 186.18 128.14C186.337 128.001 186.563 127.914 186.859 127.879C187.12 127.844 187.415 127.879 187.746 127.983C188.441 128.175 189.224 128.505 190.042 128.923L190.963 126.505C190.459 126.314 189.92 126.122 189.381 125.948C189.241 125.914 189.172 125.774 189.207 125.635L189.763 123.548L186.65 122.713L186.006 125.131C185.972 125.235 185.885 125.322 185.78 125.322C184.98 125.374 184.302 125.618 183.78 126.035C183.258 126.453 182.893 127.044 182.684 127.792C182.545 128.349 182.493 128.888 182.545 129.392C182.597 129.914 182.737 130.366 182.945 130.749C183.154 131.149 183.415 131.497 183.711 131.81C184.006 132.105 184.319 132.349 184.667 132.54C185.015 132.732 185.311 132.94 185.537 133.166C185.78 133.41 185.919 133.636 185.989 133.862C186.059 134.071 186.093 134.227 186.093 134.367C186.093 134.506 186.093 134.627 186.059 134.749C186.024 134.854 185.972 134.958 185.902 135.08C185.832 135.184 185.728 135.306 185.589 135.41C185.432 135.549 185.206 135.636 184.928 135.654C184.667 135.688 184.354 135.654 184.041 135.549C183.763 135.48 183.467 135.375 183.137 135.236C182.823 135.114 182.563 134.993 182.371 134.906C182.18 134.819 181.989 134.714 181.815 134.627L180.858 137.028Z" fill="#202D37"/>
<path d="M172.579 132.96C172.91 133.83 172.997 134.595 172.84 135.291C172.684 135.969 172.232 136.596 171.518 137.152L172.405 139.413C172.423 139.483 172.423 139.535 172.405 139.604C172.371 139.674 172.336 139.709 172.266 139.744L169.275 140.909C169.205 140.926 169.136 140.926 169.083 140.909C169.014 140.874 168.979 140.839 168.944 140.77L168.162 138.752C167.588 138.944 167.066 139.1 166.596 139.222C166.527 139.239 166.475 139.222 166.422 139.187C166.37 139.152 166.318 139.1 166.301 139.031L165.588 136.526C165.57 136.456 165.57 136.369 165.622 136.317C165.657 136.248 165.727 136.213 165.814 136.195C166.005 136.161 166.214 136.126 166.422 136.091C166.631 136.056 166.892 135.987 167.222 135.9C167.553 135.813 167.831 135.726 168.109 135.622C168.405 135.517 168.631 135.378 168.805 135.221C168.979 135.065 169.083 134.908 169.118 134.752C169.153 134.595 169.17 134.474 169.17 134.369C169.17 134.265 169.153 134.178 169.118 134.091C169.083 134.004 169.031 133.917 168.962 133.83C168.892 133.743 168.77 133.639 168.631 133.534C168.475 133.43 168.249 133.343 167.97 133.291C167.675 133.239 167.344 133.239 166.979 133.291C166.562 133.36 166.127 133.343 165.692 133.274C165.257 133.204 164.822 133.065 164.387 132.856C163.953 132.647 163.553 132.352 163.187 131.934C162.805 131.517 162.509 131.047 162.3 130.473C161.987 129.673 161.935 128.943 162.126 128.247C162.318 127.551 162.735 126.925 163.396 126.351L162.492 124.021C162.474 123.951 162.474 123.881 162.492 123.829C162.509 123.76 162.561 123.707 162.631 123.69L165.622 122.525C165.692 122.507 165.761 122.507 165.831 122.525C165.901 122.56 165.953 122.612 165.97 122.664L166.753 124.681C167.292 124.49 167.849 124.334 168.388 124.194C168.44 124.177 168.509 124.194 168.579 124.229C168.649 124.264 168.683 124.316 168.701 124.386L169.414 126.89C169.431 126.96 169.414 127.029 169.379 127.099C169.344 127.169 169.275 127.203 169.205 127.221C168.301 127.36 167.518 127.569 166.822 127.83C166.544 127.934 166.318 128.056 166.144 128.212C165.97 128.369 165.866 128.525 165.831 128.682C165.796 128.838 165.779 128.977 165.779 129.082C165.779 129.186 165.796 129.273 165.831 129.36C165.866 129.43 165.918 129.517 165.988 129.604C166.057 129.691 166.179 129.795 166.335 129.899C166.492 130.004 166.718 130.091 167.014 130.143C167.309 130.195 167.64 130.195 168.005 130.143C168.423 130.091 168.857 130.108 169.292 130.178C169.727 130.247 170.162 130.386 170.597 130.595C171.031 130.804 171.431 131.117 171.797 131.517C172.075 131.917 172.371 132.404 172.579 132.96Z" fill="#202D37"/>
<path d="M169.17 141.204C169.101 141.204 169.031 141.186 168.962 141.169C168.84 141.117 168.736 141.013 168.683 140.891L167.988 139.099C167.501 139.256 167.049 139.395 166.631 139.499C166.509 139.534 166.37 139.517 166.266 139.447C166.144 139.378 166.075 139.291 166.022 139.169V139.152L165.309 136.647C165.274 136.49 165.292 136.351 165.379 136.23C165.466 136.108 165.588 136.021 165.744 136.003C165.935 135.969 166.144 135.934 166.335 135.899C166.544 135.864 166.805 135.795 167.118 135.708C167.431 135.621 167.709 135.534 167.97 135.429C168.231 135.342 168.44 135.221 168.579 135.082C168.701 134.96 168.788 134.855 168.805 134.751C168.84 134.629 168.857 134.508 168.84 134.438C168.84 134.334 168.823 134.282 168.805 134.247C168.788 134.195 168.753 134.125 168.683 134.073C168.649 134.021 168.562 133.951 168.388 133.829C168.266 133.742 168.075 133.673 167.831 133.638C167.57 133.603 167.257 133.603 166.927 133.638C166.475 133.708 166.022 133.69 165.553 133.621C165.101 133.534 164.631 133.394 164.179 133.186C163.726 132.977 163.292 132.647 162.892 132.212C162.492 131.777 162.179 131.255 161.952 130.681C161.622 129.846 161.57 129.029 161.761 128.281C161.952 127.585 162.37 126.959 162.979 126.385L162.144 124.228C162.092 124.107 162.092 123.968 162.144 123.846C162.196 123.707 162.3 123.602 162.422 123.55L165.414 122.385C165.535 122.333 165.674 122.333 165.814 122.402C165.953 122.454 166.04 122.559 166.092 122.698L166.788 124.489C167.257 124.333 167.727 124.194 168.196 124.072C168.318 124.037 168.457 124.055 168.562 124.107C168.701 124.176 168.788 124.281 168.823 124.42L169.536 126.924C169.57 127.064 169.553 127.203 169.483 127.342C169.397 127.481 169.275 127.568 169.118 127.585C168.249 127.724 167.466 127.916 166.805 128.177C166.544 128.264 166.353 128.385 166.214 128.507C166.075 128.629 166.005 128.751 165.97 128.855C165.935 129.029 165.918 129.116 165.918 129.185C165.918 129.255 165.935 129.325 165.953 129.377C165.97 129.412 165.988 129.464 166.057 129.551C166.092 129.603 166.179 129.672 166.353 129.794C166.475 129.881 166.666 129.951 166.909 129.985C167.17 130.038 167.483 130.02 167.814 129.985C168.266 129.933 168.718 129.951 169.17 130.02C169.64 130.09 170.092 130.246 170.544 130.455C171.014 130.681 171.431 131.012 171.832 131.429C172.214 131.864 172.527 132.368 172.771 132.96C173.136 133.864 173.223 134.699 173.049 135.447C172.875 136.143 172.458 136.769 171.779 137.343L172.597 139.43C172.649 139.569 172.649 139.691 172.597 139.83C172.545 139.952 172.44 140.056 172.319 140.108L169.327 141.273C169.292 141.186 169.24 141.204 169.17 141.204ZM168.144 138.508C168.249 138.508 168.353 138.578 168.388 138.682L169.17 140.699L172.145 139.517L171.258 137.273C171.223 137.169 171.258 137.047 171.345 136.977C172.023 136.456 172.423 135.882 172.579 135.256C172.736 134.629 172.649 133.899 172.336 133.081C172.127 132.56 171.849 132.09 171.501 131.707C171.153 131.325 170.788 131.046 170.388 130.855C169.988 130.664 169.57 130.525 169.153 130.455C168.736 130.386 168.336 130.386 167.936 130.42C167.553 130.472 167.188 130.472 166.875 130.42C166.544 130.368 166.283 130.281 166.092 130.142C165.918 130.02 165.779 129.899 165.692 129.794C165.605 129.69 165.535 129.585 165.501 129.481C165.466 129.377 165.431 129.255 165.431 129.116C165.431 128.994 165.448 128.838 165.483 128.664C165.535 128.455 165.657 128.246 165.866 128.055C166.057 127.881 166.318 127.724 166.631 127.62C167.309 127.359 168.127 127.15 169.049 127.011L168.353 124.524C167.831 124.663 167.275 124.837 166.753 125.011C166.614 125.063 166.475 124.994 166.422 124.855L165.64 122.837L162.648 124.002L163.57 126.333C163.605 126.437 163.587 126.559 163.5 126.629C162.892 127.15 162.492 127.742 162.318 128.385C162.144 129.029 162.196 129.725 162.492 130.455C162.7 130.977 162.979 131.446 163.326 131.829C163.674 132.212 164.057 132.507 164.457 132.681C164.857 132.873 165.274 133.012 165.692 133.081C166.109 133.151 166.509 133.151 166.909 133.099C167.309 133.047 167.657 133.047 167.988 133.099C168.318 133.151 168.579 133.255 168.77 133.377C168.944 133.499 169.066 133.621 169.153 133.725C169.24 133.829 169.31 133.951 169.344 134.055C169.379 134.16 169.414 134.282 169.414 134.421C169.414 134.56 169.397 134.699 169.362 134.873C169.31 135.082 169.188 135.273 168.979 135.464C168.788 135.638 168.527 135.795 168.196 135.916C167.936 136.021 167.622 136.125 167.292 136.212C166.962 136.299 166.701 136.369 166.492 136.403C166.283 136.456 166.075 136.49 165.866 136.508L166.562 138.995C166.562 138.995 166.562 138.995 166.579 138.995C167.031 138.873 167.553 138.717 168.127 138.525C168.092 138.508 168.127 138.508 168.144 138.508Z" fill="#202D37"/>
<path d="M16.8283 128.538C16.7935 128.538 16.7587 128.538 16.724 128.521C16.3935 128.468 16.1674 128.155 16.237 127.808C19.1589 111.163 23.6636 100.849 26.9682 93.3182L27.2986 92.5703C36.3253 71.9254 44.2215 70.8297 46.4652 70.9862C49.1262 60.5507 52.0134 51.5587 53.9787 45.8192C55.144 42.4103 56.0485 39.9579 56.4833 38.8274C56.2224 38.7926 55.9615 38.7404 55.718 38.6883C52.8308 38.0621 50.5872 36.7403 49.5436 35.0358C48.9697 34.0966 48.7958 33.1053 49.0567 32.1487C49.3697 30.9138 50.2567 29.9746 51.5264 29.4702C53.7874 28.6006 57.0224 29.2441 59.9618 31.1747C60.24 31.366 60.327 31.7313 60.1357 32.0095C59.9444 32.2878 59.5791 32.3748 59.3009 32.1835C56.6746 30.479 53.8744 29.8703 51.9612 30.6007C51.0568 30.9486 50.4654 31.5921 50.2393 32.4443C50.0654 33.0879 50.1872 33.7488 50.5872 34.3923C51.4394 35.7837 53.457 36.949 55.9963 37.4882C56.4485 37.5925 56.9355 37.6621 57.4225 37.7143C57.6138 37.7317 57.7703 37.836 57.8747 38.01C57.979 38.1665 57.9964 38.3752 57.9268 38.5491C57.9094 38.5839 56.7963 41.4363 55.1614 46.2192C53.1613 52.0283 50.222 61.1942 47.5435 71.821C47.5087 71.9776 47.4044 72.1167 47.2478 72.2037C47.1087 72.2906 46.9348 72.308 46.7782 72.2558C46.7608 72.2558 44.7259 71.7341 41.4735 73.9603C38.4124 76.0648 33.6643 81.0912 28.4291 93.0573L28.0987 93.8052C24.8289 101.284 20.359 111.511 17.4544 128.016C17.3849 128.329 17.124 128.538 16.8283 128.538Z" fill="#202D37"/>
<path d="M57.8406 35.5261C57.6492 35.5261 57.4579 35.4392 57.3362 35.2653C57.1275 34.987 55.6839 34.0651 53.9968 34.0651H53.9794C53.6489 34.0651 53.3706 33.7869 53.3706 33.4564C53.3706 33.1259 53.6489 32.8477 53.9794 32.8477C53.9967 32.8477 53.9967 32.8477 54.0141 32.8477C56.0839 32.8477 57.9101 33.9434 58.345 34.5695C58.5363 34.8478 58.4841 35.2305 58.2058 35.4218C58.0841 35.4914 57.9623 35.5261 57.8406 35.5261Z" fill="#202D37"/>
<path d="M84.2243 97.5977C84.0155 97.5977 83.7894 97.476 83.6851 97.2846C83.0242 96.0498 77.2325 85.1968 77.5629 82.0836C79.337 64.9867 84.3634 46.081 84.4156 45.8897C84.4677 45.7158 84.5721 45.5767 84.7286 45.5071C84.8852 45.4375 85.0765 45.4201 85.233 45.4897C90.903 47.9073 97.5295 50.3074 99.1122 50.29C98.7992 49.1247 96.5555 45.0723 92.3466 39.5241C87.5288 33.1584 82.6589 28.2537 78.9891 26.0622C78.6934 25.8883 78.6065 25.5231 78.7804 25.2274C78.9543 24.9317 79.3196 24.8448 79.6152 25.0187C88.3811 30.2364 99.721 47.1072 100.33 50.1857C100.365 50.3248 100.434 50.7596 100.191 51.0727C99.7384 51.664 98.7644 51.9771 91.79 49.403C89.1637 48.429 86.5722 47.3681 85.3896 46.8811C84.4851 50.3944 80.3283 67.039 78.7456 82.2053C78.5021 84.5185 82.9894 93.4583 84.7286 96.7107C84.8852 97.0064 84.7808 97.3716 84.4851 97.5281C84.4156 97.5803 84.3112 97.5977 84.2243 97.5977Z" fill="#202D37"/>
<path d="M77.528 76.0991C72.8494 76.0991 67.3881 74.986 61.9617 72.9162C56.2221 70.7248 51.3001 67.7159 48.4477 64.6896C48.2216 64.4461 48.2216 64.0634 48.4825 63.8373C48.726 63.6112 49.1086 63.6112 49.3347 63.8721C54.6568 69.5247 68.4491 75.4382 78.9716 74.8642C79.302 74.8468 79.5977 75.1077 79.6151 75.4382C79.6325 75.7686 79.3716 76.0643 79.0411 76.0817C78.5368 76.0817 78.0324 76.0991 77.528 76.0991Z" fill="#202D37"/>
<path d="M80.0333 39.3152C79.7724 39.3152 79.5289 39.1413 79.4593 38.8804C79.355 38.5673 79.5463 38.2195 79.8594 38.1151C81.8421 37.5064 84.4684 38.0803 84.5728 38.0977C84.9033 38.1673 85.112 38.4977 85.0424 38.8282C84.9728 39.1587 84.6424 39.3674 84.3119 39.2978C84.2945 39.2978 81.8943 38.776 80.2246 39.2804C80.155 39.3152 80.1029 39.3152 80.0333 39.3152Z" fill="#202D37"/>
<path d="M71.1457 44.5168C70.9196 44.5168 70.6935 44.3777 70.5891 44.1516C69.8064 42.3775 68.7107 41.2296 66.4148 39.8034C66.1366 39.6295 66.0496 39.2468 66.2235 38.9685C66.3974 38.6903 66.7801 38.6033 67.0584 38.7772C69.1803 40.0991 70.6935 41.3688 71.7022 43.682C71.8414 43.9951 71.7022 44.3429 71.3892 44.4821C71.3022 44.4995 71.2152 44.5168 71.1457 44.5168Z" fill="#202D37"/>
<path d="M57.3189 38.3607C57.3189 38.3607 56.2057 41.2131 54.5534 46.0483C46.4832 45.7004 47.3528 38.5868 49.3704 39.613C50.9879 40.4478 53.4055 39.526 55.8405 38.1172C56.3101 38.2042 56.7971 38.2911 57.3189 38.3607Z" fill="#202D37"/>
<path d="M54.5362 46.6562C54.5188 46.6562 54.5188 46.6562 54.5014 46.6562C49.4923 46.4475 48.0139 43.769 47.6139 42.6211C47.1443 41.2818 47.3356 39.8904 48.0661 39.2295C48.5009 38.8468 49.0749 38.7947 49.6141 39.0556C50.7794 39.6643 52.7622 39.1599 55.5102 37.5598C55.6494 37.4902 55.7885 37.4554 55.9451 37.4902C56.3973 37.5946 56.8843 37.6641 57.3713 37.7163C57.5626 37.7337 57.7191 37.8381 57.8235 38.012C57.9278 38.1685 57.9452 38.3772 57.8756 38.5512C57.8583 38.586 56.7451 41.4384 55.1102 46.2214C55.0406 46.4823 54.7971 46.6562 54.5362 46.6562ZM48.9705 40.1165C48.9358 40.1165 48.9184 40.1339 48.8836 40.1513C48.6227 40.3774 48.4314 41.2297 48.7792 42.221C49.0923 43.0907 50.2054 45.1082 54.1188 45.4039C55.2146 42.221 56.0668 39.9426 56.4842 38.8468C56.3103 38.8121 56.119 38.7773 55.9451 38.7425C52.8317 40.4992 50.6576 40.9514 49.0923 40.1513C49.0227 40.1339 48.9879 40.1165 48.9705 40.1165Z" fill="#202D37"/>
<path d="M59.2311 30.1666C58.6571 32.0102 60.1181 32.8972 60.6225 33.2972C61.1269 33.6799 59.7355 35.3843 60.6225 35.9235C61.5095 36.4627 64.2401 34.219 64.6402 33.4537C67.3708 33.4537 74.7626 30.2361 75.0931 25.5402C75.0931 25.5402 80.1021 24.7923 83.285 29.9231C85.9112 34.1494 91.7203 35.8887 93.5813 31.7319C94.9727 28.636 89.7028 31.0884 89.1114 29.2795C88.3288 26.8968 88.5723 22.1486 83.5632 20.3224C78.5542 18.5136 74.2234 22.0617 74.2234 22.0617C71.5972 18.7049 62.7444 18.7049 59.2311 30.1666Z" fill="#202D37"/>
<path d="M60.9532 36.6193C60.7097 36.6193 60.501 36.5671 60.3096 36.4453C59.3878 35.8888 59.7531 34.8104 59.9618 34.1495C60.014 34.0104 60.0835 33.8017 60.1009 33.6625C59.527 33.2277 57.9964 32.0798 58.64 29.9753L59.2139 30.1492L58.64 29.9753C61.1619 21.7486 66.1014 20.0094 68.1189 19.6268C70.5191 19.1745 72.8844 19.8181 74.3106 21.2269C75.6151 20.3398 79.424 18.1658 83.7722 19.7311C88.0855 21.2964 88.7812 24.8271 89.303 27.4186C89.4247 28.0274 89.5465 28.6187 89.6856 29.0535C89.8074 29.4187 90.8335 29.4014 91.5988 29.384C92.6423 29.3666 93.7381 29.3492 94.2251 30.0797C94.6773 30.758 94.2772 31.645 94.1555 31.9407C93.425 33.5756 92.051 34.5495 90.3117 34.6539C87.6159 34.8278 84.52 33.0016 82.7808 30.2014C80.3806 26.3403 76.8847 26.0446 75.6498 26.062C74.8324 30.7406 68.0493 33.8365 64.9534 34.0452C64.3099 34.88 62.675 36.1844 61.5097 36.5149C61.3184 36.5845 61.1271 36.6193 60.9532 36.6193ZM60.9184 35.4018C61.4923 35.5235 63.736 33.8712 64.0838 33.1755C64.1882 32.9668 64.3969 32.8451 64.623 32.8451C67.3362 32.8451 74.1715 29.6622 74.4672 25.488C74.4846 25.2098 74.7107 24.9663 74.9889 24.9315C75.215 24.8967 80.4328 24.1836 83.7895 29.5927C85.2853 31.9928 87.9811 33.6277 90.2074 33.4712C91.4944 33.3842 92.4684 32.6885 93.025 31.4711C93.2337 31.0189 93.2163 30.8102 93.1989 30.7754C93.0771 30.6014 92.0858 30.6188 91.6162 30.6188C90.4161 30.6362 88.9377 30.671 88.5377 29.4535C88.3638 28.9318 88.242 28.323 88.1203 27.6621C87.6333 25.2271 87.0419 22.2008 83.3721 20.879C78.7631 19.2093 74.6585 22.4791 74.6237 22.5139C74.5019 22.6183 74.328 22.6704 74.1715 22.6531C74.015 22.6357 73.8584 22.5487 73.7541 22.427C72.6931 21.0703 70.519 20.4268 68.3624 20.8268C64.5708 21.5225 61.4749 24.9837 59.84 30.3232C59.4748 31.5059 60.1531 32.132 60.8662 32.6712C60.9184 32.7059 60.9706 32.7581 61.0227 32.7929C61.5793 33.2277 61.3358 33.9408 61.1445 34.5148C61.0401 34.7757 60.8836 35.2452 60.9184 35.4018Z" fill="#202D37"/>
<path d="M73.285 87.8398C72.9545 87.8398 72.6589 87.7354 72.4154 87.5267C71.8762 87.0571 71.3022 85.7874 70.4152 83.7699C69.7369 82.222 68.6238 79.6305 68.0672 79.3696C67.302 79.1435 63.3712 81.3349 61.2668 82.5003C59.858 83.2829 58.6405 83.9612 57.8926 84.2743C55.4576 85.2831 51.8922 82.1176 48.3615 75.7867C48.205 75.4911 48.3093 75.1258 48.605 74.9519C48.9007 74.7954 49.2659 74.8997 49.4398 75.178C52.4487 80.5697 55.7359 83.8395 57.4404 83.1264C58.1187 82.8481 59.371 82.1524 60.6754 81.4219C65.3888 78.7956 67.5455 77.7695 68.5716 78.2391C69.4934 78.6565 70.2935 80.4132 71.5283 83.2481C72.1197 84.5874 72.8328 86.257 73.198 86.5701C73.2154 86.5875 73.2328 86.6049 73.3198 86.5875C73.9459 86.5179 75.146 85.3178 75.7547 84.5178C75.9634 84.2569 76.3461 84.2047 76.607 84.4134C76.8678 84.6221 76.92 85.0048 76.7113 85.2657C76.3982 85.6657 74.7981 87.6658 73.4415 87.7876C73.3893 87.8398 73.3372 87.8398 73.285 87.8398Z" fill="#202D37"/>
<path d="M68.0845 87.3888C66.8844 87.3888 65.006 86.9888 64.4494 86.554C63.7711 86.0148 63.371 84.5364 62.5362 81.2665L62.4666 80.9709C62.3797 80.6404 62.5884 80.3099 62.9014 80.223C63.2319 80.136 63.5624 80.3447 63.6493 80.6578L63.7189 80.9535C64.2581 83.0754 64.8146 85.2669 65.1973 85.58C65.5799 85.893 67.9453 86.2931 68.4497 86.1191C68.7628 85.98 69.9107 84.7799 70.763 83.7363C70.9717 83.4754 71.3543 83.4406 71.6152 83.6494C71.8761 83.8581 71.9109 84.2407 71.7022 84.5016C71.0934 85.2495 69.5803 86.9888 68.8498 87.2497C68.6758 87.354 68.3976 87.3888 68.0845 87.3888Z" fill="#202D37"/>
<path d="M69.4932 106.607C69.1627 106.607 68.9018 106.346 68.8845 106.033C68.8497 105.459 68.1887 91.8924 68.0496 86.7441C68.0322 86.4136 68.3105 86.1354 68.641 86.118C68.9714 86.1006 69.2497 86.3788 69.2671 86.7093C69.4236 91.8576 70.0846 105.407 70.1019 105.981C70.1193 106.311 69.8585 106.607 69.528 106.624C69.528 106.607 69.5106 106.607 69.4932 106.607Z" fill="#202D37"/>
<path d="M59.9449 114.154C59.9275 114.154 59.9101 114.154 59.8927 114.154C59.5622 114.137 59.3013 113.841 59.3361 113.493C60.4492 99.0398 64.206 86.0302 64.2408 85.9084C64.3278 85.578 64.6756 85.404 64.9887 85.491C65.3192 85.578 65.4931 85.9258 65.4061 86.2389C65.3713 86.3606 61.6493 99.2659 60.5536 113.58C60.5362 113.91 60.2579 114.154 59.9449 114.154Z" fill="#202D37"/>
<path d="M92.1555 129.617C91.9816 129.617 91.7903 129.53 91.6859 129.391C91.4772 129.13 91.5294 128.747 91.7903 128.538C108.835 115.007 109.792 109.72 109.809 109.668C109.826 109.424 110 109.233 110.226 109.163C113.635 108.067 117.566 106.502 118.036 105.859C118.227 104.728 117.427 100.728 116.053 96.0665C114.54 90.901 113.27 88.0138 112.766 87.4225C112.279 87.5616 111.218 87.9964 110.105 88.4486C107.044 89.7009 102.852 91.4053 100.852 91.1445C94.6079 90.3096 92.5382 92.0489 90.712 93.562C90.2598 93.9447 89.8249 94.3099 89.338 94.623C88.677 95.0578 87.6509 95.6839 86.4508 96.4144C83.2158 98.3797 78.3111 101.354 76.0849 103.545C73.4064 106.172 71.5628 106.38 69.4409 106.624C68.9713 106.676 68.4843 106.728 67.9799 106.815C66.345 107.076 66.0668 108.346 65.8406 110.241C65.6841 111.563 65.4928 113.076 64.0318 113.163C61.423 113.337 58.3793 114.503 57.6314 116.398C56.7096 118.746 55.5617 121.112 52.7441 121.981C50.4483 122.695 49.0916 123.947 46.935 127.321C46.761 127.599 46.3784 127.686 46.1001 127.512C45.8219 127.338 45.7349 126.956 45.9088 126.677C47.9264 123.495 49.4917 121.721 52.3788 120.834C54.692 120.12 55.6138 118.207 56.4835 115.964C57.4575 113.494 61.0403 112.155 63.9449 111.963C64.3449 111.929 64.4666 111.355 64.6232 110.102C64.8319 108.38 65.1102 106.032 67.7886 105.615C68.3278 105.528 68.8322 105.476 69.3192 105.424C71.3715 105.198 72.8672 105.024 75.25 102.693C77.5806 100.397 82.3462 97.5101 85.8421 95.3882C87.0247 94.6751 88.0509 94.049 88.6944 93.6142C89.1292 93.3185 89.5293 92.9881 89.9641 92.6228C91.8947 91.0227 94.2774 89.0226 101.061 89.927C102.748 90.1531 106.939 88.4486 109.705 87.3181C111.357 86.6398 112.331 86.2572 112.8 86.1876C113.096 86.1354 113.374 86.2572 113.635 86.5354C114.644 87.6138 116.262 92.3098 117.34 96.0144C117.896 97.9101 119.653 104.258 119.253 106.154C119.149 106.659 118.697 107.337 114.679 108.885C113.148 109.476 111.6 109.998 110.957 110.207C110.487 111.72 107.791 117.407 92.5903 129.478C92.4164 129.565 92.2773 129.617 92.1555 129.617Z" fill="#202D37"/>
<path d="M110.383 110.349C110.139 110.349 109.913 110.21 109.826 109.967C104.991 98.2787 103.026 90.3823 102.991 90.3128C102.904 89.9823 103.113 89.6518 103.443 89.5823C103.774 89.4953 104.104 89.704 104.174 90.0345C104.191 90.1041 106.156 97.9308 110.939 109.514C111.061 109.827 110.922 110.175 110.609 110.314C110.539 110.332 110.47 110.349 110.383 110.349Z" fill="#202D37"/>
<path d="M144.89 92.7612C144.351 92.7612 143.811 92.6742 143.307 92.4655C140.942 91.5611 140.003 91.1958 140.003 91.1785C139.689 91.0567 139.533 90.6915 139.655 90.3958C139.776 90.0827 140.142 89.9262 140.437 90.0479C140.455 90.0479 141.377 90.4306 143.725 91.3176C144.907 91.7698 146.316 91.4741 146.942 90.6567C147.516 89.8914 147.325 88.7957 146.42 87.5782C143.864 84.1692 134.176 81.3169 131.324 81.4038C128.332 81.4908 123.497 83.5431 113.792 88.0826C113.479 88.2217 113.131 88.1 112.975 87.7869C112.835 87.4738 112.957 87.126 113.27 86.9694C123.132 82.3604 128.071 80.2733 131.271 80.1864C134.333 80.082 144.455 82.9518 147.394 86.8477C149.168 89.2131 148.351 90.8132 147.916 91.3872C147.273 92.2742 146.107 92.7612 144.89 92.7612Z" fill="#202D37"/>
<path d="M142.073 98.1728C140.994 98.1728 139.568 97.7901 137.742 96.6074C137.463 96.4335 137.377 96.0508 137.568 95.7726C137.742 95.4943 138.124 95.4073 138.403 95.5986C140.942 97.2335 142.942 97.4423 143.864 96.1726C144.629 95.129 144.421 93.3202 143.447 92.5201C143.186 92.3114 143.151 91.9287 143.36 91.6679C143.568 91.407 143.951 91.3722 144.212 91.5809C145.673 92.7984 145.969 95.3203 144.838 96.8857C144.542 97.2683 143.707 98.1728 142.073 98.1728Z" fill="#202D37"/>
<path d="M138.315 102.554C137.359 102.554 136.245 102.345 134.976 101.823C134.663 101.702 134.524 101.336 134.645 101.023C134.767 100.71 135.132 100.571 135.445 100.693C138.333 101.876 140.141 101.215 140.82 100.31C141.342 99.6146 141.272 98.7101 140.646 97.9449C140.437 97.684 140.472 97.3013 140.733 97.0926C140.994 96.8839 141.376 96.9187 141.585 97.1796C142.559 98.3623 142.646 99.8755 141.794 101.041C141.168 101.876 140.002 102.554 138.315 102.554Z" fill="#202D37"/>
<path d="M132.681 106.971C132.542 106.971 132.42 106.971 132.281 106.971C127.828 106.919 120.297 104.188 118.088 103.353C117.775 103.232 117.619 102.884 117.741 102.571C117.862 102.258 118.21 102.101 118.523 102.223C120.68 103.04 128.054 105.719 132.298 105.771C134.925 105.806 136.49 105.441 137.36 104.571C137.951 103.98 138.247 103.11 138.247 101.945C138.247 101.614 138.525 101.336 138.855 101.336C139.186 101.336 139.464 101.614 139.464 101.945C139.464 103.44 139.047 104.623 138.212 105.441C136.873 106.745 134.699 106.971 132.681 106.971Z" fill="#202D37"/>
<path d="M206.007 128.295C205.694 128.295 205.433 128.069 205.398 127.756C205.364 127.425 205.607 127.13 205.938 127.095C211.625 126.521 227.678 126.191 229.8 126.504C230.131 126.556 230.357 126.869 230.305 127.199C230.253 127.53 229.957 127.756 229.609 127.704C227.783 127.425 211.903 127.704 206.042 128.295C206.042 128.295 206.024 128.295 206.007 128.295Z" fill="#202D37"/>
<path d="M232.461 133.463C230.861 133.463 227.313 133.359 222.965 133.255C217.086 133.098 209.764 132.889 205.347 132.889C205.016 132.889 204.738 132.611 204.738 132.281C204.738 131.95 205.016 131.672 205.347 131.672C209.782 131.672 217.104 131.863 223 132.037C227.887 132.176 232.114 132.281 233.07 132.246C233.401 132.228 233.696 132.489 233.696 132.82C233.696 133.15 233.453 133.446 233.122 133.446C232.966 133.463 232.757 133.463 232.461 133.463Z" fill="#202D37"/>
<path d="M211.347 138.854C208.79 138.854 206.598 138.784 205.485 138.558C205.155 138.488 204.946 138.175 204.998 137.845C205.05 137.514 205.381 137.288 205.711 137.358C208.616 137.914 219.765 137.462 223.974 137.288C224.983 137.254 225.574 137.219 225.765 137.219C226.096 137.219 226.374 137.497 226.374 137.827C226.374 138.158 226.096 138.436 225.765 138.436C225.609 138.436 224.948 138.471 224.026 138.506C221.087 138.645 215.695 138.854 211.347 138.854Z" fill="#202D37"/>
<path d="M228.548 10.1852C227.452 10.1852 226.461 10.1678 225.608 10.133C225.278 10.1156 225.017 9.83731 225.017 9.50685C225.034 9.17639 225.295 8.9155 225.643 8.9155C228.6 9.01985 233.644 8.8981 238.096 8.79375C241.714 8.70678 245.123 8.61982 247.089 8.672C247.419 8.672 247.697 8.95029 247.68 9.29814C247.68 9.6286 247.402 9.88949 247.071 9.88949H247.054C245.106 9.83731 241.714 9.92427 238.114 10.0112C234.757 10.0982 231.331 10.1852 228.548 10.1852Z" fill="#202D37"/>
<path d="M227.835 16.0115C227.504 16.0115 227.226 15.7506 227.226 15.4027C227.226 15.0722 227.487 14.794 227.835 14.794C231.4 14.7418 238.288 14.4983 239.279 14.3939C239.61 14.3591 239.905 14.6026 239.94 14.9331C239.975 15.2636 239.731 15.5592 239.401 15.594C238.357 15.7158 231.505 15.9593 227.835 16.0115Z" fill="#202D37"/>
<path d="M227.835 21.175C227.504 21.175 227.243 20.9141 227.226 20.5836C227.209 20.2531 227.469 19.9575 227.817 19.9575C230.496 19.8531 234.009 19.8183 237.749 19.7835C243.732 19.7314 249.906 19.6792 252.15 19.2966C252.48 19.2444 252.793 19.4705 252.845 19.8009C252.898 20.1314 252.672 20.4445 252.341 20.4966C249.993 20.8793 243.766 20.9489 237.749 21.001C234.026 21.0358 230.513 21.0706 227.852 21.175H227.835Z" fill="#202D37"/>
<path d="M236.374 28.3397C233.991 28.3397 231.765 28.2527 230.147 28.044C229.817 28.0092 229.574 27.6962 229.626 27.3657C229.678 27.0352 229.974 26.7918 230.304 26.8439C235.922 27.5744 248.706 26.7048 249.627 26.4091C249.941 26.3048 250.288 26.4787 250.393 26.8092C250.497 27.1222 250.323 27.4701 249.993 27.5744C249.14 27.8353 242.288 28.3397 236.374 28.3397Z" fill="#202D37"/>
<path d="M167.239 105.232C165.709 105.232 165.205 105.023 164.926 104.797C164.735 104.641 164.613 104.414 164.596 104.171C163.744 83.5956 165.013 67.3336 165.031 67.177C165.048 66.8814 165.292 66.6379 165.605 66.6205C170.301 66.3422 174.649 67.664 174.84 67.7162C175.084 67.7858 175.257 68.0293 175.275 68.2902C175.275 68.5163 175.779 91.0744 173.518 104.258C173.466 104.519 173.257 104.728 172.996 104.762C172.979 104.762 171.292 105.006 169.501 105.145C168.579 105.197 167.831 105.232 167.239 105.232ZM165.813 103.893C166.596 104.136 169.657 103.945 172.388 103.58C174.37 91.4918 174.11 71.9426 174.057 68.7424C172.927 68.4467 169.674 67.6814 166.196 67.7858C166.005 70.7599 165.083 85.5957 165.813 103.893Z" fill="#202D37"/>
<path d="M183.519 104.798C182.215 104.798 180.876 104.763 179.797 104.694C179.484 104.676 179.241 104.398 179.241 104.085C179.241 103.824 179.258 78.2398 180.284 63.7518C180.302 63.5083 180.458 63.2996 180.702 63.2127C183.032 62.4126 188.894 63.1605 189.137 63.1779C189.433 63.2126 189.659 63.4561 189.676 63.7518C189.676 63.9605 190.424 83.9967 189.207 104.103C189.189 104.416 188.928 104.659 188.633 104.676C188.459 104.711 186.059 104.798 183.519 104.798ZM180.458 103.529C182.98 103.668 186.65 103.563 188.024 103.511C189.085 85.4577 188.581 67.5956 188.476 64.3432C186.702 64.1518 183.224 63.891 181.484 64.2736C180.545 77.5615 180.458 99.6848 180.458 103.529Z" fill="#202D37"/>
<path d="M219.921 106.85C219.173 106.85 212.686 106.763 211.416 106.363C211.155 106.276 210.981 106.033 210.999 105.755C211.016 105.476 212.181 78.2049 214.286 61.8559C214.321 61.595 214.529 61.3689 214.79 61.3341C219.051 60.6732 222.721 62.3429 222.878 62.4125C223.087 62.5168 223.226 62.7255 223.226 62.969C223.226 63.2299 222.895 89.7709 220.53 106.329C220.495 106.624 220.234 106.85 219.921 106.85ZM212.234 105.285C213.59 105.476 217.017 105.581 219.399 105.616C221.521 90.2579 221.956 66.7606 222.008 63.3517C221.069 62.9864 218.408 62.1168 215.434 62.4473C213.521 77.5614 212.408 101.476 212.234 105.285Z" fill="#202D37"/>
<path d="M198.163 51.9942C201.05 51.2637 208.129 53.0203 208.129 53.0203C208.129 53.0203 204.563 99.441 203.694 104.189C203.694 104.189 197.189 104.711 194.754 103.737C194.754 103.737 194.754 73.8392 198.163 51.9942Z" fill="#FBD931"/>
<path d="M199.937 104.607C198.024 104.607 195.867 104.485 194.65 103.981C194.545 103.946 194.493 103.842 194.493 103.737C194.493 103.442 194.528 73.5614 197.902 51.9425C197.919 51.8382 197.989 51.7512 198.093 51.7338C201.015 51.0033 207.903 52.6904 208.181 52.76C208.303 52.7948 208.39 52.8991 208.372 53.0383C208.233 54.9341 204.79 99.5285 203.92 104.242C203.903 104.364 203.798 104.451 203.676 104.451C203.572 104.468 201.885 104.607 199.937 104.607ZM195.015 103.564C197.224 104.346 202.389 104.033 203.468 103.946C204.355 98.5023 207.59 56.6559 207.851 53.2122C206.668 52.9339 200.998 51.6643 198.389 52.186C195.189 72.8831 195.015 101.042 195.015 103.564Z" fill="#FBD931"/>
<path d="M213.538 23.3878C213.434 25.5966 212.981 27.562 212.268 29.2838C211.799 30.4143 211.207 31.4579 210.529 32.3797C206.059 38.4845 197.415 40.102 190.197 37.2322C186.858 35.893 183.832 33.6146 181.657 30.3622C172.874 17.2308 183.692 6.48222 190.423 3.35156C190.423 3.35156 193.954 17.683 196.372 21.5094C196.389 21.5094 208.372 22.2051 213.538 23.3878Z" fill="#FFFEF2"/>
<path d="M197.415 39.2143C194.91 39.2143 192.371 38.7273 189.988 37.7881C186.353 36.3446 183.31 33.8748 181.17 30.692C177.953 25.8917 177.014 21.0043 178.37 16.1866C180.127 9.9253 185.571 4.95104 190.197 2.79437C190.354 2.72479 190.545 2.72479 190.719 2.79437C190.875 2.88133 190.997 3.02047 191.049 3.1944C191.084 3.33354 194.423 16.8475 196.754 20.9174C198.737 21.0391 208.929 21.7174 213.677 22.7958C213.973 22.8653 214.164 23.1262 214.147 23.4219C214.042 25.6308 213.607 27.6831 212.842 29.5267C212.373 30.6746 211.764 31.7703 211.033 32.7617C208.79 35.8228 205.503 37.9099 201.537 38.7969C200.198 39.0752 198.806 39.2143 197.415 39.2143ZM190.041 4.22055C185.832 6.39462 181.101 10.9167 179.536 16.4997C178.283 20.9696 179.17 25.509 182.179 29.9963C184.179 32.9878 187.032 35.2836 190.441 36.6402C197.711 39.5448 205.955 37.5968 210.059 31.9964C210.72 31.092 211.277 30.0832 211.729 29.0223C212.373 27.457 212.773 25.7177 212.912 23.8393C207.607 22.761 196.493 22.0827 196.371 22.0827C196.18 22.0653 195.989 21.9609 195.884 21.8044C193.728 18.4129 190.806 7.22946 190.041 4.22055Z" fill="#202D37"/>
<path d="M212.286 29.2824C211.816 30.4129 211.225 31.4565 210.547 32.3783C206.077 38.4832 197.432 40.1007 190.214 37.2309C192.249 29.5607 196.389 21.5078 196.389 21.5078L212.286 29.2824Z" fill="#FFFEF2"/>
<path d="M197.415 39.212C194.911 39.212 192.371 38.725 189.989 37.7858C189.71 37.6641 189.554 37.3684 189.623 37.0727C191.641 29.4199 195.815 21.3149 195.85 21.2279C196.007 20.9322 196.354 20.8105 196.667 20.967L212.547 28.7416C212.843 28.8807 212.965 29.2286 212.843 29.5243C212.373 30.6722 211.764 31.7679 211.034 32.7593C208.79 35.8204 205.503 37.9076 201.537 38.7946C200.198 39.0729 198.807 39.212 197.415 39.212ZM190.945 36.8466C198.094 39.4555 206.042 37.4727 210.06 32.0114C210.616 31.2461 211.103 30.4287 211.504 29.559L196.685 22.3062C195.746 24.1673 192.667 30.62 190.945 36.8466Z" fill="#202D37"/>
<path d="M193.746 1.77967C194.128 6.51051 198.024 18.4941 198.024 18.4941C198.024 18.4941 212.843 19.8334 215.278 19.816C215.278 6.12787 204.668 -1.89021 193.746 1.77967Z" fill="#FBD931"/>
<path d="M215.243 20.0972C212.704 20.0972 198.598 18.8275 197.99 18.7753C197.885 18.7579 197.798 18.6884 197.764 18.6014C197.607 18.1144 193.85 6.51341 193.468 1.81736C193.45 1.69561 193.537 1.59125 193.641 1.55647C198.668 -0.130634 203.903 0.582469 208.025 3.53924C212.791 6.96562 215.539 12.914 215.539 19.8537C215.539 19.9928 215.417 20.1146 215.278 20.1146C215.278 20.0972 215.261 20.0972 215.243 20.0972ZM198.216 18.2709C199.816 18.4101 212.147 19.5232 215.017 19.5754C214.948 12.914 212.304 7.24391 207.73 3.95667C203.816 1.13904 198.825 0.425934 194.024 1.97389C194.459 6.44384 197.764 16.8447 198.216 18.2709Z" fill="#FBD931"/>
<path d="M213.538 23.3862C213.364 27.0387 212.251 30.0477 210.547 32.3783C202.233 28.1345 196.406 21.5078 196.406 21.5078C196.406 21.5078 208.372 22.2035 213.538 23.3862Z" fill="#FFFEF2"/>
<path d="M210.546 32.9864C210.459 32.9864 210.355 32.969 210.268 32.9168C201.937 28.673 196.006 21.9594 195.936 21.9072C195.78 21.7159 195.745 21.455 195.849 21.2463C195.954 21.0202 196.197 20.8984 196.441 20.8984C196.928 20.9332 208.529 21.6115 213.677 22.7942C213.972 22.8638 214.164 23.1247 214.146 23.4204C213.972 27.0207 212.929 30.1688 211.033 32.7429C210.911 32.8994 210.737 32.9864 210.546 32.9864ZM197.902 22.2029C199.884 24.2031 204.476 28.4817 210.355 31.5776C211.833 29.4035 212.685 26.812 212.912 23.8552C208.789 23.0204 201.171 22.429 197.902 22.2029Z" fill="#202D37"/>
</svg>
