<svg width="75" height="75" viewBox="0 0 75 75" fill="none" xmlns="http://www.w3.org/2000/svg">
<circle cx="37.5" cy="37.5" r="37.5" fill="#0EA579" fill-opacity="0.1"/>
<path d="M41.3264 29.8464H40.3264H41.3264ZM36.204 43.622V42.622H34.204V43.622H36.204ZM45.153 32.673H44.153V34.673H45.153V32.673ZM40.3264 29.8464C40.3264 34.7888 36.3198 38.7954 31.3774 38.7954V40.7954C37.4244 40.7954 42.3264 35.8934 42.3264 29.8464H40.3264ZM31.3774 38.7954C26.4351 38.7954 22.4285 34.7888 22.4285 29.8464H20.4285C20.4285 35.8934 25.3305 40.7954 31.3774 40.7954V38.7954ZM22.4285 29.8464C22.4285 24.9041 26.4351 20.8975 31.3774 20.8975V18.8975C25.3305 18.8975 20.4285 23.7995 20.4285 29.8464H22.4285ZM31.3774 20.8975C33.7509 20.8975 36.0271 21.8403 37.7053 23.5186L39.1195 22.1043C37.0662 20.051 34.2813 18.8975 31.3774 18.8975V20.8975ZM37.7053 23.5186C39.3836 25.1968 40.3264 27.473 40.3264 29.8464H42.3264C42.3264 26.9426 41.1729 24.1577 39.1195 22.1043L37.7053 23.5186ZM34.204 43.622C34.204 49.6689 39.106 54.5709 45.153 54.5709V52.5709C40.2106 52.5709 36.204 48.5643 36.204 43.622H34.204ZM45.153 54.5709C51.1999 54.5709 56.1019 49.6689 56.1019 43.622H54.1019C54.1019 48.5643 50.0953 52.5709 45.153 52.5709V54.5709ZM56.1019 43.622C56.1019 37.575 51.1999 32.673 45.153 32.673V34.673C50.0953 34.673 54.1019 38.6796 54.1019 43.622H56.1019Z" fill="#0EA579"/>
<path d="M31.8776 23.7246V23.2246H30.8776V23.7246H31.8776ZM30.8776 35.9695V36.4695H31.8776V35.9695H30.8776ZM29.0191 32.9342L28.7542 32.5102L27.906 33.0399L28.1709 33.464L29.0191 32.9342ZM29.7047 34.194L29.9262 33.7457L29.9218 33.7436L29.7047 34.194ZM31.3776 34.5782L31.3855 34.0781L31.3739 34.0782L31.3776 34.5782ZM33.5419 33.8848L33.2655 33.4681L33.245 33.4825L33.5419 33.8848ZM33.5419 30.5404L33.245 30.9427L33.2655 30.9571L33.5419 30.5404ZM29.2133 29.1537L29.5103 28.7513L29.5023 28.7457L29.2133 29.1537ZM28.3164 27.4823L27.8166 27.4674L27.8166 27.4975L28.3164 27.4823ZM29.2133 25.8093L29.5024 26.2174L29.5102 26.2116L29.2133 25.8093ZM31.3776 25.1159L31.3698 25.616L31.3796 25.6159L31.3776 25.1159ZM32.6848 25.3425L32.5147 25.8126L32.5164 25.8133L32.6848 25.3425ZM33.3778 26.3267L33.7498 26.6608L34.4179 25.9167L34.0459 25.5827L33.3778 26.3267ZM30.8776 23.7246V35.9695H31.8776V23.7246H30.8776ZM28.1709 33.464C28.4894 33.9739 28.9459 34.3832 29.4875 34.6444L29.9218 33.7436C29.5505 33.5646 29.2375 33.2839 29.0191 32.9342L28.1709 33.464ZM29.4832 34.6423C30.0732 34.9338 30.7233 35.083 31.3813 35.0782L31.3739 34.0782C30.872 34.0819 30.3762 33.9681 29.9261 33.7457L29.4832 34.6423ZM31.3698 35.0781C32.2572 35.092 33.1247 34.8141 33.8388 34.2871L33.245 33.4825C32.7072 33.8794 32.0538 34.0887 31.3855 34.0782L31.3698 35.0781ZM33.8183 34.3015C34.5184 33.8371 34.9393 33.0528 34.9393 32.2126H33.9393C33.9393 32.7176 33.6864 33.189 33.2655 33.4681L33.8183 34.3015ZM34.9393 32.2126C34.9393 31.3725 34.5184 30.5882 33.8183 30.1238L33.2655 30.9571C33.6864 31.2362 33.9393 31.7076 33.9393 32.2126H34.9393ZM33.8388 30.1381C33.1247 29.6111 32.2572 29.3332 31.3698 29.3471L31.3855 30.347C32.0538 30.3365 32.7072 30.5458 33.245 30.9427L33.8388 30.1381ZM31.3698 29.3471C30.7014 29.3576 30.0481 29.1483 29.5102 28.7514L28.9164 29.556C29.6306 30.083 30.498 30.3609 31.3855 30.347L31.3698 29.3471ZM29.5023 28.7457C29.0857 28.4506 28.8317 27.9773 28.8162 27.467L27.8166 27.4975C27.8417 28.3212 28.2518 29.0854 28.9244 29.5617L29.5023 28.7457ZM28.8162 27.4971C28.8314 26.9865 29.0854 26.5126 29.5023 26.2173L28.9244 25.4013C28.2513 25.878 27.8411 26.643 27.8166 27.4674L28.8162 27.4971ZM29.5102 26.2116C30.0481 25.8147 30.7014 25.6054 31.3698 25.6159L31.3855 24.616C30.498 24.6021 29.6306 24.88 28.9164 25.407L29.5102 26.2116ZM31.3796 25.6159C31.7666 25.6144 32.1508 25.681 32.5147 25.8126L32.8549 24.8723C32.3807 24.7007 31.8799 24.6139 31.3756 24.6159L31.3796 25.6159ZM32.5164 25.8133C32.8341 25.9269 33.1267 26.1013 33.3778 26.3267L34.0459 25.5827C33.6982 25.2705 33.2931 25.029 32.8531 24.8717L32.5164 25.8133Z" fill="#0EA579"/>
</svg>
