<svg width="75" height="75" viewBox="0 0 75 75" fill="none" xmlns="http://www.w3.org/2000/svg">
<circle cx="37.5" cy="37.5" r="37.5" fill="#0EA579" fill-opacity="0.1"/>
<path d="M28.8407 39.5128L28.5578 38.5536L26.6395 39.1194L26.9224 40.0786L28.8407 39.5128ZM36.9627 47.4794L37.2831 48.4266L37.0829 46.4866L36.9627 47.4794ZM30.1709 48.7208L29.2236 49.0412L29.8644 50.9358L30.8117 50.6154L30.1709 48.7208ZM46.3596 24.7481L47.3069 24.4277L46.6661 22.5331L45.7189 22.8535L46.3596 24.7481ZM39.5678 25.9896L39.2474 25.0423L39.4476 26.9823L39.5678 25.9896ZM47.6898 33.9561L47.9727 34.9153L49.891 34.3495L49.6081 33.3903L47.6898 33.9561ZM26.9224 40.0786C28.2577 44.6055 32.157 47.9048 36.8425 48.4721L37.0829 46.4866C33.1899 46.0152 29.9501 43.274 28.8407 39.5128L26.9224 40.0786ZM36.6423 46.5321L30.1709 48.7208L30.8117 50.6154L37.2831 48.4266L36.6423 46.5321ZM45.7189 22.8535L39.2474 25.0423L39.8882 26.9368L46.3596 24.7481L45.7189 22.8535ZM39.4476 26.9823C43.3406 27.4537 46.5804 30.1949 47.6898 33.9561L49.6081 33.3903C48.2728 28.8634 44.3735 25.5641 39.688 24.9968L39.4476 26.9823Z" fill="#0EA579"/>
<circle cx="47.4489" cy="45.9183" r="6.12245" stroke="#0EA579" stroke-width="2" stroke-linecap="square" stroke-linejoin="bevel"/>
<path d="M30.0817 19.8213V18.8213H28.0817V19.8213H30.0817ZM28.0817 35.1274V36.1274H30.0817V35.1274H28.0817ZM26.4497 31.1337L25.9183 30.2866L24.224 31.3495L24.7555 32.1966L26.4497 31.1337ZM26.9908 32.908L27.4335 32.0113L27.4257 32.0075L26.9908 32.908ZM29.0817 33.3886L29.0967 32.3887L29.075 32.3887L29.0817 33.3886ZM31.7878 32.5223L31.2087 31.707L31.1948 31.7171L31.7878 32.5223ZM32.9082 30.4315L33.9077 30.4622L33.9077 30.4017L32.9082 30.4315ZM31.7878 28.3407L31.1941 29.1454L31.2094 29.1564L31.7878 28.3407ZM26.3755 26.608L26.9692 25.8033L26.9539 25.7923L26.3755 26.608ZM25.2551 24.5172L24.2556 24.4865L24.2556 24.547L25.2551 24.5172ZM26.3755 22.4264L26.9546 23.2417L26.9685 23.2316L26.3755 22.4264ZM29.0817 21.5601L29.0666 22.56L29.0844 22.5601L29.0817 21.5601ZM30.7164 21.8432L30.3774 22.784L30.378 22.7843L30.7164 21.8432ZM31.3315 23.3532L32.0762 24.0206L33.4111 22.5313L32.6665 21.8639L31.3315 23.3532ZM28.0817 19.8213V35.1274H30.0817V19.8213H28.0817ZM24.7555 32.1966C25.1921 32.8926 25.8162 33.4513 26.556 33.8085L27.4257 32.0075C27.0246 31.8139 26.6864 31.511 26.4497 31.1337L24.7555 32.1966ZM26.5482 33.8047C27.3379 34.1945 28.2077 34.3945 29.0883 34.3886L29.075 32.3887C28.5059 32.3925 27.9438 32.2633 27.4335 32.0113L26.5482 33.8047ZM29.0666 34.3885C30.2576 34.4064 31.4216 34.0338 32.3807 33.3276L31.1948 31.7171C30.5876 32.1642 29.8507 32.4001 29.0967 32.3887L29.0666 34.3885ZM32.3669 33.3376C33.3023 32.6732 33.8725 31.609 33.9077 30.4622L31.9087 30.4008C31.8927 30.9218 31.6336 31.4052 31.2087 31.707L32.3669 33.3376ZM33.9077 30.4017C33.8735 29.2541 33.3028 28.189 32.3662 27.5249L31.2094 29.1564C31.6342 29.4577 31.8931 29.9408 31.9086 30.4613L33.9077 30.4017ZM32.3815 27.536C31.4224 26.8284 30.2574 26.4554 29.0657 26.4745L29.0976 28.4742C29.8511 28.4622 30.5877 28.698 31.1941 29.1454L32.3815 27.536ZM29.0657 26.4745C28.3122 26.4865 27.5756 26.2507 26.9692 25.8033L25.7819 27.4127C26.7409 28.1203 27.9059 28.4933 29.0976 28.4742L29.0657 26.4745ZM26.9539 25.7923C26.5291 25.491 26.2702 25.0079 26.2547 24.4874L24.2556 24.547C24.2898 25.6946 24.8605 26.7597 25.7972 27.4238L26.9539 25.7923ZM26.2547 24.5479C26.2706 24.0269 26.5297 23.5435 26.9546 23.2417L25.7965 21.6111C24.861 22.2755 24.2908 23.3397 24.2556 24.4865L26.2547 24.5479ZM26.9685 23.2316C27.5757 22.7845 28.3126 22.5486 29.0666 22.56L29.0967 20.5602C27.9058 20.5423 26.7417 20.9149 25.7826 21.6211L26.9685 23.2316ZM29.0844 22.5601C29.5252 22.5589 29.9627 22.6347 30.3774 22.784L31.0553 20.9024C30.4215 20.6741 29.7526 20.5582 29.0789 20.5601L29.0844 22.5601ZM30.378 22.7843C30.7296 22.9106 31.0534 23.1038 31.3315 23.3532L32.6665 21.8639C32.1962 21.4424 31.6489 21.1158 31.0547 20.9022L30.378 22.7843Z" fill="#0EA579"/>
</svg>
