<svg width="240" height="142" viewBox="0 0 240 142" fill="none" xmlns="http://www.w3.org/2000/svg">
<path d="M170.265 112.41C158.683 120.542 137.965 128.414 114.591 131.832C84.267 136.254 49.4888 133.209 24.3811 113.544C22.907 112.394 21.4653 111.179 20.056 109.915C-29.5276 65.0616 21.8055 -8.38256 76.7347 22.6376C111.983 42.5456 128.797 49.8026 174.46 27.724C211.555 9.7922 237.051 65.4503 170.265 112.41Z" fill="#0EA579"/>
<path d="M238.347 15.7219C236.5 7.07191 205.529 2.45533 195.34 1.75879C185.151 1.06225 173.423 1.61301 173.699 9.01573C173.974 16.4185 174.962 39.307 175.173 56.769C173.31 56.0886 171.382 55.5055 169.357 55.1005C169.487 53.9828 169.843 52.6384 170.718 51.3425C172.257 49.0423 172.532 46.2561 171.722 45.9322C170.021 43.0326 161.744 42.9516 158.877 44.2151L157.662 44.8469C157.338 44.4905 157.03 44.3123 156.431 44.5553C154.552 45.2842 157.046 50.2896 158.65 52.4116C159.266 53.2377 159.654 53.8857 159.897 54.485C159.654 54.5012 159.395 54.5174 159.152 54.5498C151.377 55.3273 150.664 59.5065 154.536 61.5637C152.64 62.4385 152.106 64.5443 155.232 66.8931C153.386 67.541 153.013 69.582 154.455 70.8779C154.827 71.2019 155.362 71.5258 155.994 71.8174C153.386 72.8865 153.774 74.8951 157.127 76.3854C157.387 76.4988 157.646 76.596 157.905 76.6932C154.73 85.5214 144.428 98.464 146.777 114.76C149.125 131.072 159.314 134.068 167.575 133.404C172.629 132.999 178.882 129.711 182.98 124.301C182.98 124.301 216.041 139.122 223.72 140.24C231.398 141.358 233.503 138.28 235.172 133.485C236.808 128.707 241.392 30.009 238.347 15.7219Z" fill="#FFFEF2"/>
<path d="M218.925 128.673C217.321 128.673 215.054 128.025 211.814 126.697C201.269 122.355 186.641 117.156 186.496 117.107C186.204 117.01 186.042 116.686 186.155 116.378C186.253 116.086 186.577 115.924 186.884 116.038C187.03 116.086 201.69 121.302 212.251 125.66C216.641 127.474 219.136 127.96 220.334 127.247C221.468 126.567 221.663 124.575 221.938 121.821C222.003 121.189 222.068 120.541 222.149 119.861C224.092 103.144 226.231 49.3162 225.129 35.92C224.611 29.6674 223.963 26.3305 221.646 24.2571C219.33 22.1998 215.28 21.2603 207.942 19.5433L204.249 18.6848C191.744 15.769 182.705 13.647 180.113 15.7042C179.611 16.1092 179.368 16.66 179.368 17.4537V58.3064C179.368 58.6141 179.109 58.8733 178.801 58.8733C178.494 58.8733 178.234 58.6141 178.234 58.3064V17.4051C178.234 16.2712 178.623 15.3803 179.401 14.7647C182.414 12.3673 191.209 14.4246 204.492 17.5347L208.185 18.3932C215.718 20.1426 219.848 21.0983 222.392 23.3661C225 25.6825 225.712 29.2138 226.247 35.7904C227.348 49.2352 225.21 103.209 223.25 119.958C223.169 120.638 223.104 121.286 223.039 121.902C222.732 124.979 222.521 127.215 220.885 128.187C220.367 128.511 219.735 128.673 218.925 128.673Z" fill="#202D37"/>
<path d="M226.587 141.048C225.68 141.048 224.692 140.967 223.607 140.805C215.945 139.688 184.066 125.433 182.722 124.834C182.43 124.704 182.301 124.364 182.43 124.088C182.56 123.797 182.9 123.667 183.175 123.797C183.499 123.943 216.253 138.586 223.769 139.688C231.366 140.789 233.115 137.598 234.606 133.305C235.416 130.989 236.971 105.217 237.943 78.1332C239.125 45.1368 239.076 21.8433 237.781 15.8175C237.035 12.351 230.831 9.04648 219.833 6.29273C211.166 4.12213 201.042 2.69666 195.292 2.30789C185.038 1.61136 178.445 2.59947 175.708 5.23983C174.671 6.24414 174.201 7.45903 174.25 8.98169C174.282 10.0184 174.347 11.3629 174.412 12.9503C174.801 23.0096 175.546 41.7351 175.74 56.7511C175.74 57.0589 175.497 57.3181 175.173 57.3181C174.866 57.3181 174.606 57.0751 174.606 56.7511C174.412 41.7513 173.683 23.042 173.278 12.9827C173.213 11.3953 173.165 10.0508 173.116 9.01409C173.051 7.18365 173.651 5.64479 174.914 4.4299C177.927 1.49797 184.617 0.445063 195.357 1.174C203.505 1.72475 236.841 6.04975 238.882 15.5907C240.761 24.4027 239.627 62.3072 239.06 78.1818C238.169 102.804 236.598 130.989 235.659 133.678C234.881 135.897 233.893 138.149 231.982 139.542C230.605 140.562 228.855 141.048 226.587 141.048Z" fill="#202D37"/>
<path d="M174.947 81.7464C173.683 79.2032 172.582 76.3037 171.772 72.821C169.666 71.1363 168.484 68.5446 168.111 64.6569C168.111 64.6569 165.697 64.7865 163.478 64.5273C166.362 66.2444 166.086 69.2249 163.17 69.6623L163.219 69.9862C164.013 70.294 164.321 72.416 162.863 72.983C166.362 76.3685 162.28 78.2475 157.906 76.6924C154.731 85.5206 144.429 98.4633 146.778 114.759C149.126 131.071 159.315 134.068 167.576 133.403C172.63 132.999 178.883 129.71 182.981 124.3C184.682 122.065 186.01 119.457 186.723 116.541C187.112 114.986 187.322 113.35 187.322 111.616C187.274 96.6004 179.952 91.8705 174.947 81.7464Z" fill="#06D188"/>
<path d="M138.548 88.2254C137.998 89.8777 130.19 90.6552 127.258 90.882L127.29 91.3355C129.817 91.3355 135.6 91.5299 135.6 93.2956C135.584 95.4986 126.61 95.3204 126.61 95.3204C124.002 100.698 118.397 101.33 118.171 101.362C117.944 101.395 117.312 103.144 117.134 104.035C118.252 104.375 118.932 104.521 118.932 104.521C118.932 104.521 117.944 107.275 117.328 109.364C116.713 111.454 116.502 112.993 117.701 114.435C119.418 116.492 117.263 124.381 114.591 131.848C84.267 136.27 49.4888 133.225 24.3811 113.56C31.9134 93.1984 43.544 80.4339 46.0385 75.5096C46.6865 74.2461 48.2901 60.3964 47.5126 51.9407C45.2448 52.9288 40.7902 53.8684 38.6034 51.5034C35.7039 48.3447 39.8021 43.9549 43.5925 44.8134H43.6088C43.6411 44.8296 43.6897 44.8296 43.7221 44.8458C44.9208 45.1698 45.7956 46.1903 46.2329 47.1298C46.8161 48.3933 48.6627 49.4786 49.0677 46.9354C49.4726 44.3922 50.6065 44.1006 51.1411 43.6957C51.6918 43.2907 52.2102 40.7799 51.1411 39.8728C52.6475 40.2778 54.9315 39.1763 54.7209 36.6655C56.114 37.8156 59.4995 37.6212 60.5686 34.9971C61.9293 36.3577 63.4357 36.3577 64.5858 35.807C73.3168 40.375 81.9831 45.4937 81.9345 46.1903C81.8859 46.9354 71.373 51.3576 71.373 51.2604C71.373 51.1632 70.7899 74.4729 71.1138 75.7202C76.6051 81.584 83.8945 91.0764 89.7907 115.941C89.7907 115.973 89.8069 115.99 89.8069 116.022C89.8231 116.119 89.8555 116.216 89.8717 116.314C90.7141 119.732 92.7389 122.696 96.1244 116.2C96.1244 116.2 96.1244 116.249 96.1244 116.33C98.8133 111.146 101.421 107.08 102.636 107.323C102.636 107.323 103.624 102.545 105.228 97.4262C106.151 94.4942 107.285 91.4651 108.549 89.1649C113.732 79.7374 119.304 76.0117 127.161 73.8087C136.038 71.298 137.981 75.7526 125.395 81.7622C129.672 80.7255 135.406 80.3529 136.831 81.9404C138.953 84.3054 131.372 85.7794 127.728 86.2978C133.867 85.9414 139.245 86.1844 138.548 88.2254Z" fill="#FFFEF2"/>
<path d="M21.8225 121.984C21.7739 121.984 21.7253 121.984 21.6605 121.968C21.3527 121.887 21.1907 121.563 21.2717 121.272C26.6496 102.319 36.0933 88.9718 41.7304 81.0021C43.4799 78.5237 44.8729 76.5637 45.5371 75.2516C46.0392 74.2473 47.6591 61.4343 47.0112 52.7519C44.5814 53.6266 40.4022 54.3069 38.183 51.8934C36.7899 50.3869 36.6765 48.3621 37.8914 46.6288C39.1711 44.7984 41.9248 43.4377 44.5166 44.523C44.8082 44.6364 44.9377 44.9766 44.8244 45.2682C44.711 45.5597 44.3708 45.6893 44.0792 45.5759C42.0382 44.7174 39.8352 45.8189 38.8147 47.2768C38.3773 47.8923 37.535 49.5122 39.0091 51.1158C40.8881 53.1568 44.9863 52.4117 47.2865 51.4074C47.4485 51.3426 47.6429 51.3426 47.8049 51.4398C47.9669 51.537 48.0641 51.699 48.0803 51.8772C48.8416 60.1384 47.3189 74.2311 46.5576 75.7538C45.8611 77.1469 44.4518 79.1231 42.67 81.65C37.0653 89.5549 27.7025 102.805 22.3732 121.563C22.2922 121.822 22.0654 121.984 21.8225 121.984Z" fill="#202D37"/>
<path d="M40.3532 49.8185C40.1264 49.8185 39.9158 49.6889 39.8348 49.4621C39.7214 49.1705 39.8672 48.8465 40.1426 48.7169C42.297 47.8584 43.5929 47.8584 44.2247 47.8584C44.5325 47.8584 44.7916 48.1176 44.7916 48.4254C44.7916 48.7331 44.5325 48.9923 44.2247 48.9923C43.6253 48.9923 42.5076 48.9923 40.5638 49.7699C40.4828 49.8023 40.418 49.8185 40.3532 49.8185Z" fill="#202D37"/>
<path d="M58.6409 46.6275C58.2683 46.6275 57.9443 46.3197 57.9443 45.931V44.1653C57.9443 43.7927 58.2521 43.4688 58.6409 43.4688C59.0135 43.4688 59.3374 43.7765 59.3374 44.1653V45.931C59.3374 46.3035 59.0297 46.6275 58.6409 46.6275Z" fill="#202D37"/>
<path d="M64.5212 44.5537C64.1487 44.5537 63.8247 44.2459 63.8247 43.8571V42.1077C63.8247 41.7351 64.1325 41.4111 64.5212 41.4111C64.8938 41.4111 65.2178 41.7189 65.2178 42.1077V43.8733C65.2178 44.2459 64.91 44.5537 64.5212 44.5537Z" fill="#202D37"/>
<path d="M58.8684 53.9345C58.8684 53.9345 58.8522 53.9345 58.8684 53.9345C56.0822 53.8697 54.0249 52.0878 53.4741 49.253C53.4093 48.9453 53.6199 48.6537 53.9277 48.5889C54.2355 48.5241 54.5271 48.7347 54.5919 49.0425C55.0454 51.3589 56.6491 52.752 58.8845 52.8006C59.1923 52.8006 59.4515 53.0597 59.4353 53.3837C59.4353 53.6915 59.1761 53.9345 58.8684 53.9345Z" fill="#202D37"/>
<path d="M91.2162 122.973C90.957 122.973 90.7141 122.795 90.6655 122.52C84.8502 94.1883 77.3017 83.1409 70.7089 76.0945C70.6441 76.0297 70.5955 75.9488 70.5793 75.8516C70.5145 75.6248 70.3525 75.0092 70.5793 63.0061C70.6279 59.896 70.7089 56.8831 70.7413 54.8907C70.7737 53.7892 70.7899 52.8821 70.8061 52.2341C70.8223 51.7968 70.8223 51.5214 70.8385 51.327C70.8385 51.2946 70.8385 51.2784 70.8385 51.246H70.8547C70.8871 50.9544 70.9357 50.9058 71.0491 50.8086C71.13 50.7439 71.2272 50.6953 71.3244 50.6791C72.2477 50.3875 79.6343 47.1802 81.2217 46.1111C79.6181 44.718 71.0977 39.7127 62.0427 35.0799C61.7673 34.9341 61.6539 34.5939 61.7997 34.3186C61.9455 34.0432 62.2857 33.9298 62.561 34.0756C67.0804 36.3758 72.0858 39.1295 75.9896 41.4135C82.6148 45.3012 82.5824 45.7871 82.55 46.2083C82.5176 46.6294 82.4852 47.0182 76.9939 49.5128C76.9453 49.529 73.4302 51.1164 71.9886 51.651C71.9076 54.6801 71.4702 73.4056 71.697 75.4466C78.387 82.6225 85.9841 93.8481 91.8156 122.293C91.8804 122.601 91.686 122.892 91.3782 122.957C91.2972 122.973 91.2648 122.973 91.2162 122.973Z" fill="#202D37"/>
<path d="M62.334 84.7093C60.9733 84.7093 58.7703 84.0452 56.2595 82.8465C53.8783 81.7288 50.1203 79.6068 45.6819 75.9297C45.4389 75.7353 45.4065 75.3789 45.6009 75.136C45.7953 74.893 46.1516 74.8606 46.3946 75.055C54.2995 81.6154 60.8761 83.8184 62.6417 83.543C64.0186 83.3324 68.295 78.4081 70.6762 75.3465C70.8706 75.1036 71.2269 75.055 71.4699 75.2494C71.7129 75.4437 71.7615 75.8001 71.5671 76.0431C70.498 77.42 65.0391 84.3205 62.8199 84.6607C62.6741 84.7093 62.4959 84.7093 62.334 84.7093Z" fill="#202D37"/>
<path d="M66.4161 94.1378C67.0334 94.1378 67.5338 93.6373 67.5338 93.0201C67.5338 92.4028 67.0334 91.9023 66.4161 91.9023C65.7988 91.9023 65.2983 92.4028 65.2983 93.0201C65.2983 93.6373 65.7988 94.1378 66.4161 94.1378Z" fill="#202D37"/>
<path d="M66.627 105.136C66.627 105.59 67.0967 105.979 67.6799 105.979C68.263 105.979 68.7328 105.606 68.7328 105.136C68.7328 104.667 68.263 104.294 67.6799 104.294C67.0967 104.294 66.627 104.667 66.627 105.136Z" fill="#202D37"/>
<path d="M67.9062 117.82C67.5012 118.047 67.4202 118.647 67.7118 119.149C68.0033 119.651 68.5541 119.861 68.9591 119.635C69.364 119.408 69.445 118.809 69.1535 118.306C68.8619 117.804 68.3111 117.594 67.9062 117.82Z" fill="#202D37"/>
<path d="M51.1086 90.5271C50.8332 90.5271 50.5578 90.4785 50.2986 90.3813C48.5006 89.7334 47.5934 86.9796 46.4433 83.513C46.1355 82.6059 45.8278 81.6664 45.4876 80.7107C45.3742 80.4191 45.5362 80.0951 45.8278 79.9817C46.1193 79.8683 46.4433 80.0303 46.5567 80.3219C46.9131 81.2938 47.2209 82.2333 47.5286 83.1567C48.533 86.202 49.4077 88.8424 50.6874 89.3122C51.141 89.4742 51.6755 89.3608 52.3397 88.9558C54.4293 87.6599 56.9563 85.4245 56.9887 85.3921C57.2155 85.1815 57.5881 85.1977 57.7824 85.4407C57.993 85.6675 57.9768 86.0401 57.7339 86.2344C57.6205 86.3316 55.1097 88.567 52.9228 89.9115C52.3073 90.3165 51.6917 90.5271 51.1086 90.5271Z" fill="#202D37"/>
<path d="M73.2356 87.6571C72.2961 87.6571 70.5467 87.1549 66.9343 85.0491C66.659 84.8871 66.578 84.5469 66.7238 84.2716C66.8857 83.9962 67.2259 83.9152 67.5013 84.061C72.1989 86.7986 73.349 86.5556 73.5272 86.4746C73.5758 86.4584 73.592 86.4422 73.592 86.3936C73.9646 84.9195 74.4668 80.3029 74.4668 80.2543C74.4992 79.9465 74.7745 79.7197 75.0985 79.7521C75.4063 79.7845 75.6331 80.0599 75.6007 80.3839C75.5845 80.5782 75.0823 85.1301 74.6935 86.669C74.5963 87.0739 74.3372 87.3655 73.9646 87.5275C73.7864 87.6085 73.5596 87.6571 73.2356 87.6571Z" fill="#202D37"/>
<path d="M65.8171 122.972C65.8009 122.972 65.8009 122.972 65.7847 122.972C65.4769 122.956 65.234 122.697 65.2502 122.373C65.3473 120.624 65.3797 115.813 64.4888 114.517C63.4521 113.027 62.8042 110.581 64.1001 108.232C65.234 106.207 64.4888 103.923 63.6141 101.947C62.5612 99.5818 62.6746 93.4587 63.1282 88.5182C63.1605 88.2104 63.4359 87.9836 63.7437 87.9998C64.0515 88.0322 64.2782 88.3076 64.262 88.6154C63.7113 94.6412 63.8571 99.6952 64.6508 101.477C65.6389 103.696 66.4488 106.304 65.0882 108.766C64.0353 110.662 64.5698 112.638 65.4121 113.853C66.6918 115.699 66.4164 121.725 66.384 122.406C66.3678 122.746 66.1087 122.972 65.8171 122.972Z" fill="#202D37"/>
<path d="M94.9582 119.293C94.8772 119.293 94.8124 119.277 94.7315 119.244C94.4399 119.115 94.3103 118.791 94.4399 118.499C95.5414 115.924 97.1126 112.992 98.6515 110.659C100.531 107.825 101.567 107.015 102.167 106.788C102.636 104.633 104.888 94.6227 108.063 88.8722C113.619 78.7644 119.661 75.3141 127.015 73.2407C131.259 72.042 134.175 72.3174 134.79 73.9696C135.568 76.043 132.15 79.1369 125.654 82.2633C125.379 82.3928 125.039 82.2794 124.893 82.0041C124.764 81.7287 124.877 81.3885 125.152 81.2427C132.085 77.922 134.078 75.3141 133.721 74.3746C133.478 73.7266 131.518 73.1435 127.307 74.3422C120.228 76.3346 114.413 79.6715 109.051 89.423C105.649 95.6108 103.219 107.306 103.203 107.42C103.138 107.711 102.863 107.906 102.572 107.873C102.329 107.922 101.34 108.634 99.4776 111.502C98.0198 113.753 96.5295 116.539 95.4928 118.953C95.3794 119.164 95.185 119.293 94.9582 119.293Z" fill="#202D37"/>
<path d="M114.251 112.977C114.202 112.977 114.17 112.977 114.121 112.961C106.022 111.001 102.426 107.858 102.28 107.729C102.053 107.518 102.021 107.162 102.231 106.935C102.442 106.708 102.798 106.676 103.025 106.886C103.074 106.935 106.605 109.98 114.381 111.859C114.688 111.94 114.866 112.232 114.802 112.54C114.737 112.815 114.494 112.977 114.251 112.977Z" fill="#202D37"/>
<path d="M117.588 122.972C117.539 122.972 117.49 122.972 117.442 122.956C117.134 122.875 116.956 122.567 117.037 122.259C118.446 117.06 118.041 116.055 117.231 114.727C116.065 112.848 116.211 111.212 116.794 109.187C117.231 107.697 117.863 105.85 118.187 104.911C116.195 104.408 109.926 102.529 104.839 97.8319C104.613 97.6213 104.596 97.2649 104.807 97.0381C105.018 96.8114 105.374 96.7952 105.601 97.0057C111.367 102.335 118.965 103.939 119.029 103.955C119.191 103.987 119.337 104.084 119.402 104.23C119.483 104.376 119.499 104.538 119.434 104.7C119.418 104.732 118.446 107.47 117.847 109.511C117.231 111.601 117.312 112.767 118.155 114.128C119.305 116.007 119.467 117.481 118.09 122.551C118.057 122.81 117.831 122.972 117.588 122.972Z" fill="#202D37"/>
<path d="M117.134 104.602C117.101 104.602 117.053 104.602 117.02 104.586C116.712 104.521 116.518 104.213 116.583 103.922C116.68 103.468 116.891 102.788 117.117 102.189C117.49 101.184 117.733 100.86 118.105 100.812C118.689 100.747 123.726 99.9855 126.108 95.0773C126.205 94.8829 126.399 94.7533 126.626 94.7533C129.283 94.8019 133.883 94.5103 134.904 93.5222C135.033 93.3926 135.033 93.3116 135.033 93.2792C135.033 93.2468 135.033 93.1658 134.904 93.0524C133.867 92.0481 128.991 91.8213 126.156 91.9023C125.848 91.9023 125.589 91.6593 125.573 91.3516C125.557 91.0438 125.816 90.7846 126.124 90.7684C126.918 90.736 133.98 90.5578 135.697 92.2263C136.086 92.5989 136.167 93.0038 136.167 93.263C136.167 93.5222 136.086 93.9272 135.697 94.2997C134.175 95.79 128.57 95.871 126.966 95.8548C124.472 100.633 119.661 101.67 118.478 101.865C118.267 102.253 117.862 103.387 117.7 104.116C117.636 104.424 117.409 104.602 117.134 104.602Z" fill="#202D37"/>
<path d="M126.044 92.8112C125.995 92.8112 125.947 92.8112 125.898 92.795C125.59 92.714 125.412 92.4062 125.493 92.0984C125.72 91.2075 125.655 86.8662 124.699 83.6264C124.618 83.3187 124.78 83.0109 125.088 82.9299C125.38 82.8489 125.704 83.0109 125.785 83.3187C126.757 86.5908 126.886 91.2237 126.595 92.39C126.514 92.6492 126.287 92.8112 126.044 92.8112Z" fill="#202D37"/>
<path d="M125.866 87.0598C125.817 87.0598 125.785 87.0598 125.769 87.0598C125.526 87.0112 125.347 86.8168 125.315 86.5738C125.266 86.266 125.493 85.9744 125.801 85.9259C125.85 85.9259 125.882 85.9259 125.931 85.9259C126.271 85.9097 128.684 85.6343 131.276 85.0835C135.763 84.1116 136.508 83.1559 136.622 82.8805C136.654 82.7995 136.735 82.6375 136.427 82.3135C135.115 80.8556 128.296 81.374 123.841 82.7833C123.549 82.8805 123.225 82.7185 123.128 82.4107C123.031 82.1191 123.193 81.7952 123.501 81.698C127.389 80.4507 135.31 79.3492 137.286 81.5522C138.031 82.3945 137.804 83.1235 137.594 83.4798C137.367 83.8848 136.687 85.0997 131.228 86.2498C129.089 86.7034 126.465 87.0598 125.866 87.0598ZM126.417 86.3308C126.417 86.347 126.433 86.3794 126.433 86.4118C126.417 86.3794 126.417 86.3632 126.417 86.3308ZM125.963 85.942C126.012 85.9582 126.06 85.9745 126.109 85.9907C126.076 85.9583 126.012 85.942 125.963 85.942Z" fill="#202D37"/>
<path d="M126.14 91.5312C125.849 91.5312 125.59 91.3044 125.574 90.9966C125.557 90.6888 125.8 90.4134 126.108 90.3972C126.14 90.3972 129.056 90.2191 132.021 89.7979C137.642 88.988 138.014 88.0808 138.014 88.0484C138.079 87.8702 138.03 87.7892 137.982 87.7244C137.674 87.3195 136.054 86.4123 127.744 86.8659C127.436 86.8821 127.161 86.6391 127.145 86.3313C127.129 86.0236 127.372 85.7482 127.679 85.732C136.459 85.246 138.273 86.2504 138.889 87.0441C139.197 87.4491 139.261 87.9188 139.083 88.421C138.824 89.1661 137.82 90.1219 132.166 90.9318C129.17 91.3692 126.205 91.5474 126.173 91.5474C126.173 91.5312 126.157 91.5312 126.14 91.5312Z" fill="#202D37"/>
<path d="M117.134 99.7595C116.956 99.7595 116.778 99.6785 116.664 99.5165C116.486 99.2573 116.551 98.9009 116.81 98.7227C118.9 97.281 120.115 95.6288 120.406 93.7983C120.795 91.3847 119.548 89.1007 118.43 87.6266C118.333 87.497 118.3 87.3188 118.333 87.173C118.365 87.011 118.478 86.8814 118.608 86.8004C120.406 85.8285 123.192 83.7389 123.063 82.3134C123.046 82.1514 122.917 82.0218 122.658 81.9246C121.281 81.3415 117.604 81.9246 114.251 84.5812C114.008 84.7756 113.651 84.727 113.457 84.484C113.262 84.241 113.311 83.8847 113.554 83.6903C117.053 80.9203 121.232 80.078 123.111 80.8717C123.759 81.1471 124.148 81.6168 124.197 82.2162C124.391 84.4192 121.103 86.6384 119.71 87.4808C120.843 89.1331 121.945 91.4819 121.524 94.0089C121.184 96.1471 119.807 98.0586 117.442 99.6785C117.361 99.7271 117.247 99.7595 117.134 99.7595Z" fill="#202D37"/>
<path d="M159.477 63.2636C154.455 63.1341 151.75 60.85 151.669 58.6794C151.604 56.7841 153.516 54.5487 159.088 53.9818C159.347 53.9494 159.59 53.9332 159.849 53.917C160.157 53.8846 160.433 54.1275 160.465 54.4353C160.497 54.7431 160.254 55.0185 159.947 55.0509C159.704 55.0671 159.461 55.0833 159.218 55.1157C154.423 55.6016 152.771 57.3187 152.819 58.647C152.884 60.2507 155.249 62.0325 159.509 62.1459C159.817 62.1621 160.076 62.4213 160.06 62.7291C160.044 63.0207 159.785 63.2636 159.477 63.2636Z" fill="#202D37"/>
<path d="M205.821 68.0267C202.047 68.0267 198.613 67.6704 195.535 66.9414C191.226 65.9209 188.845 64.4631 187.841 63.8313C187.76 63.7827 187.695 63.7503 187.63 63.7017C182.155 60.4134 176.226 57.0765 169.261 55.6511C168.953 55.5863 168.759 55.2947 168.823 54.9869C168.888 54.6791 169.18 54.4848 169.488 54.5496C176.631 56.0236 182.657 59.4091 188.213 62.746C188.278 62.7784 188.343 62.827 188.424 62.8756C194.45 66.5851 203.245 67.7352 214.552 66.3097C214.86 66.2773 215.151 66.4879 215.184 66.7957C215.216 67.1034 215.005 67.395 214.698 67.4274C211.571 67.8324 208.607 68.0267 205.821 68.0267Z" fill="#202D37"/>
<path d="M159.898 54.4842C160.27 55.4237 160.27 56.2661 160.222 57.562L159.849 57.6429C162.7 58.9065 166.879 58.2747 166.879 58.2747C167.884 58.0155 168.807 57.8373 169.455 57.7239C169.455 57.7239 169.196 56.6224 169.374 55.0997C169.503 53.982 169.86 52.6375 170.735 51.3416C172.29 49.0414 173.1 47.0976 172.354 45.1051C171.172 41.9463 160.481 40.1159 155.978 44.8135C154.746 46.1094 155.508 48.928 158.65 52.3945C159.347 53.1721 159.655 53.8848 159.898 54.4842Z" fill="#06D188"/>
<path d="M162.393 70.2785C161.016 70.2785 159.266 69.8412 157.209 68.7721C153.208 66.6986 152.398 64.7872 152.414 63.5561C152.43 62.4869 153.111 61.5636 154.277 61.029C154.569 60.8995 154.893 61.029 155.022 61.3044C155.152 61.596 155.022 61.92 154.747 62.0496C154.31 62.2602 153.564 62.7299 153.548 63.5723C153.532 64.1716 153.921 65.7753 157.727 67.7515C161.567 69.744 164.045 69.339 164.725 68.1241C165.179 67.3142 164.79 65.9697 163.154 64.9977C162.879 64.8358 162.798 64.4956 162.96 64.2202C163.122 63.9448 163.462 63.8638 163.737 64.0258C165.989 65.3703 166.442 67.379 165.713 68.6749C165.195 69.6468 164.061 70.2785 162.393 70.2785Z" fill="#202D37"/>
<path d="M161.696 73.7135C159.185 73.7135 155.46 72.5634 154.066 71.2999C153.224 70.5386 152.852 69.4857 153.062 68.4975C153.273 67.4932 154.002 66.7157 155.071 66.3593C155.362 66.2621 155.686 66.4241 155.783 66.7157C155.881 67.0073 155.735 67.3312 155.427 67.4284C154.747 67.6552 154.293 68.1412 154.164 68.7243C154.034 69.3399 154.277 69.9716 154.828 70.4576C156.14 71.6563 160.011 72.7578 162.198 72.5634C162.976 72.4986 163.267 71.9317 163.365 71.4781C163.494 70.8302 163.284 70.2632 163.154 70.1984C162.846 70.1336 162.668 69.8258 162.733 69.5181C162.798 69.2103 163.105 69.0159 163.413 69.0969C164.239 69.2751 164.596 70.328 164.531 71.2837C164.434 72.6444 163.559 73.584 162.295 73.6973C162.101 73.7135 161.907 73.7135 161.696 73.7135Z" fill="#202D37"/>
<path d="M160.919 77.8091C159.671 77.8091 158.246 77.5175 156.885 76.902C154.828 75.9787 153.694 74.8123 153.71 73.5974C153.726 73.0467 154.002 72.01 155.767 71.281C156.059 71.1676 156.383 71.2972 156.513 71.5888C156.626 71.8804 156.496 72.2043 156.205 72.3339C155.346 72.6903 154.86 73.1439 154.844 73.6136C154.844 74.1644 155.492 75.0391 157.339 75.8653C160.092 77.0964 162.765 76.821 163.446 75.8167C163.818 75.2497 163.462 74.375 162.457 73.3869C162.231 73.1763 162.231 72.8037 162.441 72.5931C162.652 72.3663 163.024 72.3663 163.235 72.5769C165.211 74.4884 164.806 75.8329 164.385 76.4484C163.786 77.3393 162.474 77.8091 160.919 77.8091Z" fill="#202D37"/>
<path d="M178.785 75.8502C178.769 75.8502 178.737 75.8502 178.72 75.8502C171.739 75.0727 168.369 71.8815 167.592 65.2562C165.68 65.321 160.675 65.321 159.476 63.5877C159.233 63.2476 159.039 62.6806 159.363 61.9193C160.918 58.3717 169.422 57.1244 170.394 56.9949C170.702 56.9463 170.994 57.173 171.026 57.4808C171.075 57.7886 170.848 58.0802 170.54 58.1126C168.094 58.4365 161.501 59.8458 160.4 62.3566C160.27 62.6644 160.319 62.8102 160.4 62.9236C161.112 63.9603 165.308 64.2195 168.062 64.0737C168.369 64.0575 168.629 64.2843 168.661 64.5921C169.293 71.1202 172.144 73.9549 178.85 74.7001C179.158 74.7325 179.385 75.0079 179.352 75.3318C179.32 75.6396 179.077 75.8502 178.785 75.8502Z" fill="#202D37"/>
<path d="M208.234 84.6146C198.888 84.6146 190.821 80.8727 187.873 79.512C187.403 79.3014 186.933 79.0747 186.771 79.0261C186.512 79.0585 185.637 79.431 184.86 79.755C182.43 80.7755 178.38 82.4764 174.898 82.3144C174.59 82.2982 174.347 82.039 174.363 81.715C174.379 81.4073 174.638 81.1643 174.962 81.1805C178.186 81.3263 182.09 79.6902 184.422 78.7183C185.88 78.1028 186.496 77.8598 186.901 77.9084C187.128 77.9408 187.419 78.0704 188.342 78.4915C191.728 80.0628 202.014 84.8251 213.045 83.1243C213.353 83.0757 213.644 83.2863 213.693 83.594C213.742 83.9018 213.531 84.1934 213.223 84.242C211.539 84.5012 209.87 84.6146 208.234 84.6146Z" fill="#202D37"/>
<path d="M164.45 59.0032C162.781 59.0032 160.594 58.7764 158.958 57.8369C158.683 57.6749 158.602 57.3347 158.748 57.0593C158.91 56.784 159.25 56.703 159.525 56.8487C162.149 58.3876 166.734 57.7235 166.782 57.7073C167.09 57.6587 167.382 57.8693 167.43 58.177C167.479 58.4848 167.268 58.7764 166.96 58.825C166.879 58.8412 165.843 59.0032 164.45 59.0032Z" fill="#202D37"/>
<path d="M164.758 48.3123C164.223 48.3123 163.64 48.2799 163.008 48.2313C161.032 48.0531 159.558 47.5186 158.489 46.6115C158.246 46.4009 158.213 46.0445 158.424 45.8177C158.634 45.5747 158.991 45.5423 159.218 45.7529C160.092 46.4981 161.372 46.9354 163.105 47.0974C166.572 47.4214 168.532 46.6924 169.828 46.0121C170.103 45.8663 170.443 45.9797 170.589 46.2551C170.735 46.5305 170.621 46.8706 170.346 47.0164C169.164 47.6482 167.463 48.3123 164.758 48.3123Z" fill="#202D37"/>
<path d="M171.788 110.24C171.788 111.293 171.561 112.152 171.108 112.816C170.654 113.48 169.925 113.95 168.921 114.241V117.011C168.921 117.092 168.888 117.157 168.84 117.222C168.791 117.271 168.71 117.303 168.629 117.303H164.968C164.887 117.303 164.823 117.271 164.758 117.222C164.709 117.173 164.677 117.092 164.677 117.011V114.549C163.996 114.517 163.365 114.468 162.814 114.403C162.749 114.387 162.684 114.355 162.636 114.29C162.587 114.225 162.555 114.16 162.555 114.079L162.846 111.131C162.862 111.034 162.895 110.969 162.96 110.921C163.024 110.872 163.105 110.856 163.203 110.872C163.429 110.921 163.656 110.969 163.899 111.002C164.142 111.034 164.45 111.083 164.823 111.131C165.195 111.18 165.551 111.196 165.875 111.196C166.232 111.212 166.523 111.164 166.783 111.066C167.026 110.969 167.204 110.856 167.301 110.71C167.398 110.564 167.479 110.435 167.512 110.321C167.544 110.208 167.576 110.094 167.576 110.013C167.576 109.916 167.56 109.803 167.512 109.673C167.479 109.56 167.398 109.398 167.285 109.22C167.171 109.042 166.961 108.863 166.685 108.685C166.394 108.507 166.054 108.377 165.632 108.28C165.163 108.167 164.709 107.989 164.272 107.713C163.834 107.454 163.429 107.13 163.057 106.725C162.684 106.336 162.377 105.834 162.15 105.251C161.923 104.668 161.81 104.02 161.81 103.34C161.81 102.368 162.053 101.558 162.555 100.894C163.057 100.229 163.753 99.7435 164.693 99.4195V96.5685C164.693 96.4875 164.725 96.4227 164.774 96.3579C164.823 96.2931 164.904 96.2607 164.985 96.2607H168.645C168.726 96.2607 168.791 96.2931 168.856 96.3579C168.921 96.4227 168.953 96.4875 168.953 96.5685V99.0307C169.601 99.0631 170.249 99.1117 170.897 99.1765C170.962 99.1927 171.027 99.2251 171.091 99.2899C171.14 99.3547 171.172 99.4195 171.156 99.5005L170.865 102.449C170.849 102.53 170.816 102.594 170.751 102.659C170.687 102.708 170.606 102.74 170.525 102.708C169.504 102.481 168.581 102.368 167.755 102.368C167.414 102.351 167.123 102.4 166.864 102.497C166.621 102.594 166.442 102.724 166.329 102.87C166.216 103.016 166.151 103.145 166.102 103.259C166.07 103.372 166.037 103.469 166.037 103.583C166.037 103.68 166.054 103.777 166.102 103.907C166.135 104.02 166.216 104.182 166.345 104.36C166.459 104.538 166.669 104.716 166.961 104.895C167.252 105.073 167.593 105.202 168.014 105.3C168.483 105.413 168.937 105.607 169.374 105.867C169.812 106.126 170.217 106.45 170.589 106.855C170.962 107.26 171.253 107.746 171.48 108.329C171.675 108.928 171.788 109.56 171.788 110.24Z" fill="#202D37"/>
<path d="M168.629 117.87H164.968C164.742 117.87 164.531 117.789 164.369 117.627C164.207 117.465 164.126 117.255 164.126 117.028V115.1C163.64 115.068 163.186 115.019 162.765 114.971C162.538 114.938 162.36 114.841 162.215 114.663C162.085 114.501 162.004 114.307 162.004 114.096C162.004 114.08 162.004 114.064 162.004 114.048L162.296 111.099C162.328 110.84 162.457 110.63 162.652 110.484C162.846 110.338 163.105 110.289 163.348 110.338C163.559 110.387 163.786 110.435 164.013 110.468C164.239 110.5 164.547 110.549 164.904 110.597C165.26 110.646 165.584 110.662 165.892 110.662C166.183 110.662 166.41 110.646 166.588 110.565C166.783 110.484 166.831 110.419 166.847 110.403C166.928 110.273 166.977 110.192 166.993 110.144C167.026 110.063 167.026 110.03 167.026 110.014C167.026 109.998 167.026 109.949 166.993 109.852C166.977 109.803 166.945 109.706 166.815 109.528C166.783 109.463 166.669 109.35 166.394 109.188C166.151 109.042 165.859 108.929 165.503 108.848C164.984 108.718 164.466 108.508 163.98 108.216C163.51 107.924 163.057 107.568 162.652 107.131C162.231 106.677 161.891 106.126 161.631 105.462C161.388 104.814 161.259 104.101 161.259 103.34C161.259 102.255 161.55 101.315 162.117 100.554C162.603 99.906 163.284 99.3877 164.142 99.0313V96.5691C164.142 96.3423 164.223 96.1479 164.369 95.9697C164.531 95.7915 164.758 95.6943 164.985 95.6943H168.645C168.872 95.6943 169.099 95.7915 169.261 95.9535C169.423 96.1155 169.52 96.3423 169.52 96.5691V98.4967C170.006 98.5291 170.476 98.5615 170.946 98.6263H170.962C171.156 98.6587 171.351 98.7559 171.48 98.9179C171.642 99.0961 171.723 99.3391 171.691 99.582L171.399 102.514V102.53C171.367 102.757 171.253 102.968 171.059 103.113C170.848 103.275 170.605 103.324 170.362 103.275C169.391 103.065 168.5 102.951 167.706 102.935C167.431 102.935 167.204 102.951 167.026 103.032C166.831 103.113 166.766 103.178 166.75 103.194C166.653 103.34 166.604 103.421 166.604 103.454C166.588 103.502 166.572 103.551 166.572 103.583C166.572 103.583 166.572 103.632 166.604 103.729C166.621 103.761 166.653 103.859 166.783 104.053C166.831 104.118 166.928 104.247 167.22 104.409C167.463 104.555 167.754 104.668 168.111 104.749C168.629 104.879 169.131 105.09 169.617 105.381C170.103 105.657 170.557 106.029 170.962 106.467C171.383 106.92 171.723 107.471 171.966 108.135C172.209 108.783 172.339 109.496 172.339 110.241C172.339 111.407 172.08 112.395 171.545 113.14C171.075 113.805 170.379 114.323 169.455 114.663V117.028C169.455 117.255 169.374 117.465 169.212 117.627C169.067 117.789 168.856 117.87 168.629 117.87ZM165.244 116.737H168.354V114.242C168.354 113.983 168.516 113.772 168.759 113.691C169.617 113.432 170.265 113.027 170.638 112.476C171.027 111.909 171.221 111.164 171.221 110.225C171.221 109.609 171.124 109.042 170.929 108.524C170.735 108.005 170.476 107.584 170.152 107.228C169.812 106.871 169.455 106.58 169.067 106.353C168.678 106.126 168.273 105.948 167.852 105.851C167.398 105.738 166.993 105.576 166.653 105.381C166.297 105.171 166.037 104.928 165.859 104.685C165.713 104.458 165.6 104.263 165.551 104.101C165.487 103.923 165.454 103.761 165.454 103.599C165.454 103.437 165.487 103.259 165.551 103.081C165.616 102.919 165.697 102.757 165.843 102.563C166.021 102.32 166.28 102.125 166.637 101.996C166.961 101.866 167.333 101.817 167.738 101.834C168.5 101.85 169.374 101.947 170.298 102.125L170.524 99.7602C169.99 99.7116 169.439 99.663 168.888 99.6468C168.581 99.6306 168.354 99.3877 168.354 99.0799V96.8606H165.244V99.4363C165.244 99.6792 165.098 99.8898 164.871 99.9708C164.061 100.262 163.429 100.684 163.008 101.251C162.587 101.817 162.377 102.498 162.377 103.356C162.377 103.972 162.474 104.539 162.684 105.073C162.879 105.592 163.154 106.029 163.462 106.369C163.802 106.726 164.158 107.017 164.547 107.26C164.92 107.487 165.325 107.649 165.746 107.746C166.216 107.86 166.621 108.022 166.961 108.216C167.333 108.443 167.592 108.67 167.754 108.929C167.9 109.156 167.997 109.334 168.046 109.512C168.111 109.69 168.143 109.868 168.143 110.03C168.143 110.192 168.111 110.354 168.046 110.532C167.981 110.694 167.9 110.873 167.771 111.067C167.609 111.31 167.333 111.504 166.993 111.634C166.669 111.764 166.297 111.812 165.875 111.796C165.551 111.796 165.179 111.764 164.774 111.731C164.385 111.683 164.061 111.634 163.818 111.602C163.672 111.585 163.543 111.553 163.397 111.521L163.17 113.902C163.64 113.95 164.158 113.999 164.725 114.015C165.033 114.031 165.26 114.274 165.26 114.582V116.737H165.244ZM170.557 99.4686C170.557 99.4848 170.557 99.4848 170.557 99.4686V99.4686Z" fill="#202D37"/>
<path d="M139.552 47.6819C139.471 47.6819 139.39 47.6656 139.309 47.6171C139.034 47.4875 138.905 47.1473 139.05 46.8557C139.115 46.7261 145.222 34.1235 147.247 29.766C147.376 29.4744 147.717 29.361 147.992 29.4906C148.284 29.6202 148.397 29.9604 148.267 30.2358C146.243 34.6094 140.136 47.2121 140.071 47.3417C139.957 47.5685 139.763 47.6819 139.552 47.6819Z" fill="#202D37"/>
<path d="M146.097 45.9795C145.87 45.9795 145.627 45.9471 145.4 45.8823C144.687 45.6717 144.121 45.1372 143.797 44.392C143.489 43.6793 143.456 42.8694 143.699 42.0756C144.202 40.4233 145.773 39.419 147.215 39.8564C147.927 40.067 148.494 40.6015 148.818 41.3467C149.126 42.0594 149.158 42.8693 148.915 43.6631C148.51 45.0562 147.328 45.9795 146.097 45.9795ZM146.518 40.8931C145.789 40.8931 145.06 41.5087 144.785 42.4158C144.623 42.9504 144.639 43.4849 144.849 43.9547C145.028 44.3758 145.352 44.6836 145.74 44.797C146.583 45.0562 147.522 44.392 147.846 43.3391C148.008 42.8046 147.992 42.27 147.781 41.8002C147.603 41.3791 147.279 41.0713 146.891 40.9579C146.777 40.9093 146.648 40.8931 146.518 40.8931Z" fill="#202D37"/>
<path d="M139.439 37.9464C139.018 37.9464 138.597 37.8492 138.208 37.6225C137.56 37.2499 137.123 36.6019 136.977 35.8082C136.848 35.0469 136.993 34.2369 137.398 33.5242C138.257 32.0177 140.039 31.4183 141.335 32.1635C142.647 32.9086 143.003 34.7553 142.128 36.2456C141.545 37.3309 140.476 37.9464 139.439 37.9464ZM140.12 32.9896C139.488 32.9896 138.808 33.4108 138.403 34.1073C138.127 34.5933 138.014 35.1279 138.111 35.6138C138.192 36.0674 138.435 36.44 138.791 36.6343C139.553 37.0717 140.622 36.6505 141.173 35.6948C141.723 34.7391 141.561 33.6052 140.8 33.1516C140.589 33.0382 140.363 32.9896 140.12 32.9896Z" fill="#202D37"/>
<path d="M133.138 47.2272C132.814 47.2272 132.571 46.968 132.571 46.6602C132.571 46.4658 132.604 41.9949 132.863 40.4885C132.911 40.1807 133.203 39.9701 133.511 40.0187C133.819 40.0673 134.029 40.3589 133.981 40.6666C133.738 42.0759 133.705 46.6116 133.705 46.6602C133.705 46.968 133.446 47.2272 133.138 47.2272Z" fill="#202D37"/>
<path d="M131.162 43.1931C130.871 43.1931 130.628 42.9663 130.595 42.6747C130.563 42.367 130.806 42.0916 131.114 42.0592C132.393 41.9458 135.406 42.0592 135.536 42.0592C135.844 42.0754 136.087 42.3346 136.087 42.6423C136.07 42.9501 135.827 43.1931 135.503 43.1931C135.471 43.1931 132.426 43.0797 131.211 43.1931C131.195 43.1931 131.178 43.1931 131.162 43.1931Z" fill="#202D37"/>
<path d="M227.154 136.595C227.138 136.595 227.122 136.595 227.106 136.595C226.798 136.562 226.571 136.287 226.603 135.979C231.512 85.6016 231.787 23.1076 229.147 18.1509C228.094 16.1909 220.059 13.2265 208.137 10.3918C197.3 7.81624 185.896 5.9858 180.438 5.92101C180.13 5.92101 179.871 5.66183 179.871 5.35406C179.871 5.04629 180.13 4.78711 180.438 4.78711C185.977 4.8519 197.478 6.69853 208.38 9.2903C215.783 11.0397 228.434 14.4576 230.118 17.6163C231.819 20.8075 232.095 41.9465 231.787 60.672C231.366 86.3467 229.875 113.836 227.705 136.092C227.689 136.368 227.446 136.595 227.154 136.595Z" fill="#202D37"/>
<path d="M60.5683 34.9983C64.5208 38.9183 69.6557 31.5804 64.1482 31.71C67.7281 26.5264 60.1472 23.6755 58.6407 27.4336C57.5716 25.2144 53.2142 25.9757 53.7973 28.5351C50.9302 25.7327 45.7629 28.7294 46.6376 32.6657C41.4379 31.5642 37.0319 38.3028 42.426 40.1008C40.8709 40.9431 40.7251 44.1666 43.5923 44.8146C44.8557 45.1062 45.7791 46.1591 46.2164 47.131C46.7996 48.3945 48.6462 49.4798 49.0512 46.9366C49.4561 44.3934 50.59 44.1018 51.1408 43.6969C51.6915 43.2919 52.2099 40.7812 51.1408 39.874C52.6473 40.279 54.9312 39.1775 54.7207 36.6667C56.1137 37.8168 59.4992 37.6224 60.5683 34.9983Z" fill="#202D37"/>
<path d="M47.8854 49.0423C46.9621 49.0423 46.0874 48.2162 45.6986 47.3577C45.326 46.5478 44.5485 45.6082 43.4632 45.3653C41.9729 45.0251 40.9686 44.0046 40.7905 42.6115C40.6771 41.7368 40.9039 40.8783 41.3736 40.2627C39.4946 39.2746 39.1544 37.5738 39.527 36.2131C40.1587 33.8805 42.8801 31.7261 45.974 31.9853C45.893 30.1872 46.8649 28.5026 48.6143 27.5307C50.1694 26.6722 51.9026 26.656 53.2795 27.4173C53.5063 26.6722 54.1056 26.0728 54.9966 25.765C56.1791 25.3601 57.6693 25.5221 58.5926 26.3968C59.1596 25.6679 60.0343 25.2305 61.071 25.1495C62.7233 25.0361 64.4241 25.9108 65.2016 27.2715C65.5904 27.9681 66.044 29.3449 65.1206 31.1916C66.4813 31.4183 66.9187 32.1635 67.0645 32.6656C67.3884 33.8157 66.5785 35.3222 65.1854 36.1483C63.7276 37.0068 62.1239 36.9096 60.7632 35.8891C60.1801 36.8124 59.2568 37.4604 58.1067 37.752C57.1186 37.9949 56.0981 37.9301 55.2719 37.6062C55.1423 38.4323 54.7374 39.145 54.0894 39.6796C53.5549 40.1331 52.8746 40.4085 52.1942 40.4895C52.3076 40.8621 52.3562 41.2832 52.34 41.753C52.3076 42.6277 52.0322 43.7454 51.4815 44.1504C51.3843 44.2314 51.2709 44.2962 51.1575 44.361C50.6068 44.7011 49.9264 45.1223 49.6187 47.0175C49.3595 48.6212 48.5658 48.9775 48.096 49.0261C48.0312 49.0423 47.9664 49.0423 47.8854 49.0423ZM45.5204 33.103C43.204 33.103 41.1306 34.739 40.6447 36.5209C40.2559 37.9301 40.9686 38.9992 42.6209 39.5662C42.8315 39.631 42.9935 39.8254 43.0097 40.0521C43.0259 40.2789 42.9125 40.4895 42.7181 40.6029C42.1511 40.9107 41.8272 41.6882 41.9406 42.4819C42.0701 43.389 42.7181 44.037 43.7386 44.28C45.6014 44.7011 46.5247 46.402 46.7515 46.9041C47.0431 47.5359 47.6424 47.957 47.9664 47.9246C48.2094 47.8922 48.42 47.4873 48.5172 46.8555C48.9059 44.4257 49.9588 43.7778 50.5906 43.4052C50.6878 43.3405 50.7687 43.2919 50.8335 43.2595C50.9631 43.1461 51.2547 42.4009 51.2223 41.5262C51.2061 40.9755 51.0603 40.5381 50.8011 40.3275C50.5906 40.1493 50.542 39.874 50.6554 39.631C50.7849 39.388 51.0441 39.2746 51.3033 39.3394C51.9674 39.5176 52.7936 39.307 53.3605 38.8373C53.7817 38.4809 54.2676 37.833 54.1704 36.7315C54.1542 36.5047 54.2676 36.2941 54.4782 36.1807C54.6888 36.0835 54.9318 36.0997 55.11 36.2455C55.7093 36.7476 56.827 36.9258 57.8313 36.6667C58.4468 36.5209 59.5483 36.0673 60.0667 34.7876C60.1315 34.6094 60.2935 34.4799 60.4717 34.4475C60.6498 34.4151 60.8442 34.4637 60.99 34.6094C62.5289 36.1483 64.0353 35.5166 64.6023 35.1764C65.6228 34.5771 66.1411 33.5565 65.963 32.9896C65.8334 32.5198 65.1692 32.2607 64.1649 32.2931C63.9543 32.2931 63.76 32.1797 63.6466 32.0015C63.5494 31.8071 63.5656 31.5803 63.679 31.4021C64.5861 30.0739 64.7805 28.859 64.2135 27.8547C63.6628 26.8666 62.3669 26.2186 61.152 26.2996C60.6012 26.332 59.6131 26.5588 59.1758 27.6441C59.0948 27.8547 58.9004 27.9843 58.6736 28.0005C58.4468 28.0005 58.2363 27.8871 58.1391 27.6765C57.6855 26.7208 56.341 26.494 55.3691 26.8342C54.9804 26.9637 54.1218 27.3849 54.3648 28.3892C54.4134 28.6322 54.3162 28.8914 54.0894 29.0048C53.8627 29.1343 53.6035 29.0857 53.4091 28.9238C52.0646 27.6279 50.2828 27.8871 49.1651 28.5188C47.9988 29.1667 46.7677 30.6084 47.1889 32.536C47.2375 32.7304 47.1727 32.9248 47.0431 33.0544C46.9135 33.184 46.7191 33.2488 46.5247 33.2164C46.1846 33.1354 45.8444 33.103 45.5204 33.103Z" fill="#202D37"/>
</svg>
